<?xml version="1.0" encoding="utf-8"?>
<svg version="1.1" id="Calque_1" xmlns="http://www.w3.org/2000/svg" xmlns:xlink="http://www.w3.org/1999/xlink" x="0px" y="0px"
	 viewBox="0 0 101 33" enable-background="new 0 0 101 33" xml:space="preserve">
<g>
	<path fill="#FFFFFF" d="M93.5,12c0.8-1.4,3.9-6.3,4.6-7.4c0.7-1.2,1.5-2.3,2.2-3.5c0.1-0.1,0.2-0.2,0.1-0.3
		c-0.1-0.1-0.2-0.1-0.3-0.1c-0.8,0-1.7,0-2.5-0.1c-0.1,0-0.2,0-0.3,0.1C97.2,1,97,1.2,96.9,1.4c-0.3,0.6-0.5,1.2-0.8,1.8
		c-0.5,0.9-1,1.8-1.5,2.7c-1.1,1.7-2.1,3.5-3.5,5c-1,1.1-2.1,2.1-3.4,2.8c-0.1,0.1-0.3,0.2-0.4,0.1c-0.1-0.1-0.1-0.3-0.1-0.4
		c0.1-1-0.2-1.9-1-2.6c-1.3-1.1-2.7-1.1-4.2-0.7c-0.7,0.2-1.3,0.6-1.9,1c-1.3,0.9-2.4,2.1-3.2,3.5c-0.4,0.7-0.8,1.4-1.5,1.8
		c0,0,0,0,0,0c-0.5,0.3-1,0.7-1.6,0.8c-0.5,0.1-1.1-0.2-1.3-0.7c-0.3-0.6-0.2-1.3,0.1-1.9c0.3-0.6,0.7-1.3,1.1-1.9
		c0.6-1,1.3-1.9,1.9-2.8c0.1-0.2,0.3-0.3,0.5-0.3c0.9,0.1,1.8,0.1,2.7,0.2c0.3,0,0.4-0.1,0.6-0.3c0.3-0.4,0.5-0.7,0.8-1.1
		c0.1-0.1,0.1-0.2,0.1-0.3c-0.1-0.1-0.1-0.1-0.2-0.1c-0.8,0-1.6,0-2.4-0.1c-0.2,0-0.4,0.1-0.5-0.1c-0.1-0.2,0.1-0.3,0.2-0.4
		c0.7-1.1,1.5-2.2,2.3-3.2c0.2-0.3,0.5-0.6,0.7-1c0.1-0.2,0.1-0.3-0.1-0.3c-1.2,0-2.3,0-3.5-0.1c-0.2,0-0.3,0.1-0.3,0.3
		c0,0.3-0.1,0.6-0.2,0.9c-0.5,1.3-1.1,2.4-1.9,3.5c-0.1,0.1-0.2,0.2-0.4,0.2c-0.9,0-1.7-0.1-2.6-0.1c-0.2,0-0.3,0-0.4,0.1
		c-0.2,0.4-0.4,0.8-0.6,1.3c-0.1,0.1,0,0.2,0.1,0.2c0.1,0,0.2,0,0.3,0c0.7,0,1.4,0.1,2.2,0.1c0.1,0,0.2,0,0.2,0.1
		c0,0.1-0.1,0.2-0.1,0.2c-0.3,0.4-0.6,0.8-0.9,1.2c-1.7,2.2-3.7,3.9-6.1,5.3c-0.1,0-0.2,0.1-0.3,0.1c-0.1-0.1,0-0.2,0-0.3
		c0.1-0.8,0-1.7-0.3-2.5c-0.3-0.9-0.6-1.7-0.7-2.6c0-0.4-0.3-0.6-0.7-0.6c-0.3,0-0.5,0.2-0.6,0.4c-0.5,0.6-1,1.2-1.5,1.8
		c-0.9,1.1-1.9,2.1-2.9,3.1c-0.1,0.1-0.2,0.2-0.4,0.1c-0.6-0.1-1.2,0.1-1.7,0.4c-0.8,0.5-1.2,1.3-1.5,2.2c0,0.1-0.1,0.2-0.2,0.3
		c-0.5,0.3-1.1,0.4-1.6,0.3c-0.9-0.3-1.5-1.1-1.3-2.1c0.2-1.1,0.7-2,1.3-2.9c0.8-1.2,1.8-2.2,2.9-3.1c0.1-0.1,0.2-0.1,0.1-0.2
		c0-0.1-0.1-0.1-0.2-0.1c-1,0.1-2,0.1-3.1,0.1c-0.2,0-0.4,0.1-0.5,0.3c-0.5,0.8-1.1,1.6-1.6,2.3c-0.9,1.3-1.9,2.5-3,3.5
		c-0.8,0.8-1.6,1.5-2.7,1.9c-1,0.3-1.9-0.3-1.8-1.4c0.1-0.7,0.4-1.4,0.7-2c0.7-1.2,1.6-2.3,2.5-3.3c0.1-0.1,0.3-0.3,0.3-0.5
		c0.1-0.3,0-0.5-0.3-0.5c-0.1,0-0.2,0-0.3,0c-0.8,0.1-1.7,0.3-2.5,0.3c-1.5,0.1-3.1,0.1-4.5-0.5c-0.2-0.1-0.4-0.2-0.6-0.2
		c-0.2-0.1-0.4,0-0.5,0.2c-0.1,0.3-0.3,0.6-0.4,1c-0.6,1.3-1.3,2.4-2.2,3.5c-0.6,0.8-1.4,1.4-2.2,1.9c-0.6,0.3-0.6,0.3-0.8-0.4
		c-0.2-0.6-0.5-1.1-0.8-1.6c-0.1-0.2-0.1-0.3,0.1-0.4c0.6-0.5,1.2-1.1,1.6-1.7c0.8-1.1,1.3-2.2,1.4-3.5c0.2-1.8-0.2-3.5-1.4-5
		c-0.1-0.2-0.1-0.3,0-0.4c0.8-0.6,1.6-1,2.5-1.1c1.4-0.2,2.6,0.1,3.6,1.1c0.7,0.7,0.7,1.5,0.4,2.4c0,0.1-0.1,0.2,0,0.2
		c0,0,0.2,0,0.2,0c1.1-0.1,3.1-1.6,3.1-3.6c0-2.4-1.7-3-3.7-3c-2.5,0-4.9,0.9-7.5,2.7c-0.2,0.1-0.3,0.1-0.4,0
		C31.1,2,30.3,1.4,29.3,1c-4.4-1.8-9.6-1.3-13.6,1.3c-3.1,1.9-5.6,5.6-5.1,9.4c0.2,1.5,1,3.4,2.6,3.9c1.7,0.5,3.4-0.5,4.1-2.1
		c0.4-0.9-0.2-0.7-0.8-1.2c-0.6-0.4-1-0.9-1.2-1.6C14.5,8.8,14.9,6.6,16,5c2.2-3.2,6.9-4.4,10.4-2.9c1.4,0.5,2.5,1.4,3.3,2.6
		C30,4.9,29.9,5,29.7,5.1c-0.6,0.6-1.2,1.1-1.7,1.7c-1,1.1-1.9,2.4-2.7,3.7c-0.2,0.4-0.5,0.5-0.9,0.4c0,0,0,0,0,0
		c-1-0.2-2,0-2.9,0.4c-0.6,0.3-1.1,0.7-1.3,1.3c-0.3,0.8-0.2,1.6,0.3,2.3c0.3,0.4,0.6,0.7,1,1c0.1,0.1,0.2,0.2,0.1,0.4
		c-0.6,0.8-1.1,1.8-1.7,2.6c-0.9,1.4-1.8,2.8-2.9,4.2c-1.3,1.7-2.9,3.3-4.8,4.5c-1.3,0.9-3,1-4.4,0.3c-1.1-0.6-1.8-1.8-1.6-3.1
		c0.1-0.7,0.5-1.2,1-1.7c0.5-0.5,0.6-0.7-0.2-0.9C5.6,21.8,4,22,2.7,22.6c-2.4,1.2-3.4,3.7-2.2,6.2c1.3,2.6,4.1,3.9,6.9,3.9
		c3-0.1,5.4-1.9,7.4-4.1c1.5-1.6,2.7-3.4,3.8-5.2c1.1-1.7,4-6,4.3-6.4c0.1-0.1,0.2-0.2,0.4-0.2c1.3,0.3,3.8,0.4,5.5-0.2
		c0.2-0.1,0.3-0.1,0.4,0.1c0.3,0.7,0.5,1.3,0.6,2c0.2,1.3,0.1,2.5-0.2,3.7c-0.3,1.2-0.7,2.4-1.4,3.5c-0.1,0.2-0.2,0.2-0.4,0.1
		c-0.4-0.1-0.7-0.3-1.1-0.4c-0.6-0.1-1.2-0.3-1.8-0.5c-0.8-0.2-1.7-0.3-2.5-0.3c-1.1,0-2,0.3-2.9,1c-1.1,0.9-1.7,2.2-1.2,3.6
		c0.6,1.6,1.7,2.5,3.3,2.7c2.4,0.4,4.6-0.3,6.6-1.8c0.6-0.4,1.1-0.9,1.7-1.4c0.1-0.1,0.3-0.2,0.4-0.1c8.7,2.1,16.8,3.3,27.8,3.3
		c8,0,16.2-1.1,24.5-3c7.4-1.7,12.6-3.8,15.4-6.5c1.1-1.1,1.6-2.2,1.5-3.7c-0.1-0.8-0.4-1.6-1.1-2.1c-0.6-0.4-1.2-0.4-1.9-0.4
		c-0.8,0.1-1.7,0.1-2.5,0.1c-0.5,0-0.9-0.2-1.3-0.6c-0.5-0.6-0.5-1.3-0.3-2C92.7,13.5,93.1,12.7,93.5,12z M27.2,27.9
		c-0.7,1-1.4,1.8-2.5,2.4c-0.7,0.3-1.3,0.5-2,0.5c-0.6,0-1.2-0.1-1.7-0.4c-1.2-0.6-1.4-2.1-0.5-3.1c0.8-0.9,1.8-1.1,2.9-1
		c1.1,0.1,2.1,0.4,3.1,0.9c0.2,0.1,0.5,0.2,0.7,0.3C27.3,27.6,27.3,27.7,27.2,27.9z M80.7,12.7c0.5-0.5,1-1,1.7-1.3
		c0.4-0.2,0.8-0.3,1.3-0.3c0.9,0,1.6,0.4,1.9,1.3c0.2,0.5,0.1,1,0,1.5c-0.4,1.8-1.5,3.2-2.9,4.3c-0.5,0.4-1,0.6-1.6,0.7
		c-1.3,0.1-2.3-1-2.2-2.3C79.1,15.1,79.7,13.8,80.7,12.7z M59.9,18.9c0.3-0.4,0.6-0.8,0.6-1.3c0-0.5-0.1-0.9-0.4-1.2
		c-0.1-0.2-0.1-0.3,0-0.4c0.7-0.7,1.5-1.5,2.1-2.3c0.1-0.1,0.3-0.1,0.3,0.1c0.2,0.6,0.4,1.2,0.5,1.8c0,0.4,0.1,0.8,0,1.2
		c-0.1,1.1-0.6,1.9-1.5,2.4c-0.4,0.2-0.8,0.3-1.2,0.4c-0.1,0-0.2,0-0.3,0C59.6,19.3,59.6,19.3,59.9,18.9z M23.6,13.1
		c-0.4,0.5-0.7,1.1-1.1,1.6c-0.2,0.2-0.3,0.2-0.4,0c-0.3-0.3-0.4-0.5-0.4-0.9c0-0.5,0.3-0.8,0.7-1c0.3-0.2,0.7-0.2,1.1-0.2
		C23.7,12.8,23.8,12.9,23.6,13.1z M27.7,14.8c-0.9,0.5-1.9,0.8-3,0.8c-0.1,0-0.3,0-0.4,0c-0.1,0-0.2,0-0.2-0.1c0-0.1,0-0.1,0.1-0.2
		c0.3-0.4,0.5-0.8,0.8-1.1c0.2-0.3,0.4-0.6,0.6-0.9c0.1-0.1,0.2-0.2,0.3-0.1c0.7,0.3,1.3,0.7,1.8,1.3C27.9,14.6,27.8,14.7,27.7,14.8
		z M31.3,8.3c0,1.7-0.5,3.1-1.4,4.3c-0.3,0.3-0.3,0.3-0.6,0.1c-0.7-0.4-1.4-0.8-2.1-1.1c-0.4-0.2-0.4-0.2-0.2-0.6
		c1-1.6,2.1-3,3.5-4.3c0,0,0,0,0.1-0.1c0.1-0.1,0.2-0.3,0.3-0.2c0.2,0.1,0.2,0.3,0.2,0.4C31.2,7.4,31.4,7.9,31.3,8.3z M93.7,19.1
		c0.5-0.3,1.1-0.6,1.7-0.8c0.7-0.2,1.3-0.2,1.9,0.1c0.8,0.4,1,1.2,0.7,2c-0.3,0.6-0.7,1.2-1.3,1.6c-0.3,0.3-2.7,2-6.1,3
		c-8.8,2.6-21,4.4-33.7,4.4c-13.6,0-24.4-2.2-25.1-2.3c-0.2,0-0.2-0.1-0.1-0.3c0.4-0.7,0.8-1.5,1-2.3c0.5-1.6,0.8-3.3,0.6-5
		c0-0.4,0-0.6,0.4-0.7c1.3-0.6,2.2-1.6,3.2-2.6c0.4-0.5,0.9-1,1.2-1.5c0.2-0.2,0.3-0.2,0.5-0.2c0.6,0.2,1.3,0.3,2,0.3
		c0.6,0,1.1-0.1,1.6-0.3c0.1,0,0.1-0.1,0.1,0c0.1,0.1,0,0.1,0,0.2c-0.3,0.4-0.7,0.7-1,1.1c-0.7,0.9-1.3,1.9-1.8,3
		c-0.2,0.5-0.3,1-0.2,1.5c0.1,0.5,0.4,1,0.8,1.3c0.6,0.5,1.2,0.6,1.9,0.6c1.1,0,2-0.4,2.9-0.9c1.1-0.6,2.1-1.3,3-2.2
		c0.2-0.2,0.2-0.1,0.3,0.1c0.3,0.9,0.7,1.7,1.7,2.1c0.7,0.2,1.4,0.3,2.1,0.2c1-0.2,1.9-0.6,2.8-1.2c0.2-0.1,0.4-0.3,0.7-0.4
		c0.2-0.1,0.3-0.1,0.4,0c1.3,1.2,2.8,1.6,4.5,1.4c1-0.1,2-0.5,3-1c1.6-0.9,3-1.9,4.3-3.2c0.1-0.1,0.1-0.2,0.2-0.1
		c0.1,0.1,0,0.2,0,0.2c-0.3,0.9-0.5,1.8-0.1,2.8c0.3,0.7,0.9,1,1.6,1.2c0.6,0.1,1.2,0,1.7-0.2c1.3-0.5,2.4-1.3,3.5-2.1
		c0.4-0.3,0.8-0.6,1.2-0.9c0.2-0.1,0.2-0.1,0.3,0.1c0.2,1.4,0.9,2.4,2.1,3.1c0.3,0.2,0.7,0.3,1,0.3c1,0.1,2-0.1,2.9-0.6
		c0.9-0.5,1.6-1.1,2.3-1.8c0.7-0.8,1.3-1.6,1.8-2.6c0.2-0.4,0.6-0.4,0.9-0.6c0.4-0.3,0.9-0.5,1.2-0.8c0.1,0,0.1-0.1,0.2-0.1
		c0.1,0.1,0,0.2,0,0.2c-0.4,0.6-0.8,1.2-1,1.8c-0.4,0.9-0.5,1.8-0.3,2.8c0.3,1.1,1.2,1.6,2.4,1.4c0.9-0.1,1.6-0.5,2.4-1
		C92.3,20,93.4,19.3,93.7,19.1z"/>
	<path fill="#FFFFFF" d="M56.9,8.6c1.1,0,1.8-0.7,1.8-1.7c0-1-0.7-1.7-1.7-1.7c-1.1,0-1.8,0.8-1.8,1.7C55.2,7.8,55.9,8.6,56.9,8.6z"
		/>
</g>
</svg>
