<?xml version="1.0" encoding="utf-8"?>
<!-- Generator: Adobe Illustrator 18.1.1, SVG Export Plug-In . SVG Version: 6.00 Build 0)  -->
<svg version="1.1" id="Layer_1" xmlns="http://www.w3.org/2000/svg" xmlns:xlink="http://www.w3.org/1999/xlink" x="0px" y="0px"
	 viewBox="0 0 300 300" enable-background="new 0 0 300 300" xml:space="preserve">
<g>
	<path fill="#E95F2F" d="M219.9,99.1c-0.5-54-59.8-90.5-107.4-62.9C89,49.9,92.1,71.3,77.6,87.2C61.9,104.2,56.6,94,60,73
		C79.8-49.7,290.4,17,230,145.3c-12.5,26.6-36.3,38.3-54.5,59.8c-16.8,19.8-11.7,42.8-25.3,63c-30.9,45.9-112.3-0.3-88.2-24.5
		c11.3-11.4,25.3,23.5,37.6,26.6c32,8,33.9-20.7,39.5-41.6C153.7,173.8,213.7,161.6,219.9,99.1C219.6,63,219.3,105,219.9,99.1z"/>
	<g>
		<g>
			<g>
				<g opacity="0.85">
					<g>
						<path fill="#E95F2F" d="M193,154.9c-2.5,2.8-5.2,5.6-7.8,8.3c1.4-1.3,2.7-2.7,4.1-4C191,157.4,191.8,156.4,193,154.9z"/>
						<path fill="#E95F2F" d="M177.7,170.7c-0.5,0.5-1,1-1.4,1.4c-0.4,0.4-0.8,0.9-1.2,1.3C175.9,172.5,176.8,171.6,177.7,170.7z"/>
						<path fill="#E95F2F" d="M163.9,185.1c1.2-1.3,2.4-2.6,3.5-3.8c1.2-1.2,2.3-2.4,3.4-3.6c-1,1-2.1,2.1-3.3,3.4
							C166.4,182.3,165.2,183.6,163.9,185.1z"/>
						<path fill="#E95F2F" d="M175,173.7c-0.9,0.8-1.4,1.2,0-0.3c0,0,0,0,0.1-0.1c-1.4,1.4-2.8,2.8-4.2,4.3
							C172.4,176.2,173.8,174.9,175,173.7z"/>
						<path fill="#E95F2F" d="M175,173.7c0.9-0.8,2.3-2.1,2.7-2.5C176.9,172,176,172.8,175,173.7z"/>
						<path fill="#E95F2F" d="M172.7,178.5c-1.4,1.5-1.4,0.8-4,3.7c-6.3,6.8-11.3,13-16.1,20.2c-1,1.7-2.5,3.7-3.8,5.9
							c-1.4,2.1-2.6,4.4-3.4,6.1c-0.9,2.1-2.2,5.1-3.1,8.2c-0.6,1.5-0.9,3.2-1.4,4.7c-0.4,1.5-0.8,3-1,4.3c-1.1,5.2-1.5,7.7,0.1,0.8
							c1.2-5.1,2.7-9.6,4.3-13.8c0.9-2.1,1.7-4.1,2.7-6c0.9-1.9,2-3.7,3-5.6c2.1-3.6,4.4-7,6.9-10.4c2.5-3.4,5.3-6.8,8.5-10.3
							c10.1-11.5,21.2-21.5,31.4-33.7c2.9-3.4,5.4-6.7,7.9-10.1c-3.2,4.5-6.8,8.7-10.9,13.3C188.1,162.1,181.5,169.4,172.7,178.5z"
							/>
						<path fill="#E95F2F" d="M219.9,90.5c0-1-0.1-2.5-0.1-3.7c0-1.2,0-2.2,0-2.2l0-0.1l0,0c0,0-0.1,0-0.2-0.1c0,0,0,0-0.1,0
							c0,0-0.1,0-0.2,0l0,0.2l0,0.4l0,0.8l0,1.7c0,1.1,0,2.3,0,3.4c0,2.3,0,4.6,0,6.9c0,0.6,0.1,1.2,0,1.7l-0.2,1.7
							c-0.1,1.1-0.3,2.3-0.4,3.4c-0.2,1.1-0.4,2.3-0.6,3.4c-0.2,1.1-0.4,2.3-0.7,3.4c0.4-1.3,0.7-2.6,1.1-4c0.5-2.6,0.6-4.1,0.6-4.3
							c0-0.1-0.1,0.1-0.2,0.6c-0.1,0.5-0.2,1.4-0.5,2.5c0.3-1.3,0.5-2.7,0.7-4c0.1-0.7,0.2-1.3,0.3-2l0.1-1c0-0.3,0-0.7,0-1
							c0-2.7,0-5.3,0-7.9c0-1.3,0-2.6,0-3.9c0-0.7,0-1.3-0.1-2c0-0.3,0,0,0,0.1l0,0.5l0,1c0,2.6,0,5.2,0,7.8
							C219.7,93.3,219.9,93.4,219.9,90.5z"/>
						<path fill="#E95F2F" d="M219.8,99.3l0,0.2l0,0.1l0,0c0,0,0,0,0,0c0,0,0,0,0,0C219.8,99.6,219.8,99.4,219.8,99.3l-0.1-0.8
							l-0.1-1.5c0-1,0-2.1-0.1-3.1c0,0,0,0.1,0,0.2c0,1,0.1,2.1,0.1,3.1c0,0.5,0,1,0.1,1.5c0,0.3,0,0.5,0.1,0.8l0,0.1c0,0,0,0,0,0
							c0,0,0,0,0,0c0,0,0,0,0,0c0,0,0-0.1,0-0.2l0-0.4C219.8,99.2,219.8,99.3,219.8,99.3z"/>
						<path fill="#E95F2F" d="M141.5,220.8c-0.6,1.6-1.2,3.1-1.6,4.7c-0.5,1.6-1,3.1-1.3,4.7c-0.8,3.2-1.5,6.3-2.3,9.5
							c-1.5,6.2-3.1,12.5-5.8,18.1c-1.4,2.8-3.1,5.5-5.3,7.7c-1.1,1.1-2.3,2.1-3.6,2.9c-1.3,0.8-2.7,1.5-4.2,1.9c-2.9,1-6,1.3-9,1.2
							c-3-0.1-6.1-0.7-9-1.4c-1.8-0.5-3-1-4.9-2.6c-1.4-1.3-2.7-2.6-4-4.1c-2.4-2.6-4.6-5.4-6.8-8.2c-0.8-0.9-1.6-1.9-2.4-2.9
							c0,0,0-0.1-0.1-0.1c-1.3-1.5-1-1-0.3,0c0.8,1.1,1.6,2.1,2.2,3c-0.4-0.6-1.5-2-2.2-3c-1-1.3-2.2-2.8-3.7-4.4
							c-1.1-1.2-2.3-2.3-3.6-3.4c-1.3-1.1-2.8-2.1-4.4-2.7c1.9,0.6,3.4,1.7,4.7,2.8c1.3,1.1,2.4,2.2,3.4,3.3c1.4,1.5,2.7,3,4,4.5
							c0.4,0.4,0.7,0.9,1.1,1.3c-2.6-3.1-5.1-6.3-8.2-9c-1.5-1.3-3.3-2.5-5.3-3.2c-2-0.7-4.3-0.2-6,1c-1.5,1.2-2.6,2.6-3.4,3.9
							c-1.6,2.5-2.3,5.6-2.1,8.2c0.2,2.7,1,5,1.7,6.7c0.6,1.3,1.4,2.6,2.2,3.8c-0.1-0.2-0.3-0.5-0.5-0.7c0.4,0.5,0.7,1,0.9,1.4
							c3.7,4.9,8.6,8.9,13.9,12.1c3.5,2,7.2,3.7,11.1,5.2c0,0,0.6,0.3,1.4,0.6c0.8,0.4,1.7,0.7,2.4,1c1.6,0.4,3.9,1,6.7,1.6
							c-3.2-0.9-6-1.9-8.6-3c-3.8-1.6-8.7-3.1-12.6-6c3.9,2.9,8.9,4.4,12.6,6c2.6,1.1,5.4,2.1,8.6,3c2.8,0.6,6.1,1.2,9.5,1.5
							c3.3,0.3,6.8,0.4,9.8,0.3c-3.8,0.4-7.3,0.3-10.5,0c-3.2-0.4-6.1-1-8.8-1.7c-2.7-0.6-5-1.2-6.7-1.6c-0.6-0.2-1.6-0.6-2.4-1
							c-0.8-0.3-1.4-0.6-1.4-0.6c-3.8-1.4-7.6-3.2-11.1-5.2c5.1,3.2,10.7,5.6,16.6,7.4c5.8,1.8,12,2.9,18.2,3.1
							c10,0.3,20.2-2.1,28.5-7.7c4.1-2.8,7.7-6.3,10.6-10.3c2.9-4,5.3-8.3,7-12.9c3.6-9.1,5.1-18.8,7.7-28c1.3-4.6,2.9-9.1,5-13.4
							c0.6-1,1.1-2.1,1.7-3.1l1.9-3c0.6-1,1.4-1.9,2.1-2.8l1.1-1.4l1.2-1.3c6.3-7.2,13.6-13.6,20.9-20.1c3.7-3.2,7.3-6.5,10.9-9.8
							c3.5-3.4,7-7,10.2-10.8c3.1-3.9,6.1-7.9,8.6-12.3c2.5-4.4,4.6-9,6.4-13.7c0.5-1.2,0.9-2.4,1.4-3.6c0.4-1.2,0.8-2.4,1.2-3.6
							c0.8-2.4,1.4-4.9,2.1-7.4c1.2-5,2.2-10.1,2.5-15.3c0.4-5.6,0.5-11.3-0.2-16.9c-0.6-5.6-1.8-11.1-3.5-16.4
							c-3.4-10.6-9.1-20.3-16-28.8c-7-8.4-15.4-15.5-24.5-21.3c-9.2-5.7-19-10.3-29.3-13.3c-5.1-1.5-10.3-2.7-15.5-3.5
							c-5.2-0.8-10.5-1.2-15.7-1.2c-10.5-0.1-21,1.6-30.8,5.1c-9.8,3.5-18.9,9.1-26.3,16.4c-3.7,3.6-6.9,7.7-9.7,12.1
							c-0.7,1.1-1.4,2.2-2,3.3l-1.8,3.4c-1.1,2.3-2.2,4.7-3.1,7.1c-1,2.4-1.7,4.9-2.5,7.3c-0.4,1.2-0.6,2.5-1,3.7
							c-0.3,1.2-0.6,2.5-0.9,3.8c-1,5-1.8,10.1-1.8,15.4c0,2.7,0.2,5.4,1.1,8.2c0.5,1.4,1.2,2.9,2.5,4.1c0.7,0.6,1.5,1.1,2.4,1.4
							c0.5,0.1,0.9,0.2,1.4,0.2l0.7,0c0.2,0,0.4,0,0.6-0.1c1.7-0.2,3.1-0.8,4.4-1.5c1.3-0.7,2.4-1.5,3.5-2.3c2.1-1.7,4-3.6,5.8-5.5
							c3.7-4,6.5-8.6,8.8-13.4c2.3-4.8,4.1-9.6,6.3-14.2c2.1-4.6,4.6-9,7.8-12.7c3.2-3.7,7.1-6.9,11.5-9.4c6.8-3.8,15.8-7.4,26-8.6
							c5.1-0.6,10.5-0.5,15.9,0.2c5.4,0.7,10.8,2.1,16,4.1c5.2,2,10.1,4.6,14.6,7.7c4.5,3.1,8.5,6.6,12,10.3
							c3.5,3.7,6.4,7.6,8.8,11.5c0.6,1,1.1,2,1.7,2.9c0.3,0.5,0.5,0.9,0.8,1.4c0.2,0.5,0.5,1,0.7,1.4c0.4,0.9,0.9,1.9,1.3,2.8
							c0.4,0.9,0.7,1.8,1.1,2.7c1.9,4.7,3,8.6,3.7,11.9c0.2,0.8,0.4,1.6,0.5,2.3c0.2,0.7,0.2,1.4,0.4,2c0.2,1.3,0.4,2.3,0.6,3.3
							c0.5,3.7,0.9,4.8,1.2,4.6c0.3-0.2,0.5-1.8,0.7-3.5c0.2-1.7,0.1-3.4,0.1-3.9c-0.3-6.5-1.5-12.6-3.7-18.7
							c-2.2-6-5.4-12-9.9-18.1c-0.5-0.8-1.2-1.5-1.8-2.2c-0.6-0.7-1.2-1.5-1.9-2.3c-1.4-1.4-2.7-3-4.3-4.5c-3.1-3-6.7-5.8-10.8-8.6
							c-4.1-2.7-8.8-5.3-14.2-7.4c-5.4-2.1-11.4-3.8-18.1-4.7c2.3,0.3,4.2,0.6,5.7,1c1.5,0.4,2.7,0.6,3.5,0.8c1.6,0.5,2,0.7,1.3,0.5
							c-0.3-0.1-0.9-0.2-1.7-0.4c-0.8-0.1-1.9-0.3-3.1-0.6c-0.6-0.1-1.3-0.3-2-0.3c-0.7-0.1-1.5-0.2-2.3-0.3
							c-1.6-0.2-3.4-0.3-5.4-0.4c-1-0.1-2-0.1-3-0.1c-1,0-2.1,0-3.2,0c-2.2,0.2-4.5,0.3-6.9,0.6c-2.4,0.3-4.8,0.8-7.2,1.4
							c-1.2,0.3-2.4,0.7-3.6,1c-1.2,0.3-2.4,0.8-3.6,1.2c-4.8,1.8-9.5,3.9-13.8,6.7c-4.2,2.7-8,5.8-10.9,9.2
							c-4.3,4.8-7.4,10.9-10.1,17.1c-1.4,3.1-2.7,6.3-4.2,9.3c-0.4,0.8-0.7,1.5-1.1,2.3c-0.4,0.7-0.8,1.5-1.2,2.3
							C80.8,78.2,80,79.6,79,81c-0.9,1.4-2.1,2.7-3.2,4c-1.2,1.3-2.4,2.6-3.7,3.7c-1.3,1.2-2.6,2.2-4,3c-1.3,0.8-2.8,1.3-3.5,1.2
							c-0.4-0.1-0.6-0.2-0.9-0.5c-0.3-0.3-0.6-0.8-0.9-1.5c-0.5-1.3-0.8-3-1-4.7c-0.3-3.5,0.1-7.3,0.6-11c1.1-7.5,2.9-15,5.9-22.1
							c3-7,7-13.6,12-19.4c10.2-11.4,24.3-18.6,38.8-21.3c14.4-2.8,30.5-2.2,47.5,2.6c11,3.2,21.4,8.1,30.7,14.3
							c9.3,6.2,17.7,13.9,24.3,22.8c6.6,8.9,11.4,19,14,29.7c1.3,5.3,2,10.8,2.1,16.3c0.1,5.5-0.2,11.1-1.1,16.5
							c-0.2,1.4-0.5,2.7-0.8,4.1l-0.4,2c-0.1,0.7-0.3,1.4-0.5,2c-0.4,1.3-0.7,2.7-1.1,4l-1.3,4c-0.4,1.3-0.9,2.6-1.4,4
							c-0.5,1.3-1,2.6-1.5,3.9c-1.1,2.6-2.2,5.2-3.5,7.6c-2.6,4.9-5.6,9.7-9.2,14c-3.6,4.4-7.6,8.5-11.8,12.5
							c-8.4,8-17.8,15.4-26.3,24.3c-1.1,1.1-2.1,2.2-3.1,3.4c-1,1.2-2.1,2.2-3,3.5c-2,2.5-3.8,5.1-5.3,7.9
							c-3.1,5.6-5.2,11.7-6.8,17.7c-1.7,6.4-2.9,12.7-4.5,18.5c-1.6,5.8-3.6,11.2-6.5,16.1c-2.8,4.9-6.4,9.1-10.6,12.4
							c-4.2,3.3-9.1,5.6-14.1,7c-7.4,2-15.6,2-23.2,0.7c-7.6-1.3-14.5-3.9-20.2-6.8c-4.4-2.3-8.5-4.9-12-7.9
							c-3.5-3-6.4-6.4-8.2-10.1c-1.8-3.7-2.1-7.8-0.4-11.1c0.4-0.8,0.9-1.6,1.5-2.4c0.3-0.4,0.6-0.7,0.9-1.1c0.3-0.4,0.6-0.6,1-0.9
							c0.7-0.5,1.3-0.9,2-0.9c0.3-0.1,0.7,0,1.1-0.1c0.4,0.1,0.8,0.1,1.2,0.3c-0.9-0.3-1.7-0.4-2.5-0.2c-0.2,0-0.4,0.1-0.6,0.2
							c-0.2,0.1-0.4,0.1-0.6,0.2c-0.3,0.2-0.7,0.4-1,0.8l-0.5,0.4l-0.5,0.5c-0.3,0.4-0.6,0.7-0.9,1.1c-0.6,0.8-1,1.6-1.4,2.4
							c-1.5,3.4-1.1,7.2,0.6,10.7c1.6,3.5,4.3,6.7,7.5,9.6c3.2,2.9,7.1,5.6,11.6,8c3,1.6,4.1,2,3.7,1.9c-0.4-0.1-2.2-0.8-4.5-2
							c-2.3-1.2-5.2-2.8-7.8-4.8c-2.6-1.9-5-4-6.5-5.7c-1.3-1.4-2.8-3.4-3.8-5.6c-1.1-2.2-1.6-4.4-1.9-6.2c-0.5-3.8,1-7.4,3.7-10.2
							c1.3-1.3,2.8-2.1,4.5-1.9c0.9,0.1,1.7,0.5,2.6,0.9c0.9,0.5,1.8,1.1,2.6,1.8c1.5,1.2,2,1.9,2.4,2.4c0.4,0.5,0.5,0.8,1.2,1.5
							c4.2,4.6,7.7,9,11.2,12.8c1.7,1.9,3.4,3.6,5.2,5.2c1.8,1.5,3.6,2.9,5.8,3.6c0.8,0.3,1.6,0.4,2.3,0.6c0.7,0.2,1.5,0.4,2.2,0.5
							c0.7,0.1,1.5,0.3,2.2,0.4c0.7,0.1,1.5,0.2,2.2,0.2c2.9,0.2,5.8,0.1,8.6-0.6c3.5-0.8,6.9-2.6,9.7-5.3c1.7-1.7,3.2-3.7,4.4-5.8
							c-1.1,1.6-1.7,2-2.2,2.4c1.1-1.4,2.2-3.1,3.1-4.9c1-1.8,1.8-3.7,2.4-5.3c-0.6,1.6-1.4,3.5-2.4,5.3c-1,1.8-2.1,3.6-3.1,4.9
							c0.5-0.4,1.1-0.8,2.2-2.4c2.2-3.8,3.7-8,4.9-12.3c1.2-4.3,2.2-8.8,3.2-13.2c0.5-2.2,1-4.5,1.5-6.7l0.9-3.3l0.5-1.6l0.6-1.6
							c0.4-1.1,0.8-2.1,1.1-3.2c0.4-1,0.9-2.1,1.3-3.1l0.7-1.6l0.7-1.5c0.5-1,1-2,1.5-3c0,0.1-0.1,0.1-0.2,0.2
							c-2.4,4.6-4.4,9.4-6.1,14.3c-1.6,4.9-2.8,10.1-4.2,15.3c1.2-4.6,1.2-4,0,1.3c-0.4,1.3-0.8,2.6-1.2,3.9c1.1-4.5,2-9.1,3.1-13.6
							c0.5-2.2,1.2-4.4,1.9-6.6c0.3-1.1,0.8-2.1,1.2-3.2c0.4-1,0.8-2.1,1.3-3.1c0,0,0.4-0.9,0.8-2.1c0.2-0.6,0.5-1.2,0.7-1.8
							c0.2-0.6,0.5-1.2,0.7-1.6c1.4-2.6,1.5-2.4,1.8-2.9c0.5-0.9,1-1.8,1.5-2.7c0.5-0.9,1-1.8,1.6-2.7c-1.3,1.8-3.6,5.6-5.4,9.2
							c-0.9,1.8-1.6,3.5-2.2,4.7C141.8,220,141.5,220.8,141.5,220.8z"/>
						<path fill="#E95F2F" d="M77.2,247.6c1,1,2.2,2.3,3.4,3.8c-2.2-2.6-4.4-5.2-7.1-7.3c-1.3-1.1-2.8-2-4.5-2.5
							c-0.4-0.2-0.9-0.2-1.3-0.3c-0.4-0.1-0.9,0-1.3,0c-0.4,0.1-0.9,0.1-1.3,0.3c-0.4,0.2-0.8,0.3-1.2,0.5c1.6-0.9,4.3-1,6.7,0.3
							c1.2,0.6,2.4,1.4,3.4,2.3C75.1,245.5,76.2,246.5,77.2,247.6z"/>
					</g>
				</g>
			</g>
		</g>
	</g>
</g>
<g>
	<path fill="#E95F2F" d="M117.5,101.6c-3.8,13.7,36.1,28.4,28.9,57c-3.3,13.2-32.2,45.3-47.4,26.6c-11.3-13.9,25.1-18.4,28.2-31.8
		c4.7-20.4-12.9-15.4-18.5-25c-7-11.9-13.2-11.3-11.1-31.4c7.6-71.5,118.2-52.3,101.4,0.6c-9.9,31.1-21.7-13.7-27.5-19.6
		C150.1,56.4,117.5,71.7,117.5,101.6C115.9,107.6,117.5,100,117.5,101.6z"/>
	<g>
		<g>
			<g>
				<g opacity="0.85">
					<g>
						<path fill="#E95F2F" d="M137.2,71c0.8-0.3,1.6-0.7,2.5-0.9l1.3-0.4l1.3-0.3l-1.3,0.2c-0.4,0.1-0.9,0.2-1.3,0.3
							C138.4,70.2,137.9,70.6,137.2,71z"/>
						<path fill="#E95F2F" d="M147,68.7c0.3,0,0.6,0,0.9,0c0.3,0,0.6,0,0.8,0C148.1,68.6,147.6,68.6,147,68.7z"/>
						<path fill="#E95F2F" d="M156.1,69.5c-0.8-0.2-1.6-0.4-2.3-0.5c-0.8-0.1-1.5-0.2-2.3-0.3c0.7,0.1,1.4,0.2,2.1,0.3
							C154.4,69.1,155.2,69.3,156.1,69.5z"/>
						<path fill="#E95F2F" d="M148.8,68.4c0.6,0.1,0.8,0.1-0.1,0.2c0,0,0,0,0,0c0.9-0.1,1.8,0,2.8,0.1
							C150.5,68.6,149.6,68.4,148.8,68.4z"/>
						<path fill="#E95F2F" d="M148.8,68.4c-0.5-0.1-1.4-0.1-1.7-0.2C147.6,68.3,148.2,68.3,148.8,68.4z"/>
						<path fill="#E95F2F" d="M151.3,66.8c1,0,0.7,0.5,2.6,0.7c4.5,0.7,8.2,2.1,11.8,4.3c1.7,1,3.8,3.2,5.2,4.5
							c0.2,0.2,0.4,0.4,0.7,0.6c0.2,0.2,0.5,0.4,0.8,0.8c0.6,0.6,1,1.3,1.5,2c0.9,1.4,1.7,2.8,2.3,3.9c1.3,2.2,1.9,3.2,0.4,0.2
							c-0.6-1.1-1.1-2.2-1.7-3.3c-0.6-1-1.2-2-2-3.1c-0.5-0.6-0.9-0.9-1.3-1.3c-0.4-0.4-0.8-0.7-1.2-1.1c-0.8-0.7-1.6-1.3-2.5-2
							c-3.4-2.4-7-4.3-11.5-5.6c-7.4-1.8-15.1-0.8-21.8,2.8c-1,0.5-1.8,1-2.7,1.5c-0.8,0.6-1.7,1.1-2.5,1.7c2.1-1.5,4.5-2.9,7.2-4
							c1.8-0.7,3.8-1.5,6.2-2.1C145.4,67,148.2,66.6,151.3,66.8z"/>
						<path fill="#E95F2F" d="M117.7,102.4c0-0.2,0.1-0.5,0.2-0.9c0-0.3,0-0.7,0-1c0-0.6,0-1.1,0-1.1c0.5-4.1,1.3-8.4,2.9-12.5
							c-0.3,0.6-0.6,1.1-1,1.7c-0.8,2.4-0.7,2.7,0.1,0.6c-1,2.3-1.6,4.8-2,7.2c-0.2,1.2-0.3,2.4-0.3,3.7c0.1,1.2-0.3,2.4-0.7,3.6
							C117.1,103.7,117.3,103.8,117.7,102.4z"/>
						<path fill="#E95F2F" d="M117.6,101.5c0,0,0-0.1,0-0.1c0,0,0-0.1-0.1-0.1c-0.1,0-0.1,0-0.1,0.1c0,0.1-0.1,0.1-0.1,0.2
							c0,0.1-0.1,0.2-0.1,0.4l-0.2,0.7l-0.2,0.7l-0.1,0.4l0,0.2c0,0,0,0.1,0,0.1c0.1,0,0-0.1,0.1-0.1c0,0-0.1,0.1-0.1,0.1
							c0-0.5,0.2-1,0.3-1.4c0.1-0.2,0.1-0.5,0.2-0.7c0-0.1,0.1-0.2,0.1-0.3c0,0,0-0.1,0.1-0.1c0,0,0.1-0.1,0.1,0
							C117.6,101.4,117.6,101.4,117.6,101.5c0,0,0,0,0,0.1L117.6,101.5z"/>
						<path fill="#E95F2F" d="M172.5,79.7c1.6,2.6,2.9,5.5,4.1,8.2c1.3,2.8,2.5,5.5,3.8,8.2c1.3,2.7,2.7,5.3,4.3,7.7
							c0.8,1.2,1.7,2.4,2.8,3.3c1.1,1,2.5,1.8,4,1.7c0.9-0.2,1.4-0.6,2.4-1.3c0.7-0.5,1.3-1.2,1.9-2c0.9-1.4,1.6-3,2.2-4.5
							c0.2-0.5,0.4-1.1,0.6-1.7c0,0,0,0,0,0c0.2-0.9,0.1-0.7-0.2-0.1c-0.3,0.6-0.5,1.1-0.8,1.6c0.2-0.3,0.5-1.1,0.8-1.6
							c0.3-0.7,0.6-1.6,0.9-2.5c0.2-0.7,0.4-1.5,0.5-2.3c0.2-0.8,0.3-1.6,0.5-2.4c-0.1,0.9-0.3,1.8-0.4,2.5
							c-0.1,0.8-0.4,1.5-0.6,2.1c-0.2,0.9-0.5,1.8-0.8,2.7c-0.1,0.3-0.2,0.5-0.2,0.8c1.3-3.6,2.3-7.4,2.5-11.2c0.1-0.9,0-1.7,0-2.4
							c-0.1-2.8-0.7-5.5-0.9-7.2c-0.2-0.7-0.4-1.3-0.6-2c0,0.1,0.1,0.3,0.1,0.4c-0.1-0.3-0.2-0.5-0.2-0.7c-1-2.7-2.4-5.3-4.1-7.7
							c-1.2-1.5-2.6-2.9-4-4.2c0,0-0.8-1-1.3-1.5c-0.7-0.4-1.6-1.1-2.7-1.9c0.6,0.5,1.1,1.1,1.6,1.6c0.5,0.5,1,1,1.4,1.5
							c0.6,0.7,1.4,1.4,2.3,2.2c0.8,0.8,1.6,1.6,2.1,2.7c-0.5-1.1-1.3-1.9-2.1-2.7c-0.8-0.8-1.7-1.5-2.3-2.2c-0.4-0.5-0.9-1-1.4-1.5
							c-0.5-0.5-1-1.1-1.6-1.6c-2.2-1.6-5.2-3.5-7.7-5c3.3,1.4,5.7,3.3,7.7,5c1.1,0.7,2,1.5,2.7,1.9c0.4,0.5,1.3,1.5,1.3,1.5
							c1.4,1.3,2.8,2.7,4,4.2c-3.4-4.7-7.9-8.5-13-11.4c-8.2-4.7-17.4-7.2-26.6-7.9c-9.2-0.6-18.5,0.5-27.2,3.9
							c-4.3,1.6-8.4,3.9-12.2,6.7c-3.7,2.8-7.1,6.1-9.9,10c-1.4,1.9-2.6,4-3.8,6.1c-1.1,2.1-2.1,4.3-2.9,6.6
							c-1.6,4.6-2.7,9.4-3.2,14.3c-0.3,2.7-0.5,5.3-0.4,8c0,2.7,0.3,5.4,1.2,8c0.9,2.6,2.4,5,4,7c1.6,2.1,3.2,4,4.5,6.1
							c0.4,0.5,0.7,1,1,1.6l0.5,0.8l0.2,0.4l0.3,0.5c0.8,1.2,1.8,2.3,2.9,3.1c2.2,1.7,4.7,2.8,6.9,3.8c2.3,1,4.4,2,6,3.5
							c1.6,1.5,2.4,3.4,2.6,5.6c0.2,2.2-0.1,4.5-0.6,6.8c-0.1,0.6-0.3,1-0.4,1.5c-0.1,0.2-0.2,0.4-0.3,0.7c-0.1,0.2-0.2,0.4-0.4,0.7
							l-0.4,0.6l-0.5,0.6c-0.3,0.4-0.7,0.8-1.1,1.2c-1.6,1.5-3.5,2.8-5.5,4.1c-2,1.2-4.1,2.4-6.2,3.5c-2.1,1.1-4.2,2.3-6.3,3.5
							c-2.1,1.3-4.2,2.6-6.1,4.4c-1,0.9-1.9,2-2.6,3.3c-0.7,1.3-1,3-0.8,4.6c0.1,0.8,0.3,1.5,0.6,2.2c0.3,0.7,0.6,1.3,1,1.9
							c0.8,1.2,1.7,2.1,2.6,3.1c1.9,1.8,4.3,3.3,7,4.1c2.6,0.7,5.4,0.7,8,0.2c2.6-0.5,5-1.4,7.3-2.5c2.3-1.1,4.4-2.5,6.5-4
							c4.1-3,7.7-6.4,11.1-10.2c3.3-3.8,6.4-7.9,8.8-12.8c2-4,2.9-9.1,2.3-14.8c-0.6-5.6-3.1-11.3-6.4-16.1
							c-3.3-4.8-7.2-8.8-10.8-12.4c-3.6-3.6-6.8-6.7-9.1-9.3c-3.1-3.4-4.1-5.6-4.4-6.9c-0.1-0.3-0.2-0.6-0.2-0.8
							c0-0.2-0.1-0.4-0.1-0.6c-0.1-0.3-0.3-0.4-0.4-0.4c-0.2,0-0.3,0.1-0.5,0.4c-0.2,0.2-0.4,0.6-0.5,0.9c-0.1,0.4-0.2,0.8-0.2,1.1
							c0,0.3,0,0.6,0,0.7c0.1,1.5,0.6,3,1.3,4.4c0.7,1.4,1.5,2.6,2.4,3.9c1.8,2.4,4,4.7,6.5,7.2c2.4,2.5,5.2,5.3,8.1,8.7
							c1.5,1.7,2.9,3.6,4.3,5.8c1.4,2.2,2.7,4.6,3.6,7.4c-0.4-0.9-0.6-1.7-0.9-2.3c-0.3-0.6-0.5-1.1-0.6-1.4
							c-0.3-0.7-0.3-0.9-0.1-0.6c0.4,0.5,1.8,2.6,2.8,5.9c1.1,3.3,1.6,7.8,0.7,12.3c-0.3,1.1-0.5,2.2-0.9,3.2c-0.4,1-0.9,2-1.4,3
							c-1.1,1.9-2.3,3.7-3.5,5.2c-3.5,4.4-7.8,8.9-12.9,13c-2.5,2-5.3,3.9-8.2,5.3c-2.9,1.4-6.1,2.4-9.1,2.2c-3-0.1-5.7-1.5-7.8-3.9
							c-1.1-1.1-2-2.4-2.1-3.5c0-0.3-0.1-0.5-0.1-0.7c0-0.2,0.1-0.5,0.1-0.7c0.1-0.3,0.2-0.5,0.3-0.8c0.2-0.3,0.3-0.5,0.5-0.8
							c0.9-1.1,2.1-2.2,3.5-3.2c1.4-1,2.9-1.9,4.5-2.8c3.1-1.8,6.4-3.4,9.6-5.2c1.6-0.9,3.2-1.9,4.8-3.1c1.6-1.2,3.2-2.6,4.6-4.5
							c0.4-0.4,0.7-1,1-1.5c0.3-0.5,0.6-1.1,0.8-1.7c0.2-0.6,0.4-1.3,0.5-1.8c0.1-0.5,0.2-1.1,0.3-1.6c0.4-2.2,0.6-4.5,0.4-7
							c-0.2-1.6-0.6-3.4-1.4-5c-0.8-1.6-2-3-3.3-4.1c-2.7-2.1-5.5-3.2-7.9-4.3c-2.4-1.1-4.5-2.2-5.9-3.6c-0.3-0.4-0.6-0.7-0.9-1.2
							c-0.1-0.2-0.3-0.5-0.5-0.8l-0.6-0.9c-0.4-0.6-0.8-1.2-1.2-1.8c-0.4-0.6-0.8-1.2-1.2-1.7c-1.7-2.3-3.5-4.3-4.8-6.3
							c-1.3-2-2.1-4-2.5-6.3c-0.4-2.3-0.5-4.8-0.3-7.4c0.1-2.6,0.4-5.2,0.7-7.7c0.4-2.5,0.9-5.1,1.7-7.5c0.3-1.2,0.8-2.4,1.2-3.7
							c0.5-1.2,0.9-2.4,1.5-3.5c1.1-2.3,2.4-4.6,3.9-6.6c1.5-2.1,3.2-4.1,5-5.9c7.4-7.3,17.8-11.8,28.8-13.2
							c11.7-1.5,22.4-0.2,31.8,3.3c3.4,1.3,6.7,3.2,9.6,5.2c2.9,2.1,5.3,4.4,7.2,6.6c3,3.5,4.9,7.2,6,11.1c0.5,1.9,0.9,3.8,1,5.8
							c0.1,1.9,0.1,3.8-0.2,5.7c0.6-4.2,0.2-7.9-0.7-11.4c-0.5-1.8-1.2-3.5-2.1-5.3c-0.9-1.8-2.1-3.6-3.6-5.4
							c-1-1.2-1.3-1.6-1.2-1.5c0.2,0.1,0.8,0.7,1.6,1.6c0.4,0.4,0.8,1,1.3,1.5c0.4,0.6,0.9,1.2,1.3,1.8c0.4,0.6,0.8,1.3,1.1,1.8
							c0.3,0.6,0.6,1.2,0.8,1.6c0.8,1.6,1.1,4.5,1.5,6.2c0.6,3.8,0.7,7.4-0.1,11.6c-0.1,0.9-0.3,1.3-0.5,1.5
							c-0.2,0.3-0.3,0.4-0.4,0.8c-0.8,2.8-1.5,5.3-2.4,7.3c-0.5,1-1,1.9-1.6,2.6c-0.6,0.7-1.3,1.1-1.9,1.2c-1,0.1-2-0.4-2.9-1.2
							c-0.9-0.8-1.6-1.7-2.3-2.7c-0.9-1.3-1.7-2.6-2.5-4c-0.5-0.9-1.1-1.8-1.6-2.8c0.3,0.8,0.3,1.2,0.2,1.5
							c-0.7-1.4-1.6-3.4-2.3-4.9c0.6,1.4,1.5,3.5,2.3,4.9c0-0.3,0-0.7-0.2-1.5c-1.9-3.4-3.7-7.2-5.7-11.1c-1-1.9-2-3.9-3.1-5.8
							c-0.3-0.5-0.6-0.9-1-1.4c-0.3-0.5-0.8-0.9-1.2-1.2c-0.8-0.7-1.6-1.5-2.5-2.1c0,0,0,0.1,0.1,0.1c0.5,0.4,1,0.8,1.4,1.2l1.4,1.3
							c0.9,1,1.5,2.1,2.1,3.2c1.1,2.2,2.1,4.5,3,6.9c-0.8-2.1-0.6-1.9,0.5,0.4c0.2,0.6,0.4,1.2,0.6,1.9c-1-2-1.9-4-2.9-5.9
							c-1-1.9-1.8-3.9-3-5.7c0,0-0.3-0.4-0.8-0.8c-0.5-0.4-1-0.8-1.4-1.1c-1-1-0.9-1-1-1.3c-0.8-0.6-1.5-1.2-2.4-1.8
							c0.4,0.3,1,0.9,1.7,1.5c0.7,0.6,1.4,1.3,2,2c0.6,0.7,1.3,1.3,1.6,1.8C172.3,79.3,172.5,79.7,172.5,79.7z"/>
						<path fill="#E95F2F" d="M199.6,96.4c-0.2,0.7-0.4,1.5-0.7,2.3c1-3,1.8-6.2,2-9.4C200.6,91,200.2,93.7,199.6,96.4z"/>
					</g>
				</g>
			</g>
		</g>
	</g>
</g>
</svg>
