<?xml version="1.0" encoding="utf-8"?>
<svg version="1.1" id="Logo" xmlns="http://www.w3.org/2000/svg" xmlns:xlink="http://www.w3.org/1999/xlink" x="0px" y="0px"
	 viewBox="0 0 228 64" enable-background="new 0 0 228 64" xml:space="preserve">
<g id="UNITED">
	<path fill="#3C3C3B" d="M80.9,36.4h5.2v11.5c0,2.8-0.8,5-2.3,6.6c-1.5,1.6-3.6,2.3-6.3,2.3c-2.7,0-4.8-0.8-6.3-2.3
		c-1.5-1.6-2.3-3.7-2.3-6.6V36.4h5.2v12.1c0,1.3,0.3,2.2,0.8,2.9c0.6,0.6,1.4,0.9,2.6,0.9c1.2,0,2-0.3,2.6-0.9
		c0.6-0.6,0.8-1.6,0.8-2.9V36.4z"/>
	<path fill="#3C3C3B" d="M103.7,36.4h5.2v20.2h-5.1l-8.3-12v12h-5.2V36.4h5.3l8.1,11.9V36.4z"/>
	<path fill="#3C3C3B" d="M119.1,56.5h-5.2V36.4h5.2V56.5z"/>
	<path fill="#3C3C3B" d="M122.2,36.4h16.9v4.7h-5.9v15.5H128V41.1h-5.8V36.4z"/>
	<path fill="#3C3C3B" d="M156.1,40.6h-8.9v3.7h7.7v4.3h-7.7v3.7h8.9v4.3H142V36.4h14.1V40.6z"/>
	<path fill="#3C3C3B" d="M167.2,36.4c3.1,0,5.5,0.9,7.1,2.6c1.6,1.7,2.5,4.2,2.5,7.5c0,3.3-0.8,5.8-2.5,7.5s-4,2.6-7.1,2.6h-7.3
		V36.4H167.2z M167.2,52.3c2.9,0,4.4-1.9,4.4-5.8c0-3.9-1.5-5.8-4.4-5.8h-2.1v11.6H167.2z"/>
</g>
<g id="FRONTEND">
	<path fill="#3C3C3B" d="M82.6,14h-8.5v4h7.4v4.3h-7.4v7.6h-5.2V9.8h13.7V14z"/>
	<path fill="#3C3C3B" d="M97.9,22.5l4.9,7.5H97l-3.7-6.7h-2.2v6.7h-5.2V9.8h7.9c2.5,0,4.4,0.6,5.9,1.7c1.5,1.1,2.2,2.8,2.2,4.8
		c0,1.6-0.4,2.9-1.1,4S99.2,22,97.9,22.5z M91.1,19.3h3.1c0.7,0,1.3-0.2,1.8-0.7c0.5-0.5,0.8-1.1,0.8-1.9c0-0.8-0.3-1.4-0.8-1.9
		c-0.5-0.5-1.1-0.7-1.8-0.7h-3.1V19.3z"/>
	<path fill="#3C3C3B" d="M111.9,9.8c0.8-0.2,1.7-0.2,2.7-0.2c0.9,0,1.8,0.1,2.7,0.2c0.8,0.2,1.7,0.5,2.5,0.9
		c0.9,0.5,1.6,1.1,2.2,1.8c0.6,0.7,1.1,1.7,1.5,3c0.4,1.3,0.6,2.7,0.6,4.3c0,1.6-0.2,3.1-0.6,4.3c-0.4,1.3-0.9,2.2-1.5,3
		c-0.6,0.7-1.4,1.3-2.2,1.8c-0.9,0.5-1.7,0.8-2.5,0.9c-0.8,0.2-1.7,0.2-2.7,0.2c-0.9,0-1.8-0.1-2.7-0.2c-0.8-0.2-1.7-0.5-2.5-0.9
		c-0.9-0.5-1.6-1.1-2.2-1.8c-0.6-0.7-1.1-1.7-1.5-3c-0.4-1.3-0.6-2.7-0.6-4.3c0-1.6,0.2-3.1,0.6-4.3c0.4-1.3,0.9-2.2,1.5-3
		c0.6-0.7,1.4-1.3,2.2-1.8C110.3,10.3,111.1,10,111.9,9.8z M111.5,24.4c0.8,0.8,1.8,1.3,3.1,1.3c1.3,0,2.3-0.4,3.1-1.3
		c0.8-0.8,1.2-2.4,1.2-4.5c0-2.2-0.4-3.7-1.2-4.5c-0.8-0.8-1.8-1.3-3.1-1.3c-1.3,0-2.3,0.4-3.1,1.3c-0.8,0.8-1.2,2.4-1.2,4.5
		C110.3,22,110.7,23.5,111.5,24.4z"/>
	<path fill="#3C3C3B" d="M141.3,9.8h5.2v20.2h-5.1l-8.3-12v12h-5.2V9.8h5.3l8.1,11.9V9.8z"/>
	<path fill="#3C3C3B" d="M149.5,9.8h16.9v4.7h-5.9v15.5h-5.2V14.5h-5.8V9.8z"/>
	<path fill="#3C3C3B" d="M183.4,14h-8.9v3.7h7.7V22h-7.7v3.7h8.9v4.3h-14.1V9.8h14.1V14z"/>
	<path fill="#3C3C3B" d="M200.6,9.8h5.2v20.2h-5.1l-8.3-12v12h-5.2V9.8h5.3l8.1,11.9V9.8z"/>
	<path fill="#3C3C3B" d="M217.6,9.8c3.1,0,5.5,0.9,7.1,2.6c1.6,1.7,2.5,4.2,2.5,7.5c0,3.3-0.8,5.8-2.5,7.5c-1.6,1.7-4,2.6-7.1,2.6
		h-7.3V9.8H217.6z M217.6,25.7c2.9,0,4.4-1.9,4.4-5.8c0-3.9-1.5-5.8-4.4-5.8h-2.1v11.6H217.6z"/>
</g>
<g id="Circle">
	<circle fill="#3C3C3B" cx="32" cy="32" r="31"/>
</g>
<g id="F">
	<g>
		<path fill-rule="evenodd" clip-rule="evenodd" fill="#FFFFFF" d="M56.9,23.1c-1.4,0.1-2.7,0.2-4.2,0.3c0.3,0.5,0.7,1.1-0.3,1.3
			c-10.4,1.3-19.8,1.6-30,4.2c0,0.2,0.1,0.4,0.1,0.6c1.9-0.3,3.8-0.7,5.8-0.9c2.8-0.2,5.5-0.4,8.3-0.3c0.9,0,2.1,0.7,2.6,1.5
			c1.3,2.1,2.2,4.3,3.3,6.5c0.5,1,0.2,1.8-1,2.1c-0.2,0-0.4,0.1-0.5,0.2c-2.9,0.9-6,1.1-8.7,2.8c-2.1,1.3-4.3,0.2-6-1.5
			c-1.7-1.7-3.5-3.1-5.3-4.7c-0.2,0.1-0.5,0.2-0.7,0.3c1.8,7.2,3.7,14.3,5.6,22c-1-0.4-1.6-0.5-2-0.9c-2.3-1.7-4.7-3.4-6.8-5.3
			c-1.2-1.1-2.1-2.7-2.6-4.2c-2-6.5-3.8-13.1-5.5-19.7c-0.7-2.6-1.3-5.1-1.7-7.7c-0.4-2,0.9-3,2.8-2.3c0.3,0.1,0.9,0.4,1,0.3
			c2.4-2,5.3-0.9,7.9-1.1c10-0.8,20-1.2,30-1.7c3.9-0.2,7.4,2.6,8.4,6.4C57.2,21.8,57,22.4,56.9,23.1z"/>
	</g>
</g>
</svg>
