<?xml version="1.0" encoding="utf-8"?>
<!-- Generator: Adobe Illustrator 18.1.1, SVG Export Plug-In . SVG Version: 6.00 Build 0)  -->
<svg version="1.1" id="Layer_1" xmlns="http://www.w3.org/2000/svg" xmlns:xlink="http://www.w3.org/1999/xlink" x="0px" y="0px"
	 viewBox="0 169.9 595.3 595" enable-background="new 0 169.9 595.3 595" xml:space="preserve">
<g>
	<g>
		<g>
			<path fill-rule="evenodd" clip-rule="evenodd" fill="#E95F2F" d="M10.5,396.5c5.1-22.7,11.2-45.3,15.2-68.2
				c4.6-26.6,22.2-42,44.6-50.7c50.7-19.6,103.7-26.5,155.9-8.3c25.2,8.8,47.1,27,70.3,41.1c12.8,7.8,13.1,18.4,5.4,29.9
				c-8.2,12.3-16.7,24.3-24.2,35.1c-24-12.3-45.7-24.5-68.2-34.9c-36.4-16.8-74.5-14.3-112.6-6.8c-7.4,1.4-14.6,3.6-21.8,5.8
				c-22.1,6.7-25.8,14.8-17,36.5c11.2,27.5,27.3,52,48,72.9c24.2,24.4,50.5,46.7,75.4,70.4c30.7,29.2,60.8,59,91.2,88.5
				c2,1.9,4.1,3.7,7.9,7.1c15.8-16.2,30.5-32.8,46.8-47.6c44.8-40.5,90.5-79.9,135.5-120.2c20-17.9,39.3-36.6,58.3-55.6
				c7.2-7.2,7-15.8-1-23.6c-23.6-23.1-52.6-27.2-83.9-24.7c-39.5,3.1-74.9,19-110.8,34c-4.7,2-10.5,1.5-15.8,2.2
				c-0.5-5-2.3-10.3-1.2-15c2.9-13.2,6.1-26.5,11-39.1c5.9-15.3,17.7-24.5,33.7-29.7c27.2-8.9,53.4-21.9,81.1-28.6
				c34.4-8.3,70.1-9.4,103,7.2c26.7,13.5,55.4,40.6,45.6,73c-5.2,17.4-14.3,34.5-25.1,49.1c-22.5,30.3-45.8,60.4-71.8,87.7
				c-27,28.4-57.3,53.6-86.6,79.7c-35.6,31.7-71.8,62.8-107.6,94.2c-2.8,2.5-4.5,6.1-7.2,8.8c-10.4,10.9-20.9,21.7-31.4,32.6
				c-1.9,0-3.8,0-5.7,0c-2.9-6.2-4.2-14.1-8.8-18.4c-38.9-36.5-78.4-72.3-117.8-108.3C86.4,541,51.5,509.3,31.4,466
				c-9.4-20.1-14.1-42.5-20.9-63.8C10.5,400.3,10.5,398.4,10.5,396.5z"/>
		</g>
	</g>
</g>
</svg>
