<?xml version="1.0" encoding="utf-8"?>
<svg version="1.1" xmlns="http://www.w3.org/2000/svg" xmlns:xlink="http://www.w3.org/1999/xlink" x="0px" y="0px"
	 viewBox="0 0 176 55" enable-background="new 0 0 176 55" xml:space="preserve">
<g>
	<g>
		<path fill-rule="evenodd" clip-rule="evenodd" fill="#3C3C3B" d="M44.4,8.9c-0.2-0.4-0.9-0.6-1.2-0.3C42.8,9,42.4,9.5,42,9.9
			c-0.9,0.9-1.7,1.9-2.6,2.7c-1,1-2.1,1.9-3.2,2.9c-0.9,0.8-1.7,1.7-2.6,2.5c-1.7,1.5-3.4,3.1-5,4.6c-1.4,1.3-2.7,2.8-4.1,4.1
			c-1,1-1.9,1.9-2.9,2.8c-0.3,0.3-1.1,0.3-1.5,0.1c0.3-1.3,0.5-2.6,0.8-3.8c0-0.1,0.1-0.2,0.1-0.2c0.4-0.4,0.8-0.8,1.2-1.2
			c1.2-1.2,2.4-2.3,3.6-3.5c0.9-0.8,1.7-1.7,2.5-2.6c1.3-1.3,2.5-2.6,3.8-4c1.2-1.2,2.3-2.4,3.5-3.7c0.9-1.1,1.8-2.2,2.7-3.3
			c0.2-0.2,0.3-0.5,0-0.6c-0.3-0.1-0.5-0.7-0.9-0.2C37,7.4,36.6,8,36.1,8.5c-1.9,2.1-3.9,4.2-5.8,6.2c-1.6,1.7-3.2,3.4-4.9,5
			c-1.9,1.8-3.7,3.7-5.7,5.4c-0.5,0.4-0.6,0.8-0.5,1.4c0,0.6,0.1,1.3-0.2,1.8c-0.6,1.6-1.3,3.1-2,4.6c-0.1,0.3-0.5,0.6-0.7,0.8
			c0,0,0,0.1,0,0.1c0.1,0.3,0.2,0.6,0.3,0.9c0.1,0.4,0.3,0.6,0.7,0.4c0.6-0.3,1.1-0.7,1.8-0.8c1.6-0.5,3.2-0.9,4.8-1.4
			c0.7-0.2,1.6-0.3,2-1.1c0.2-0.3,0.3-0.7,0.5-1c0.8-1,1.5-1.9,2.3-2.8c1.5-1.6,3-3.1,4.5-4.6c2.2-2.1,4.3-4.3,6.5-6.4
			c1.8-1.8,3.6-3.6,4.7-6c0.2-0.3,0.2-0.8,0.2-1.2C44.7,9.5,44.5,9.2,44.4,8.9z"/>
		<path fill-rule="evenodd" clip-rule="evenodd" fill="#3C3C3B" d="M49.6,6.5c-0.5-0.6-1-1.3-1.5-1.8c-0.7-0.8-1.4-1.5-2.1-2.3
			c-0.8-0.8-1.5-1.6-2.3-2.3c-0.1,0-0.1,0-0.2,0c-0.1,0.3-0.2,0.6-0.4,0.9c-0.3,0.5-0.2,1.3-1.1,1.3c0,0-0.1,0.1-0.1,0.1
			c-0.4,0.8-0.9,1.6-1.2,2.4c-0.1,0.2,0.1,0.5,0.2,0.7c0.6,0.6,1.3,1.1,2,1.6c1,0.8,1.9,1.7,2.9,2.5c0.1,0.1,0.5,0,0.7-0.1
			c0.1-0.1,0.2-0.3,0.4-0.4c0.5-0.5,0.5-0.5,0.9,0c0.1,0,0.2,0,0.2-0.1c0.6-0.6,1.1-1.2,1.6-1.9C49.7,7,49.7,6.6,49.6,6.5z"/>
	</g>
	<g>
		<g>
			<g>
				<path fill-rule="evenodd" clip-rule="evenodd" fill="#3C3C3B" d="M89.5,32.2c1.9-3.2,4.7-5.6,7.5-7.9c1.6-1.3,3.3-2.5,4.9-3.7
					c0.9-0.7,1.7-1.4,2.6-2.1c-1.4-1.2-2.7-2.3-4.1-3.4c-1.4-1.2-2.8-2.3-4.2-3.5c-1.3-1.1-2.5-2.2-3.7-3.3
					c-0.6-0.5-0.6-0.9,0.1-1.3c0.9-0.6,1.9-1.2,2.8-1.9c0.5-0.4,1-0.3,1.4,0.2c1.5,2,3.4,3.7,5.4,5.2c3.1,2.4,6.3,4.7,9.5,7.1
					c1,0.7,1.1,0.9,0.2,1.7c-0.7,0.7-1.4,1.6-2.3,1.9c-1,0.4-1.7,0.9-2.5,1.5c-1.1,0.8-2.2,1.5-3.3,2.4c-1.8,1.4-3.6,2.8-5.3,4.2
					c-1.4,1.2-2.7,2.4-4.1,3.6c-1.2,1.1-2.5,0.7-3.8,0.3c-0.3-0.1-0.6-0.4-1-0.6C89.5,32.4,89.5,32.3,89.5,32.2z"/>
			</g>
		</g>
	</g>
	<g>
		<g>
			<g>
				<path fill="#3C3C3B" d="M70.9,20.2c0.2-0.4,0.2-0.7,0.4-0.9c2.1-2,4.3-3.9,6.3-5.9c2.2-2.2,4.4-4.4,6.6-6.6
					c0.3-0.3,0.3-0.5,0-0.8c-0.6-0.5-1.1-1-1.7-1.5c-1.2-0.8-1.7-0.7-2.5,0.4c-0.7,0.9-1.4,1.7-2.2,2.5c-2.2,2.1-4.5,4.1-6.7,6.1
					c-1.5,1.3-2.9,2.7-4.4,4c-0.7,0.6-1.3,1.2-1.9,1.9c-0.2,0.2-0.4,0.7-0.2,1c0.3,0.4,0.8,0.8,1.2,1.1c0.9,0.7,1.9,1.3,2.8,1.9
					c2.4,1.6,4.7,3.3,7.1,4.9c2.4,1.7,4.8,3.4,7.2,5.1c0.3,0.2,0.7,0.7,1,0.7c0.3,0,0.7-0.6,1-0.6c0.8-0.1,0.8-0.7,0.8-1.1
					c0-0.4,0-0.9-0.2-1.1c-0.4-0.5-1-0.9-1.6-1.3c-3.6-2.5-7.1-5-10.7-7.5c-0.9-0.6-1.6-1.4-2.6-2c-0.1,0-0.1-0.2-0.1-0.3
					C70.7,20.2,70.9,20.2,70.9,20.2z"/>
				<path fill-rule="evenodd" clip-rule="evenodd" fill="#3C3C3B" d="M70.9,20.2c0,0-0.2,0.1-0.5,0.1c0,0.1,0,0.3,0.1,0.3
					c1,0.5,1.7,1.3,2.6,2c3.6,2.5,7.1,5,10.7,7.5c0.6,0.4,1.2,0.8,1.6,1.3c0.2,0.3,0.2,0.8,0.2,1.1c0,0.5,0,1-0.8,1.1
					c-0.4,0.1-0.7,0.6-1,0.6c-0.3,0-0.7-0.4-1-0.7c-2.4-1.7-4.8-3.4-7.2-5.1c-2.3-1.6-4.7-3.3-7.1-4.9c-0.9-0.6-1.9-1.3-2.8-1.9
					c-0.4-0.3-0.9-0.6-1.2-1.1c-0.1-0.2,0-0.7,0.2-1c0.6-0.7,1.2-1.3,1.9-1.9c1.4-1.3,2.9-2.7,4.4-4c2.2-2,4.5-4,6.7-6.1
					c0.8-0.8,1.5-1.6,2.2-2.5c0.8-1.1,1.4-1.2,2.5-0.4c0.6,0.4,1.2,1,1.7,1.5c0.3,0.3,0.3,0.5,0,0.8c-2.2,2.2-4.3,4.4-6.6,6.6
					c-2.1,2-4.2,3.9-6.3,5.9C71.1,19.5,71.1,19.8,70.9,20.2z"/>
			</g>
		</g>
	</g>
	<g>
		<g>
			<g>
				<path fill-rule="evenodd" clip-rule="evenodd" fill="#3C3C3B" d="M131.1,13.4c0.4-1.6,0.8-3.1,1-4.7c0.3-1.8,1.5-2.9,3.1-3.5
					c3.5-1.3,7.1-1.8,10.7-0.6c1.7,0.6,3.2,1.8,4.8,2.8c0.9,0.5,0.9,1.3,0.4,2c-0.6,0.8-1.1,1.7-1.7,2.4c-1.6-0.8-3.1-1.7-4.7-2.4
					c-2.5-1.1-5.1-1-7.7-0.5c-0.5,0.1-1,0.2-1.5,0.4c-1.5,0.5-1.8,1-1.2,2.5c0.8,1.9,1.9,3.6,3.3,5c1.7,1.7,3.5,3.2,5.2,4.8
					c2.1,2,4.2,4,6.2,6.1c0.1,0.1,0.3,0.3,0.5,0.5c1.1-1.1,2.1-2.2,3.2-3.3c3.1-2.8,6.2-5.5,9.3-8.2c1.4-1.2,2.7-2.5,4-3.8
					c0.5-0.5,0.5-1.1-0.1-1.6c-1.6-1.6-3.6-1.9-5.7-1.7c-2.7,0.2-5.1,1.3-7.6,2.3c-0.3,0.1-0.7,0.1-1.1,0.2c0-0.3-0.2-0.7-0.1-1
					c0.2-0.9,0.4-1.8,0.7-2.7c0.4-1,1.2-1.7,2.3-2c1.9-0.6,3.7-1.5,5.5-2c2.4-0.6,4.8-0.6,7,0.5c1.8,0.9,3.8,2.8,3.1,5
					c-0.4,1.2-1,2.4-1.7,3.4c-1.5,2.1-3.1,4.1-4.9,6c-1.8,1.9-3.9,3.7-5.9,5.5c-2.4,2.2-4.9,4.3-7.4,6.4c-0.2,0.2-0.3,0.4-0.5,0.6
					c-0.7,0.7-1.4,1.5-2.1,2.2c-0.1,0-0.3,0-0.4,0c-0.2-0.4-0.3-1-0.6-1.3c-2.7-2.5-5.4-4.9-8.1-7.4c-2.4-2.2-4.7-4.3-6.1-7.3
					c-0.6-1.4-1-2.9-1.4-4.4C131.1,13.6,131.1,13.5,131.1,13.4z"/>
			</g>
		</g>
	</g>
	<g>
		<path fill="#3C3C3B" d="M8.4,49.5c0,3.3-1.7,5-4.8,5H0V44.5h3.6C6.8,44.5,8.4,46.2,8.4,49.5z M5.8,49.5c0-1.8-0.6-2.9-2.2-2.9h-1
			v5.8h1C5.2,52.4,5.8,51.4,5.8,49.5z"/>
		<path fill="#3C3C3B" d="M13.1,46.6v1.9H17v2.1h-3.8v1.8h4.4v2.1h-7V44.5h7v2.1H13.1z"/>
		<path fill="#3C3C3B" d="M25.8,45.1v2.3c-0.8-0.5-1.6-0.7-2.3-0.7c-0.6,0-1.5,0.2-1.5,0.8c0,1.3,4.6,0.2,4.6,4.2c0,1.8-1.7,3-3.6,3
			c-1.4,0-2.6-0.4-3.5-1v-2.4c1,0.8,2,1.2,3.1,1.2c0.7,0,1.4-0.3,1.4-0.8c0-1.4-4.6-0.3-4.6-4.1c0-2.2,1.8-3.1,3.7-3.1
			C24,44.4,25,44.7,25.8,45.1z"/>
		<path fill="#3C3C3B" d="M28.8,54.6V44.5h2.6v10.1H28.8z"/>
		<path fill="#3C3C3B" d="M42,48.6v5.1c-1,0.6-2.3,1-3.8,1c-2.2,0-4.7-0.9-4.7-5.1c0-4.3,2.6-5.2,4.7-5.2c1.2,0,2.4,0.3,3.5,0.8v2.1
			c-1.1-0.5-2.1-0.6-3.1-0.6c-1.3,0-2.5,0.5-2.5,2.9c0,2.4,1.2,2.9,2.5,2.9c0.4,0,0.9,0,1.4-0.2v-1.7h-1.8v-1.9H42z"/>
		<path fill="#3C3C3B" d="M53.8,44.5v10.1h-2.6l-4.1-6v6h-2.6V44.5h2.6l4.1,6v-6H53.8z"/>
	</g>
	<g>
		<path fill="#3C3C3B" d="M72,49.5c0,2.4,1.1,2.9,2.3,2.9c1,0,2-0.2,3.1-0.7V54c-1.1,0.4-2.2,0.7-3.2,0.7c-2.2,0-4.7-0.9-4.7-5.2
			c0-4.3,2.6-5.2,4.7-5.2c1.1,0,2.2,0.3,3.2,0.7v2.3c-1.1-0.5-2-0.7-3.1-0.7C73.1,46.6,72,47.1,72,49.5z"/>
		<path fill="#3C3C3B" d="M88.4,49.5c0,4.2-2.6,5.1-4.7,5.1s-4.7-0.9-4.7-5.1c0-4.2,2.6-5.1,4.7-5.1S88.4,45.3,88.4,49.5z
			 M85.8,49.5c0-2.4-1-2.9-2.1-2.9c-1.1,0-2.1,0.5-2.1,2.9s1,2.9,2.1,2.9C84.7,52.4,85.8,51.9,85.8,49.5z"/>
		<path fill="#3C3C3B" d="M98.9,49.5c0,3.3-1.7,5-4.8,5h-3.6V44.5h3.6C97.3,44.5,98.9,46.2,98.9,49.5z M96.3,49.5
			c0-1.8-0.6-2.9-2.2-2.9h-1v5.8h1C95.7,52.4,96.3,51.4,96.3,49.5z"/>
		<path fill="#3C3C3B" d="M103.6,46.6v1.9h3.8v2.1h-3.8v1.8h4.4v2.1h-7V44.5h7v2.1H103.6z"/>
	</g>
	<g>
		<path fill="#3C3C3B" d="M133.3,45.1v2.3c-0.8-0.5-1.6-0.7-2.3-0.7c-0.6,0-1.5,0.2-1.5,0.8c0,1.3,4.6,0.2,4.6,4.2
			c0,1.8-1.7,3-3.6,3c-1.4,0-2.6-0.4-3.5-1v-2.4c1,0.8,2,1.2,3.1,1.2c0.7,0,1.4-0.3,1.4-0.8c0-1.4-4.6-0.3-4.6-4.1
			c0-2.2,1.8-3.1,3.7-3.1C131.6,44.4,132.6,44.7,133.3,45.1z"/>
		<path fill="#3C3C3B" d="M144.7,44.5v10.1h-2.6v-4h-3.2v4h-2.6V44.5h2.6v4h3.2v-4H144.7z"/>
		<path fill="#3C3C3B" d="M156.9,54.6h-2.8l-0.8-2.4H150l-0.8,2.4h-2.8l4-10.1h2.4L156.9,54.6z M152.7,50.2l-1-3.1l-1,3.1H152.7z"/>
		<path fill="#3C3C3B" d="M166.9,54.6H164l-1.9-3.4H161v3.4h-2.6V44.5h4c2.4,0,4.1,1.1,4.1,3.3c0,1.7-0.9,2.7-2,3L166.9,54.6z
			 M162.6,49.3c0.7,0,1.3-0.5,1.3-1.3c0-0.8-0.6-1.3-1.3-1.3H161v2.6H162.6z"/>
		<path fill="#3C3C3B" d="M171.4,46.6v1.9h3.8v2.1h-3.8v1.8h4.4v2.1h-7V44.5h7v2.1H171.4z"/>
	</g>
</g>
</svg>
