<?xml version="1.0" encoding="utf-8"?>
<svg version="1.1" id="Calque_1" xmlns="http://www.w3.org/2000/svg" xmlns:xlink="http://www.w3.org/1999/xlink" x="0px" y="0px"
	 viewBox="0 0 178 58" enable-background="new 0 0 178 58" xml:space="preserve">
<g>
	<g>
		<path fill-rule="evenodd" clip-rule="evenodd" fill="#3C3C3B" d="M45.7,8.9c-0.2-0.4-0.9-0.6-1.2-0.3c-0.4,0.4-0.8,0.9-1.2,1.3
			c-0.9,0.9-1.7,1.9-2.6,2.7c-1,1-2.1,1.9-3.2,2.9c-0.9,0.8-1.7,1.7-2.6,2.5c-1.7,1.5-3.4,3.1-5,4.6c-1.4,1.3-2.7,2.8-4.1,4.1
			c-1,1-1.9,1.9-2.9,2.8c-0.3,0.3-1.1,0.3-1.5,0.1c0.3-1.3,0.5-2.6,0.8-3.8c0-0.1,0.1-0.2,0.1-0.2c0.4-0.4,0.8-0.8,1.2-1.2
			c1.2-1.2,2.4-2.3,3.6-3.5c0.9-0.8,1.7-1.7,2.5-2.6c1.3-1.3,2.5-2.6,3.8-4c1.2-1.2,2.3-2.4,3.5-3.7c0.9-1.1,1.8-2.2,2.7-3.3
			c0.2-0.2,0.3-0.5,0-0.6c-0.3-0.1-0.5-0.7-0.9-0.2c-0.4,0.6-0.8,1.2-1.3,1.7c-1.9,2.1-3.9,4.2-5.8,6.2c-1.6,1.7-3.2,3.4-4.9,5
			c-1.9,1.8-3.7,3.7-5.7,5.4c-0.5,0.4-0.6,0.8-0.5,1.4c0,0.6,0.1,1.3-0.2,1.8c-0.6,1.6-1.3,3.1-2,4.6c-0.1,0.3-0.5,0.6-0.7,0.8
			c0,0,0,0.1,0,0.1c0.1,0.3,0.2,0.6,0.3,0.9c0.1,0.4,0.3,0.6,0.7,0.4c0.6-0.3,1.1-0.7,1.8-0.8c1.6-0.5,3.2-0.9,4.8-1.4
			c0.7-0.2,1.6-0.3,2-1.1c0.2-0.3,0.3-0.7,0.5-1c0.8-1,1.5-1.9,2.3-2.8c1.5-1.6,3-3.1,4.5-4.6c2.2-2.1,4.3-4.3,6.5-6.4
			c1.8-1.8,3.6-3.6,4.7-6c0.2-0.3,0.2-0.8,0.2-1.2C46,9.5,45.8,9.2,45.7,8.9z"/>
		<path fill-rule="evenodd" clip-rule="evenodd" fill="#3C3C3B" d="M50.9,6.5c-0.5-0.6-1-1.3-1.5-1.8c-0.7-0.8-1.4-1.5-2.1-2.3
			C46.5,1.6,45.8,0.8,45,0c-0.1,0-0.1,0-0.2,0c-0.1,0.3-0.2,0.6-0.4,0.9c-0.3,0.5-0.2,1.3-1.1,1.3c0,0-0.1,0.1-0.1,0.1
			c-0.4,0.8-0.9,1.6-1.2,2.4c-0.1,0.2,0.1,0.5,0.2,0.7c0.6,0.6,1.3,1.1,2,1.6c1,0.8,1.9,1.7,2.9,2.5c0.1,0.1,0.5,0,0.7-0.1
			C47.9,9.4,48,9.1,48.1,9c0.5-0.5,0.5-0.5,0.9,0c0.1,0,0.2,0,0.2-0.1c0.6-0.6,1.1-1.2,1.6-1.9C51,7,51,6.6,50.9,6.5z"/>
	</g>
	<g>
		<g>
			<g>
				<path fill-rule="evenodd" clip-rule="evenodd" fill="#3C3C3B" d="M90.8,32.2c1.9-3.2,4.7-5.6,7.5-7.9c1.6-1.3,3.3-2.5,4.9-3.7
					c0.9-0.7,1.7-1.4,2.6-2.1c-1.4-1.2-2.7-2.3-4.1-3.4c-1.4-1.2-2.8-2.3-4.2-3.5c-1.3-1.1-2.5-2.2-3.7-3.3
					c-0.6-0.5-0.6-0.9,0.1-1.3c0.9-0.6,1.9-1.2,2.8-1.9c0.5-0.4,1-0.3,1.4,0.2c1.5,2,3.4,3.7,5.4,5.2c3.1,2.4,6.3,4.7,9.5,7.1
					c1,0.7,1.1,0.9,0.2,1.7c-0.7,0.7-1.4,1.6-2.3,1.9c-1,0.4-1.7,0.9-2.5,1.5c-1.1,0.8-2.2,1.5-3.3,2.4c-1.8,1.4-3.6,2.8-5.3,4.2
					c-1.4,1.2-2.7,2.4-4.1,3.6c-1.2,1.1-2.5,0.7-3.8,0.3c-0.3-0.1-0.6-0.4-1-0.6C90.8,32.4,90.8,32.3,90.8,32.2z"/>
			</g>
		</g>
	</g>
	<g>
		<g>
			<g>
				<path fill="#3C3C3B" d="M72.2,20.2c0.2-0.4,0.2-0.7,0.4-0.9c2.1-2,4.3-3.9,6.3-5.9c2.2-2.2,4.4-4.4,6.6-6.6
					c0.3-0.3,0.3-0.5,0-0.8c-0.6-0.5-1.1-1-1.7-1.5C82.6,3.8,82,3.9,81.2,5c-0.7,0.9-1.4,1.7-2.2,2.5c-2.2,2.1-4.5,4.1-6.7,6.1
					c-1.5,1.3-2.9,2.7-4.4,4c-0.7,0.6-1.3,1.2-1.9,1.9c-0.2,0.2-0.4,0.7-0.2,1c0.3,0.4,0.8,0.8,1.2,1.1c0.9,0.7,1.9,1.3,2.8,1.9
					c2.4,1.6,4.7,3.3,7.1,4.9c2.4,1.7,4.8,3.4,7.2,5.1c0.3,0.2,0.7,0.7,1,0.7c0.3,0,0.7-0.6,1-0.6c0.8-0.1,0.8-0.7,0.8-1.1
					c0-0.4,0-0.9-0.2-1.1c-0.4-0.5-1-0.9-1.6-1.3c-3.6-2.5-7.1-5-10.7-7.5c-0.9-0.6-1.6-1.4-2.6-2c-0.1,0-0.1-0.2-0.1-0.3
					C72,20.2,72.2,20.2,72.2,20.2z"/>
				<path fill-rule="evenodd" clip-rule="evenodd" fill="#3C3C3B" d="M72.2,20.2c0,0-0.2,0.1-0.5,0.1c0,0.1,0,0.3,0.1,0.3
					c1,0.5,1.7,1.3,2.6,2c3.6,2.5,7.1,5,10.7,7.5c0.6,0.4,1.2,0.8,1.6,1.3C87,31.5,87,32,87,32.4c0,0.5,0,1-0.8,1.1
					c-0.4,0.1-0.7,0.6-1,0.6c-0.3,0-0.7-0.4-1-0.7c-2.4-1.7-4.8-3.4-7.2-5.1c-2.3-1.6-4.7-3.3-7.1-4.9c-0.9-0.6-1.9-1.3-2.8-1.9
					c-0.4-0.3-0.9-0.6-1.2-1.1c-0.1-0.2,0-0.7,0.2-1c0.6-0.7,1.2-1.3,1.9-1.9c1.4-1.3,2.9-2.7,4.4-4c2.2-2,4.5-4,6.7-6.1
					c0.8-0.8,1.5-1.6,2.2-2.5c0.8-1.1,1.4-1.2,2.5-0.4c0.6,0.4,1.2,1,1.7,1.5c0.3,0.3,0.3,0.5,0,0.8c-2.2,2.2-4.3,4.4-6.6,6.6
					c-2.1,2-4.2,3.9-6.3,5.9C72.4,19.5,72.4,19.8,72.2,20.2z"/>
			</g>
		</g>
	</g>
	<g>
		<g>
			<g>
				<path fill-rule="evenodd" clip-rule="evenodd" fill="#3C3C3B" d="M132.4,13.4c0.4-1.6,0.8-3.1,1-4.7c0.3-1.8,1.5-2.9,3.1-3.5
					c3.5-1.3,7.1-1.8,10.7-0.6c1.7,0.6,3.2,1.8,4.8,2.8c0.9,0.5,0.9,1.3,0.4,2c-0.6,0.8-1.1,1.7-1.7,2.4c-1.6-0.8-3.1-1.7-4.7-2.4
					c-2.5-1.1-5.1-1-7.7-0.5c-0.5,0.1-1,0.2-1.5,0.4c-1.5,0.5-1.8,1-1.2,2.5c0.8,1.9,1.9,3.6,3.3,5c1.7,1.7,3.5,3.2,5.2,4.8
					c2.1,2,4.2,4,6.2,6.1c0.1,0.1,0.3,0.3,0.5,0.5c1.1-1.1,2.1-2.2,3.2-3.3c3.1-2.8,6.2-5.5,9.3-8.2c1.4-1.2,2.7-2.5,4-3.8
					c0.5-0.5,0.5-1.1-0.1-1.6c-1.6-1.6-3.6-1.9-5.7-1.7c-2.7,0.2-5.1,1.3-7.6,2.3c-0.3,0.1-0.7,0.1-1.1,0.2c0-0.3-0.2-0.7-0.1-1
					c0.2-0.9,0.4-1.8,0.7-2.7c0.4-1,1.2-1.7,2.3-2c1.9-0.6,3.7-1.5,5.5-2c2.4-0.6,4.8-0.6,7,0.5c1.8,0.9,3.8,2.8,3.1,5
					c-0.4,1.2-1,2.4-1.7,3.4c-1.5,2.1-3.1,4.1-4.9,6c-1.8,1.9-3.9,3.7-5.9,5.5c-2.4,2.2-4.9,4.3-7.4,6.4c-0.2,0.2-0.3,0.4-0.5,0.6
					c-0.7,0.7-1.4,1.5-2.1,2.2c-0.1,0-0.3,0-0.4,0c-0.2-0.4-0.3-1-0.6-1.3c-2.7-2.5-5.4-4.9-8.1-7.4c-2.4-2.2-4.7-4.3-6.1-7.3
					c-0.6-1.4-1-2.9-1.4-4.4C132.4,13.6,132.4,13.5,132.4,13.4z"/>
			</g>
		</g>
	</g>
	<text transform="matrix(1 0 0 1 2.441406e-04 54.5743)" fill="#3C3C3B" font-family="'MavenProBlack'" font-size="15.127">DESIGN</text>
	<text transform="matrix(1 0 0 1 69.8049 54.5743)" fill="#3C3C3B" font-family="'MavenProBlack'" font-size="15.127">CODE</text>
	<text transform="matrix(1 0 0 1 127.2688 54.5743)" fill="#3C3C3B" font-family="'MavenProBlack'" font-size="15.127">SHARE</text>
</g>
</svg>
