<?xml version="1.0" encoding="utf-8"?>
<!-- Generator: Adobe Illustrator 19.0.1, SVG Export Plug-In . SVG Version: 6.00 Build 0)  -->
<svg version="1.1" id="Laag_1" xmlns="http://www.w3.org/2000/svg" xmlns:xlink="http://www.w3.org/1999/xlink" x="0px" y="0px"
	 viewBox="-866 675.1 265.5 651.9" style="enable-background:new -866 675.1 265.5 651.9;" xml:space="preserve">
<style type="text/css">
	.st0{fill:#3B445B;}
	.st1{fill:#CFE2DD;}
	.st2{fill:#AABCB7;}
	.st3{fill:#2B313F;}
	.st4{fill:#FFFFFF;}
	.st5{fill:none;stroke:#FFFFFF;stroke-width:2;stroke-miterlimit:10;}
</style>
<rect x="-718.2" y="675.1" class="st0" width="3.1" height="62.6"/>
<rect x="-862.4" y="1096.2" class="st1" width="258.3" height="230.8"/>
<rect x="-812.1" y="1096.2" class="st2" width="190.8" height="230.8"/>
<rect x="-854.8" y="1053.5" class="st3" width="244.6" height="43.4"/>
<rect x="-819.6" y="1096.2" class="st0" width="211.1" height="79.7"/>
<rect x="-767.2" y="758.7" class="st1" width="101.1" height="568.3"/>
<rect x="-748" y="735.7" class="st1" width="62.7" height="23"/>
<rect x="-833" y="1118.4" class="st1" width="20.9" height="208.6"/>
<polygon class="st0" points="-808.5,1119.4 -832.9,1119.4 -832.9,1119.7 -820.7,1063.3 -808.5,1119.7 "/>
<rect x="-862.4" y="1039" class="st1" width="17.2" height="287.9"/>
<rect x="-767.2" y="729.2" class="st1" width="17.2" height="32"/>
<rect x="-683.7" y="729.2" class="st1" width="17.6" height="31.8"/>
<rect x="-621.3" y="1053.5" class="st1" width="17.2" height="128.4"/>
<path class="st4" d="M-701.5,1257.2l-10.9-5.7l-10.9,5.7c-16.8,8.8-27.4,26.2-27.4,45.2v24.6h76.7v-24.6
	C-674.1,1283.4-684.6,1266-701.5,1257.2z"/>
<path class="st2" d="M-701.5,1160l-10.9-5.7l-10.9,5.7c-16.8,8.8-27.4,26.2-27.4,45.2v24.6h76.7v-24.6
	C-674.1,1186.2-684.6,1168.7-701.5,1160z"/>
<path class="st1" d="M-791.1,1188l-3.7,1.9c-5.3,2.8-8.7,8.4-8.7,14.4v83.4h24.7v-83.4c0-6-3.3-11.6-8.7-14.4L-791.1,1188z"/>
<path class="st2" d="M-735.7,1025l-3.7,1.9c-5.3,2.8-8.7,8.4-8.7,14.4v83.4h24.7v-83.4c0-6-3.3-11.6-8.7-14.4L-735.7,1025z"/>
<path class="st2" d="M-699.4,1025l-3.7,1.9c-5.3,2.8-8.7,8.4-8.7,14.4v83.4h24.7v-83.4c0-6-3.3-11.6-8.7-14.4L-699.4,1025z"/>
<path class="st2" d="M-739.3,899.3L-739.3,899.3c-5.3,2.8-8.7,8.4-8.7,14.4v83.4h24.7v-83.4c0-6-3.3-11.6-8.7-14.4l0,0
	C-734.3,898-737,898-739.3,899.3z"/>
<path class="st2" d="M-701.3,899.3L-701.3,899.3c-5.3,2.8-8.7,8.4-8.7,14.4v83.4h24.7v-83.4c0-6-3.3-11.6-8.7-14.4l0,0
	C-696.3,898-699,898-701.3,899.3z"/>
<path class="st2" d="M-720.3,775.3L-720.3,775.3c-5.3,2.8-8.7,8.4-8.7,14.4v83.4h24.7v-83.4c0-6-3.3-11.6-8.7-14.4l0,0
	C-715.3,774.1-718,774.1-720.3,775.3z"/>
<path class="st2" d="M-720.3,746.1L-720.3,746.1c-5.3,2.8-8.7,8.4-8.7,14.4v0.6h24.7v-0.7c0-6-3.3-11.6-8.7-14.4l0,0
	C-715.3,744.9-718,744.9-720.3,746.1z"/>
<path class="st1" d="M-643.7,1188l-3.7,1.9c-5.3,2.8-8.7,8.4-8.7,14.4v83.4h24.7v-83.4c0-6-3.3-11.6-8.7-14.4L-643.7,1188z"/>
<polygon class="st0" points="-600.5,1119.4 -624.9,1119.4 -624.9,1119.7 -612.7,1063.3 -600.5,1119.7 "/>
<rect x="-767.2" y="1007.3" class="st4" width="101.1" height="3.1"/>
<rect x="-767.2" y="881.1" class="st4" width="101.1" height="3.1"/>
<rect x="-750" y="758" class="st4" width="66.3" height="3.1"/>
<rect x="-767.2" y="1139.4" class="st4" width="101.1" height="3.1"/>
<polygon class="st0" points="-841.5,1053.9 -866,1053.9 -866,1054.1 -853.8,997.7 -841.5,1054.1 "/>
<polygon class="st0" points="-746.4,731.5 -770.8,731.5 -770.8,731.8 -758.6,675.3 -746.4,731.8 "/>
<polygon class="st0" points="-661.8,731.5 -686.3,731.5 -686.3,731.8 -674.1,675.3 -661.8,731.8 "/>
<polyline class="st5" points="-738.6,758.6 -738.6,758.7 -716.6,737.8 -694.7,758.7 -694.7,758.6 "/>
<polygon class="st0" points="-600.5,1053.9 -624.9,1053.9 -624.9,1054.1 -612.7,997.7 -600.5,1054.1 "/>
</svg>
