<!-- Generator: Adobe Illustrator 19.0.1, SVG Export Plug-In  -->
<svg version="1.1"
   xmlns="http://www.w3.org/2000/svg" xmlns:xlink="http://www.w3.org/1999/xlink" xmlns:a="http://ns.adobe.com/AdobeSVGViewerExtensions/3.0/"
   x="0px" y="0px" width="265.5px" height="651.9px" viewBox="0 0 265.5 651.9" style="enable-background:new 0 0 265.5 651.9;"
   xml:space="preserve">
<style type="text/css">
  .st0{fill:#3B445B;}
  .st1{fill:#CFE2DD;}
  .st2{fill:#AABCB7;}
  .st3{fill:#2B313F;}
  .st4{fill:#FFFFFF;}
  .st5{fill:none;stroke:#FFFFFF;stroke-width:2;stroke-miterlimit:10;}
</style>
<defs>
</defs>
<rect x="147.8" y="0" class="st0" width="3.1" height="62.6"/>
<rect x="3.6" y="421.1" class="st1" width="258.3" height="230.8"/>
<rect x="53.9" y="421.1" class="st2" width="190.8" height="230.8"/>
<rect x="3.6" y="378.4" class="st3" width="252.2" height="42.6"/>
<rect x="36.8" y="421.1" class="st0" width="225.1" height="79.7"/>
<rect x="98.8" y="83.6" class="st1" width="101.1" height="568.3"/>
<rect x="118" y="60.6" class="st1" width="62.7" height="23"/>
<rect x="36.7" y="443.3" class="st1" width="17.2" height="208.6"/>
<polygon class="st0" points="57.5,444.3 33.1,444.3 33.1,444.6 45.3,388.2 57.5,444.6 "/>
<polygon class="st0" points="265.5,378.2 241.1,378.2 241.1,378.4 253.3,322 265.5,378.4 "/>
<rect x="3.6" y="363.9" class="st1" width="17.2" height="287.9"/>
<rect x="98.8" y="54.1" class="st1" width="17.2" height="32"/>
<rect x="182.3" y="54.1" class="st1" width="17.6" height="31.8"/>
<rect x="244.7" y="378.4" class="st1" width="17.2" height="122.3"/>
<path class="st4" d="M164.5,582.1l-10.9-5.7l-10.9,5.7c-16.8,8.8-27.4,26.2-27.4,45.2v24.6h76.7v-24.6
  C191.9,608.3,181.4,590.9,164.5,582.1z"/>
<path class="st2" d="M164.5,484.9l-10.9-5.7l-10.9,5.7c-16.8,8.8-27.4,26.2-27.4,45.2v24.6h76.7v-24.6
  C191.9,511.1,181.4,493.6,164.5,484.9z"/>
<path class="st1" d="M74.9,512.9l-3.7,1.9c-5.3,2.8-8.7,8.4-8.7,14.4v83.4h24.7v-83.4c0-6-3.3-11.6-8.7-14.4L74.9,512.9z"/>
<path class="st2" d="M130.3,349.9l-3.7,1.9c-5.3,2.8-8.7,8.4-8.7,14.4v83.4h24.7v-83.4c0-6-3.3-11.6-8.7-14.4L130.3,349.9z"/>
<path class="st2" d="M166.6,349.9l-3.7,1.9c-5.3,2.8-8.7,8.4-8.7,14.4v83.4h24.7v-83.4c0-6-3.3-11.6-8.7-14.4L166.6,349.9z"/>
<path class="st2" d="M126.7,224.2L126.7,224.2c-5.3,2.8-8.7,8.4-8.7,14.4V322h24.7v-83.4c0-6-3.3-11.6-8.7-14.4h0
  C131.7,222.9,129,222.9,126.7,224.2z"/>
<path class="st2" d="M164.7,224.2L164.7,224.2c-5.3,2.8-8.7,8.4-8.7,14.4V322h24.7v-83.4c0-6-3.3-11.6-8.7-14.4h0
  C169.7,222.9,167,222.9,164.7,224.2z"/>
<path class="st2" d="M145.7,100.2L145.7,100.2c-5.3,2.8-8.7,8.4-8.7,14.4V198h24.7v-83.4c0-6-3.3-11.6-8.7-14.4v0
  C150.7,99,148,99,145.7,100.2z"/>
<path class="st2" d="M145.7,71L145.7,71c-5.3,2.8-8.7,8.4-8.7,14.4V86h24.7v-0.7c0-6-3.3-11.6-8.7-14.4l0,0
  C150.7,69.8,148,69.8,145.7,71z"/>
<path class="st1" d="M222.3,512.9l-3.7,1.9c-5.3,2.8-8.7,8.4-8.7,14.4v83.4h24.7v-83.4c0-6-3.3-11.6-8.7-14.4L222.3,512.9z"/>
<polygon class="st0" points="265.5,444.3 241.1,444.3 241.1,444.6 253.3,388.2 265.5,444.6 "/>
<rect x="98.8" y="332.2" class="st4" width="101.1" height="3.1"/>
<rect x="98.8" y="206" class="st4" width="101.1" height="3.1"/>
<rect x="116" y="82.9" class="st4" width="66.3" height="3.1"/>
<rect x="98.8" y="464.3" class="st4" width="101.1" height="3.1"/>
<polygon class="st0" points="24.5,378.2 0,378.2 0,378.4 12.2,322 24.5,378.4 "/>
<polygon class="st0" points="119.6,56.4 95.2,56.4 95.2,56.7 107.4,0.2 119.6,56.7 "/>
<polygon class="st0" points="204.2,56.4 179.7,56.4 179.7,56.7 191.9,0.2 204.2,56.7 "/>
<polyline class="st5" points="127.4,83.5 127.4,83.6 149.4,62.7 171.3,83.6 171.3,83.5 "/>
</svg>
