<!-- Generator: Adobe Illustrator 19.0.1, SVG Export Plug-In  -->
<svg version="1.1"
   xmlns="http://www.w3.org/2000/svg" xmlns:xlink="http://www.w3.org/1999/xlink" xmlns:a="http://ns.adobe.com/AdobeSVGViewerExtensions/3.0/"
   x="0px" y="0px" width="290.4px" height="311.3px" viewBox="0 0 290.4 311.3" style="enable-background:new 0 0 290.4 311.3;"
   xml:space="preserve">
<style type="text/css">
  .st0{fill:#3B445B;}
  .st1{fill:#CFE2DD;}
  .st2{fill:#FFFFFF;}
  .st3{fill:#73C8DD;}
</style>
<defs>
</defs>
<rect x="62.3" class="st0" width="1.9" height="41.8"/>
<rect x="62.3" y="41.8" class="st0" width="49.7" height="1.9"/>
<rect x="13.6" y="49.2" class="st0" width="49.7" height="1.9"/>
<rect x="13.6" y="89.1" class="st0" width="49.7" height="1.9"/>
<rect x="69.1" class="st0" width="1.9" height="41.8"/>
<rect x="75.9" class="st0" width="1.9" height="41.8"/>
<rect x="82.8" class="st0" width="1.9" height="41.8"/>
<rect x="89.6" class="st0" width="1.9" height="41.8"/>
<rect x="96.4" class="st0" width="1.9" height="41.8"/>
<rect x="103.2" class="st0" width="1.9" height="41.8"/>
<rect x="110.1" class="st0" width="1.9" height="41.8"/>
<rect x="230.4" class="st0" width="1.9" height="41.8"/>
<rect x="230.4" y="41.8" class="st0" width="49.7" height="1.9"/>
<rect x="237.2" class="st0" width="1.9" height="41.8"/>
<rect x="244" class="st0" width="1.9" height="41.8"/>
<rect x="250.8" class="st0" width="1.9" height="41.8"/>
<rect x="257.7" class="st0" width="1.9" height="41.8"/>
<rect x="264.5" class="st0" width="1.9" height="41.8"/>
<rect x="271.3" class="st0" width="1.9" height="41.8"/>
<rect x="278.1" class="st0" width="1.9" height="41.8"/>
<rect x="13.6" y="49.2" class="st0" width="1.9" height="41.8"/>
<rect x="20.4" y="49.2" class="st0" width="1.9" height="41.8"/>
<rect x="27.2" y="49.2" class="st0" width="1.9" height="41.8"/>
<rect x="34.1" y="49.2" class="st0" width="1.9" height="41.8"/>
<rect x="40.9" y="49.2" class="st0" width="1.9" height="41.8"/>
<rect x="47.7" y="49.2" class="st0" width="1.9" height="41.8"/>
<rect x="54.5" y="49.2" class="st0" width="1.9" height="41.8"/>
<rect x="17.5" y="95.9" class="st0" width="45.7" height="5.1"/>
<rect x="17.5" y="114.3" class="st0" width="45.7" height="5.1"/>
<rect x="17.5" y="132.7" class="st0" width="45.7" height="5.1"/>
<rect x="17.5" y="151.1" class="st0" width="45.7" height="5.1"/>
<rect x="17.5" y="169.4" class="st0" width="45.7" height="5.1"/>
<rect x="17.5" y="187.8" class="st0" width="45.7" height="5.1"/>
<rect x="17.5" y="206.2" class="st0" width="45.7" height="5.1"/>
<rect x="66.7" y="43.7" class="st0" width="45.7" height="5.1"/>
<rect x="66.7" y="62.1" class="st0" width="45.7" height="5.1"/>
<rect x="66.7" y="80.5" class="st0" width="45.7" height="5.1"/>
<rect x="61.3" y="49.2" class="st0" width="1.9" height="41.8"/>
<rect x="112" y="43.7" class="st0" width="23.7" height="168.3"/>
<rect x="62.1" y="43.7" class="st0" width="5" height="168.3"/>
<rect x="275.6" y="43.7" class="st0" width="5" height="168.3"/>
<rect x="13.6" y="91" class="st0" width="5" height="121"/>
<rect x="133.4" y="43.7" class="st1" width="23.7" height="168.3"/>
<rect x="159.3" y="43.7" class="st2" width="23.7" height="168.3"/>
<rect x="183.7" y="43.7" class="st1" width="23.7" height="168.3"/>
<rect x="206.6" y="43.7" class="st0" width="23.7" height="168.3"/>
<path class="st3" d="M5.2,211.9h285c0,0,6.6,94.1-69,99c-75.6,4.9-150.7-44.9-194-48S5.2,211.9,5.2,211.9z"/>
</svg>
