<!-- Generator: Adobe Illustrator 19.0.1, SVG Export Plug-In  -->
<svg version="1.1"
   xmlns="http://www.w3.org/2000/svg" xmlns:xlink="http://www.w3.org/1999/xlink" xmlns:a="http://ns.adobe.com/AdobeSVGViewerExtensions/3.0/"
   x="0px" y="0px" width="372.8px" height="83.8px" viewBox="0 0 372.8 83.8" style="enable-background:new 0 0 372.8 83.8;"
   xml:space="preserve">
<style type="text/css">
  .st0{fill:#E94D27;}
  .st1{fill:#B7361C;}
  .st2{fill:#CFE2DD;}
  .st3{fill:#AABCB7;}
</style>
<defs>
</defs>
<rect y="7.3" class="st0" width="142.8" height="29.6"/>
<rect x="31.6" y="7.3" class="st1" width="2.7" height="29"/>
<rect x="127.4" class="st0" width="200.9" height="44.2"/>
<circle class="st2" cx="356.9" cy="67.9" r="15.9"/>
<rect x="177.8" class="st1" width="2.9" height="44.2"/>
<rect x="183.6" class="st1" width="2.9" height="44.2"/>
<rect x="220.7" class="st1" width="2.9" height="44.2"/>
<rect x="279.1" class="st1" width="2.9" height="44.2"/>
<rect x="305.4" class="st1" width="2.9" height="44.2"/>
<rect x="300.5" class="st1" width="2.9" height="44.2"/>
<rect x="10.4" y="33.7" class="st2" width="26.1" height="48.2"/>
<rect x="127.4" y="33.7" class="st2" width="26.1" height="48.2"/>
<rect x="254.4" y="33.7" class="st2" width="26.1" height="48.2"/>
<rect x="10.4" y="33.7" class="st3" width="26.1" height="21"/>
<rect x="127.4" y="33.7" class="st3" width="26.1" height="21"/>
<rect x="254.4" y="33.7" class="st3" width="26.1" height="21"/>
<path class="st0" d="M315.5,22.1c0-12.2,4.1-22.1,12.9-22.1s12.9,9.9,12.9,22.1s-4.1,22.1-12.9,22.1S315.5,34.3,315.5,22.1z"/>
<path class="st1" d="M318.6,22.1c0-9.8,2.7-17.8,9.7-17.8c7,0,9.7,7.9,9.7,17.8s-2.7,17.8-9.7,17.8
  C321.3,39.8,318.6,31.9,318.6,22.1z"/>
</svg>
