<!-- Generator: Adobe Illustrator 19.0.1, SVG Export Plug-In  -->
<svg version="1.1"
   xmlns="http://www.w3.org/2000/svg" xmlns:xlink="http://www.w3.org/1999/xlink" xmlns:a="http://ns.adobe.com/AdobeSVGViewerExtensions/3.0/"
   x="0px" y="0px" width="2227.2px" height="351.4px" viewBox="0 0 2227.2 351.4" style="enable-background:new 0 0 2227.2 351.4;"
   xml:space="preserve">
<style type="text/css">
  .st0{fill:url(#SVGID_1_);}
  .st1{fill:url(#SVGID_2_);}
  .st2{fill:url(#SVGID_3_);}
  .st3{fill:url(#SVGID_4_);}
  .st4{fill:url(#SVGID_5_);}
  .st5{fill:url(#SVGID_6_);}
  .st6{fill:url(#SVGID_7_);}
  .st7{fill:url(#SVGID_8_);}
  .st8{fill:url(#SVGID_9_);}
  .st9{fill:url(#SVGID_10_);}
  .st10{fill:url(#SVGID_11_);}
  .st11{fill:url(#SVGID_12_);}
  .st12{fill:#FFE269;}
  .st13{fill:#444444;}
  .st14{fill:#E94D27;}
  .st15{fill:#8ACBBC;}
  .st16{fill:url(#SVGID_13_);}
  .st17{fill:url(#SVGID_14_);}
  .st18{fill:url(#SVGID_15_);}
  .st19{fill:url(#SVGID_16_);}
  .st20{fill:url(#SVGID_17_);}
  .st21{fill:url(#SVGID_18_);}
  .st22{fill:url(#SVGID_19_);}
  .st23{fill:url(#SVGID_20_);}
  .st24{fill:url(#SVGID_21_);}
  .st25{fill:url(#SVGID_22_);}
  .st26{fill:url(#SVGID_23_);}
  .st27{fill:url(#SVGID_24_);}
</style>
<defs>
</defs>
<linearGradient id="SVGID_1_" gradientUnits="userSpaceOnUse" x1="1672.4609" y1="2.4494" x2="1672.4609" y2="336.7334" gradientTransform="matrix(1 0 0 -1 0 353.8523)">
  <stop  offset="0" style="stop-color:#FFFFFF;stop-opacity:0"/>
  <stop  offset="1" style="stop-color:#FFFFFF;stop-opacity:0.4"/>
</linearGradient>
<path class="st0" d="M1505.3,351.4l334.4-0.5L1671.8,17.1L1505.3,351.4z"/>
<linearGradient id="SVGID_2_" gradientUnits="userSpaceOnUse" x1="1570.8174" y1="2.4494" x2="1570.8174" y2="336.7334" gradientTransform="matrix(1 0 0 -1 0 353.8523)">
  <stop  offset="0" style="stop-color:#FFFFFF;stop-opacity:0"/>
  <stop  offset="1" style="stop-color:#FFFFFF;stop-opacity:0.4"/>
</linearGradient>
<path class="st1" d="M1403.6,351.4l334.4-0.5L1570.2,17.1L1403.6,351.4z"/>
<linearGradient id="SVGID_3_" gradientUnits="userSpaceOnUse" x1="1469.1738" y1="2.4494" x2="1469.1738" y2="336.7334" gradientTransform="matrix(1 0 0 -1 0 353.8523)">
  <stop  offset="0" style="stop-color:#FFFFFF;stop-opacity:0"/>
  <stop  offset="1" style="stop-color:#FFFFFF;stop-opacity:0.4"/>
</linearGradient>
<path class="st2" d="M1302,351.4l334.4-0.5L1468.5,17.1L1302,351.4z"/>
<linearGradient id="SVGID_4_" gradientUnits="userSpaceOnUse" x1="1367.5304" y1="2.4494" x2="1367.5304" y2="336.7334" gradientTransform="matrix(1 0 0 -1 0 353.8523)">
  <stop  offset="0" style="stop-color:#FFFFFF;stop-opacity:0"/>
  <stop  offset="1" style="stop-color:#FFFFFF;stop-opacity:0.4"/>
</linearGradient>
<path class="st3" d="M1200.3,351.4l334.4-0.5L1366.9,17.1L1200.3,351.4z"/>
<linearGradient id="SVGID_5_" gradientUnits="userSpaceOnUse" x1="1265.8868" y1="2.4494" x2="1265.8868" y2="336.7334" gradientTransform="matrix(1 0 0 -1 0 353.8523)">
  <stop  offset="0" style="stop-color:#FFFFFF;stop-opacity:0"/>
  <stop  offset="1" style="stop-color:#FFFFFF;stop-opacity:0.4"/>
</linearGradient>
<path class="st4" d="M1098.7,351.4l334.4-0.5L1265.3,17.1L1098.7,351.4z"/>
<linearGradient id="SVGID_6_" gradientUnits="userSpaceOnUse" x1="1164.2433" y1="2.4494" x2="1164.2433" y2="336.7334" gradientTransform="matrix(1 0 0 -1 0 353.8523)">
  <stop  offset="0" style="stop-color:#FFFFFF;stop-opacity:0"/>
  <stop  offset="1" style="stop-color:#FFFFFF;stop-opacity:0.4"/>
</linearGradient>
<path class="st5" d="M997,351.4l334.4-0.5L1163.6,17.1L997,351.4z"/>
<linearGradient id="SVGID_7_" gradientUnits="userSpaceOnUse" x1="1062.5997" y1="2.4494" x2="1062.5997" y2="336.7334" gradientTransform="matrix(1 0 0 -1 0 353.8523)">
  <stop  offset="0" style="stop-color:#FFFFFF;stop-opacity:0"/>
  <stop  offset="1" style="stop-color:#FFFFFF;stop-opacity:0.4"/>
</linearGradient>
<path class="st6" d="M895.4,351.4l334.4-0.5L1062,17.1L895.4,351.4z"/>
<linearGradient id="SVGID_8_" gradientUnits="userSpaceOnUse" x1="960.9562" y1="2.4494" x2="960.9562" y2="336.7334" gradientTransform="matrix(1 0 0 -1 0 353.8523)">
  <stop  offset="0" style="stop-color:#FFFFFF;stop-opacity:0"/>
  <stop  offset="1" style="stop-color:#FFFFFF;stop-opacity:0.4"/>
</linearGradient>
<path class="st7" d="M793.8,351.4l334.4-0.5L960.3,17.1L793.8,351.4z"/>
<linearGradient id="SVGID_9_" gradientUnits="userSpaceOnUse" x1="859.3127" y1="2.4494" x2="859.3127" y2="336.7334" gradientTransform="matrix(1 0 0 -1 0 353.8523)">
  <stop  offset="0" style="stop-color:#FFFFFF;stop-opacity:0"/>
  <stop  offset="1" style="stop-color:#FFFFFF;stop-opacity:0.4"/>
</linearGradient>
<path class="st8" d="M692.1,351.4l334.4-0.5L858.7,17.1L692.1,351.4z"/>
<linearGradient id="SVGID_10_" gradientUnits="userSpaceOnUse" x1="757.6691" y1="2.4494" x2="757.6691" y2="336.7334" gradientTransform="matrix(1 0 0 -1 0 353.8523)">
  <stop  offset="0" style="stop-color:#FFFFFF;stop-opacity:0"/>
  <stop  offset="1" style="stop-color:#FFFFFF;stop-opacity:0.4"/>
</linearGradient>
<path class="st9" d="M590.5,351.4l334.4-0.5L757,17.1L590.5,351.4z"/>
<linearGradient id="SVGID_11_" gradientUnits="userSpaceOnUse" x1="656.0256" y1="2.4494" x2="656.0256" y2="336.7334" gradientTransform="matrix(1 0 0 -1 0 353.8523)">
  <stop  offset="0" style="stop-color:#FFFFFF;stop-opacity:0"/>
  <stop  offset="1" style="stop-color:#FFFFFF;stop-opacity:0.4"/>
</linearGradient>
<path class="st10" d="M488.8,351.4l334.4-0.5L655.4,17.1L488.8,351.4z"/>
<linearGradient id="SVGID_12_" gradientUnits="userSpaceOnUse" x1="554.382" y1="2.4494" x2="554.382" y2="336.7334" gradientTransform="matrix(1 0 0 -1 0 353.8523)">
  <stop  offset="0" style="stop-color:#FFFFFF;stop-opacity:0"/>
  <stop  offset="1" style="stop-color:#FFFFFF;stop-opacity:0.4"/>
</linearGradient>
<path class="st11" d="M387.2,351.4l334.4-0.5L553.7,17.1L387.2,351.4z"/>
<g>
  <g>
    <path class="st12" d="M560.6,13.6c-0.4-0.5-0.7-1-1-1.6c-0.8-2.1-2.8-3.6-5.2-3.6s-4.4,1.5-5.2,3.6c-0.2,0.6-0.5,1.1-0.9,1.6
      c-1.5,1.7-2.3,3.9-2.1,6.4c0.4,3.8,3.5,6.9,7.3,7.4c5,0.5,9.2-3.3,9.2-8.2C562.7,17,561.9,15.1,560.6,13.6z"/>
  </g>
  <g>
    <rect class="st13" width="2227.2" height="3.4"/>
  </g>
  <g>
    <path class="st13" d="M557.4,9.3h-6.1c-0.4,0-0.7-0.3-0.7-0.7V4c0-0.4,0.3-0.7,0.7-0.7h6.1c0.4,0,0.7,0.3,0.7,0.7v4.5
      C558.1,9,557.8,9.3,557.4,9.3z"/>
  </g>
  <g>
    <path class="st14" d="M662.2,13.6c-0.4-0.5-0.7-1-1-1.6c-0.8-2.1-2.8-3.6-5.2-3.6s-4.4,1.5-5.2,3.6c-0.2,0.6-0.5,1.1-0.9,1.6
      c-1.5,1.7-2.3,3.9-2.1,6.4c0.4,3.8,3.5,6.9,7.3,7.4c5,0.5,9.2-3.3,9.2-8.2C664.3,17,663.5,15.1,662.2,13.6z"/>
  </g>
  <g>
    <path class="st13" d="M659.1,9.3H653c-0.4,0-0.7-0.3-0.7-0.7V4c0-0.4,0.3-0.7,0.7-0.7h6.1c0.4,0,0.7,0.3,0.7,0.7v4.5
      C659.8,9,659.5,9.3,659.1,9.3z"/>
  </g>
  <g>
    <path class="st15" d="M763.8,13.6c-0.4-0.5-0.7-1-1-1.6c-0.8-2.1-2.8-3.6-5.2-3.6s-4.4,1.5-5.2,3.6c-0.2,0.6-0.5,1.1-0.9,1.6
      c-1.5,1.7-2.3,3.9-2.1,6.4c0.4,3.8,3.5,6.9,7.3,7.4c5,0.5,9.2-3.3,9.2-8.2C766,17,765.2,15.1,763.8,13.6z"/>
  </g>
  <g>
    <path class="st13" d="M760.7,9.3h-6.1c-0.4,0-0.7-0.3-0.7-0.7V4c0-0.4,0.3-0.7,0.7-0.7h6.1c0.4,0,0.7,0.3,0.7,0.7v4.5
      C761.4,9,761.1,9.3,760.7,9.3z"/>
  </g>
  <g>
    <path class="st12" d="M865.5,13.6c-0.4-0.5-0.7-1-1-1.6c-0.8-2.1-2.8-3.6-5.2-3.6s-4.4,1.5-5.2,3.6c-0.2,0.6-0.5,1.1-0.9,1.6
      c-1.5,1.7-2.3,3.9-2.1,6.4c0.4,3.8,3.5,6.9,7.3,7.4c5,0.5,9.2-3.3,9.2-8.2C867.6,17,866.8,15.1,865.5,13.6z"/>
  </g>
  <g>
    <path class="st13" d="M862.4,9.3h-6.1c-0.4,0-0.7-0.3-0.7-0.7V4c0-0.4,0.3-0.7,0.7-0.7h6.1c0.4,0,0.7,0.3,0.7,0.7v4.5
      C863.1,9,862.8,9.3,862.4,9.3z"/>
  </g>
  <g>
    <path class="st14" d="M967.1,13.6c-0.4-0.5-0.7-1-1-1.6c-0.8-2.1-2.8-3.6-5.2-3.6s-4.4,1.5-5.2,3.6c-0.2,0.6-0.5,1.1-0.9,1.6
      c-1.5,1.7-2.3,3.9-2.1,6.4c0.4,3.8,3.5,6.9,7.3,7.4c5,0.5,9.2-3.3,9.2-8.2C969.2,17,968.4,15.1,967.1,13.6z"/>
  </g>
  <g>
    <path class="st13" d="M964,9.3h-6.1c-0.4,0-0.7-0.3-0.7-0.7V4c0-0.4,0.3-0.7,0.7-0.7h6.1c0.4,0,0.7,0.3,0.7,0.7v4.5
      C964.7,9,964.4,9.3,964,9.3z"/>
  </g>
  <g>
    <path class="st15" d="M1068.8,13.6c-0.4-0.5-0.7-1-1-1.6c-0.8-2.1-2.8-3.6-5.2-3.6c-2.4,0-4.4,1.5-5.2,3.6
      c-0.2,0.6-0.5,1.1-0.9,1.6c-1.5,1.7-2.3,3.9-2.1,6.4c0.4,3.8,3.5,6.9,7.3,7.4c5,0.5,9.2-3.3,9.2-8.2
      C1070.9,17,1070.1,15.1,1068.8,13.6z"/>
  </g>
  <g>
    <path class="st13" d="M1065.7,9.3h-6.1c-0.4,0-0.7-0.3-0.7-0.7V4c0-0.4,0.3-0.7,0.7-0.7h6.1c0.4,0,0.7,0.3,0.7,0.7v4.5
      C1066.4,9,1066.1,9.3,1065.7,9.3z"/>
  </g>
  <g>
    <path class="st12" d="M1170.4,13.6c-0.4-0.5-0.7-1-1-1.6c-0.8-2.1-2.8-3.6-5.2-3.6c-2.4,0-4.4,1.5-5.2,3.6
      c-0.2,0.6-0.5,1.1-0.9,1.6c-1.5,1.7-2.3,3.9-2.1,6.4c0.4,3.8,3.5,6.9,7.3,7.4c5,0.5,9.2-3.3,9.2-8.2
      C1172.5,17,1171.7,15.1,1170.4,13.6z"/>
  </g>
  <g>
    <path class="st13" d="M1167.3,9.3h-6.1c-0.4,0-0.7-0.3-0.7-0.7V4c0-0.4,0.3-0.7,0.7-0.7h6.1c0.4,0,0.7,0.3,0.7,0.7v4.5
      C1168,9,1167.7,9.3,1167.3,9.3z"/>
  </g>
  <g>
    <path class="st15" d="M1272.1,13.6c-0.4-0.5-0.7-1-1-1.6c-0.8-2.1-2.8-3.6-5.2-3.6c-2.4,0-4.4,1.5-5.2,3.6
      c-0.2,0.6-0.5,1.1-0.9,1.6c-1.5,1.7-2.3,3.9-2.1,6.4c0.4,3.8,3.5,6.9,7.3,7.4c5,0.5,9.2-3.3,9.2-8.2
      C1274.2,17,1273.4,15.1,1272.1,13.6z"/>
  </g>
  <g>
    <path class="st13" d="M1268.9,9.3h-6.1c-0.4,0-0.7-0.3-0.7-0.7V4c0-0.4,0.3-0.7,0.7-0.7h6.1c0.4,0,0.7,0.3,0.7,0.7v4.5
      C1269.7,9,1269.3,9.3,1268.9,9.3z"/>
  </g>
  <g>
    <path class="st14" d="M1373.7,13.6c-0.4-0.5-0.7-1-1-1.6c-0.8-2.1-2.8-3.6-5.2-3.6c-2.4,0-4.4,1.5-5.2,3.6
      c-0.2,0.6-0.5,1.1-0.9,1.6c-1.5,1.7-2.3,3.9-2.1,6.4c0.4,3.8,3.5,6.9,7.3,7.4c5,0.5,9.2-3.3,9.2-8.2
      C1375.8,17,1375,15.1,1373.7,13.6z"/>
  </g>
  <g>
    <path class="st13" d="M1370.6,9.3h-6.1c-0.4,0-0.7-0.3-0.7-0.7V4c0-0.4,0.3-0.7,0.7-0.7h6.1c0.4,0,0.7,0.3,0.7,0.7v4.5
      C1371.3,9,1371,9.3,1370.6,9.3z"/>
  </g>
  <g>
    <path class="st12" d="M1475.3,13.6c-0.4-0.5-0.7-1-1-1.6c-0.8-2.1-2.8-3.6-5.2-3.6c-2.4,0-4.4,1.5-5.2,3.6
      c-0.2,0.6-0.5,1.1-0.9,1.6c-1.5,1.7-2.3,3.9-2.1,6.4c0.4,3.8,3.5,6.9,7.3,7.4c5,0.5,9.2-3.3,9.2-8.2
      C1477.5,17,1476.7,15.1,1475.3,13.6z"/>
  </g>
  <g>
    <path class="st13" d="M1472.2,9.3h-6.1c-0.4,0-0.7-0.3-0.7-0.7V4c0-0.4,0.3-0.7,0.7-0.7h6.1c0.4,0,0.7,0.3,0.7,0.7v4.5
      C1472.9,9,1472.6,9.3,1472.2,9.3z"/>
  </g>
  <g>
    <path class="st15" d="M1577,13.6c-0.4-0.5-0.7-1-1-1.6c-0.8-2.1-2.8-3.6-5.2-3.6c-2.4,0-4.4,1.5-5.2,3.6c-0.2,0.6-0.5,1.1-0.9,1.6
      c-1.5,1.7-2.3,3.9-2.1,6.4c0.4,3.8,3.5,6.9,7.3,7.4c5,0.5,9.2-3.3,9.2-8.2C1579.1,17,1578.3,15.1,1577,13.6z"/>
  </g>
  <g>
    <path class="st13" d="M1573.9,9.3h-6.1c-0.4,0-0.7-0.3-0.7-0.7V4c0-0.4,0.3-0.7,0.7-0.7h6.1c0.4,0,0.7,0.3,0.7,0.7v4.5
      C1574.6,9,1574.3,9.3,1573.9,9.3z"/>
  </g>
  <g>
    <path class="st12" d="M1678.6,13.6c-0.4-0.5-0.7-1-1-1.6c-0.8-2.1-2.8-3.6-5.2-3.6c-2.4,0-4.4,1.5-5.2,3.6
      c-0.2,0.6-0.5,1.1-0.9,1.6c-1.5,1.7-2.3,3.9-2.1,6.4c0.4,3.8,3.5,6.9,7.3,7.4c5,0.5,9.2-3.3,9.2-8.2
      C1680.7,17,1679.9,15.1,1678.6,13.6z"/>
  </g>
  <g>
    <path class="st13" d="M1675.5,9.3h-6.1c-0.4,0-0.7-0.3-0.7-0.7V4c0-0.4,0.3-0.7,0.7-0.7h6.1c0.4,0,0.7,0.3,0.7,0.7v4.5
      C1676.2,9,1675.9,9.3,1675.5,9.3z"/>
  </g>
</g>
</svg>
