<!-- Generator: Adobe Illustrator 19.0.1, SVG Export Plug-In  -->
<svg version="1.1"
	 xmlns="http://www.w3.org/2000/svg" xmlns:xlink="http://www.w3.org/1999/xlink" xmlns:a="http://ns.adobe.com/AdobeSVGViewerExtensions/3.0/"
	 x="0px" y="0px" width="5141.2px" height="351.4px" viewBox="0 0 5141.2 351.4" style="enable-background:new 0 0 5141.2 351.4;"
	 xml:space="preserve">
<style type="text/css">
	.st0{fill:url(#SVGID_1_);}
	.st1{fill:url(#SVGID_2_);}
	.st2{fill:url(#SVGID_3_);}
	.st3{fill:url(#SVGID_4_);}
	.st4{fill:url(#SVGID_5_);}
	.st5{fill:url(#SVGID_6_);}
	.st6{fill:url(#SVGID_7_);}
	.st7{fill:url(#SVGID_8_);}
	.st8{fill:url(#SVGID_9_);}
	.st9{fill:url(#SVGID_10_);}
	.st10{fill:url(#SVGID_11_);}
	.st11{fill:url(#SVGID_12_);}
	.st12{fill:#FFE269;}
	.st13{fill:#E94D27;}
	.st14{fill:#8ACBBC;}
	.st15{fill:#444444;}
	.st16{fill:url(#SVGID_13_);}
	.st17{fill:url(#SVGID_14_);}
	.st18{fill:url(#SVGID_15_);}
	.st19{fill:url(#SVGID_16_);}
	.st20{fill:url(#SVGID_17_);}
	.st21{fill:url(#SVGID_18_);}
	.st22{fill:url(#SVGID_19_);}
	.st23{fill:url(#SVGID_20_);}
	.st24{fill:url(#SVGID_21_);}
	.st25{fill:url(#SVGID_22_);}
	.st26{fill:url(#SVGID_23_);}
	.st27{fill:url(#SVGID_24_);}
</style>
<defs>
</defs>
<linearGradient id="SVGID_1_" gradientUnits="userSpaceOnUse" x1="3129.5" y1="1997.5477" x2="3129.5" y2="1663.2477" gradientTransform="matrix(1 0 0 1 0 -1646.1477)">
	<stop  offset="0" style="stop-color:#FFFFFF;stop-opacity:0"/>
	<stop  offset="1" style="stop-color:#FFFFFF;stop-opacity:0.4"/>
</linearGradient>
<path class="st0" d="M2962.3,351.4l334.4-0.5L3128.8,17.1L2962.3,351.4z"/>
<linearGradient id="SVGID_2_" gradientUnits="userSpaceOnUse" x1="3027.8" y1="1997.5477" x2="3027.8" y2="1663.2477" gradientTransform="matrix(1 0 0 1 0 -1646.1477)">
	<stop  offset="0" style="stop-color:#FFFFFF;stop-opacity:0"/>
	<stop  offset="1" style="stop-color:#FFFFFF;stop-opacity:0.4"/>
</linearGradient>
<path class="st1" d="M2860.6,351.4l334.4-0.5L3027.2,17.1L2860.6,351.4z"/>
<linearGradient id="SVGID_3_" gradientUnits="userSpaceOnUse" x1="2926.2" y1="1997.5477" x2="2926.2" y2="1663.2477" gradientTransform="matrix(1 0 0 1 0 -1646.1477)">
	<stop  offset="0" style="stop-color:#FFFFFF;stop-opacity:0"/>
	<stop  offset="1" style="stop-color:#FFFFFF;stop-opacity:0.4"/>
</linearGradient>
<path class="st2" d="M2759,351.4l334.4-0.5L2925.5,17.1L2759,351.4z"/>
<linearGradient id="SVGID_4_" gradientUnits="userSpaceOnUse" x1="2824.5" y1="1997.5477" x2="2824.5" y2="1663.2477" gradientTransform="matrix(1 0 0 1 0 -1646.1477)">
	<stop  offset="0" style="stop-color:#FFFFFF;stop-opacity:0"/>
	<stop  offset="1" style="stop-color:#FFFFFF;stop-opacity:0.4"/>
</linearGradient>
<path class="st3" d="M2657.3,351.4l334.4-0.5L2823.9,17.1L2657.3,351.4z"/>
<linearGradient id="SVGID_5_" gradientUnits="userSpaceOnUse" x1="2722.8999" y1="1997.5477" x2="2722.8999" y2="1663.2477" gradientTransform="matrix(1 0 0 1 0 -1646.1477)">
	<stop  offset="0" style="stop-color:#FFFFFF;stop-opacity:0"/>
	<stop  offset="1" style="stop-color:#FFFFFF;stop-opacity:0.4"/>
</linearGradient>
<path class="st4" d="M2555.7,351.4l334.4-0.5L2722.3,17.1L2555.7,351.4z"/>
<linearGradient id="SVGID_6_" gradientUnits="userSpaceOnUse" x1="2621.2" y1="1997.5477" x2="2621.2" y2="1663.2477" gradientTransform="matrix(1 0 0 1 0 -1646.1477)">
	<stop  offset="0" style="stop-color:#FFFFFF;stop-opacity:0"/>
	<stop  offset="1" style="stop-color:#FFFFFF;stop-opacity:0.4"/>
</linearGradient>
<path class="st5" d="M2454,351.4l334.4-0.5L2620.6,17.1L2454,351.4z"/>
<linearGradient id="SVGID_7_" gradientUnits="userSpaceOnUse" x1="2519.6001" y1="1997.5477" x2="2519.6001" y2="1663.2477" gradientTransform="matrix(1 0 0 1 0 -1646.1477)">
	<stop  offset="0" style="stop-color:#FFFFFF;stop-opacity:0"/>
	<stop  offset="1" style="stop-color:#FFFFFF;stop-opacity:0.4"/>
</linearGradient>
<path class="st6" d="M2352.4,351.4l334.4-0.5L2519,17.1L2352.4,351.4z"/>
<linearGradient id="SVGID_8_" gradientUnits="userSpaceOnUse" x1="2418" y1="1997.5477" x2="2418" y2="1663.2477" gradientTransform="matrix(1 0 0 1 0 -1646.1477)">
	<stop  offset="0" style="stop-color:#FFFFFF;stop-opacity:0"/>
	<stop  offset="1" style="stop-color:#FFFFFF;stop-opacity:0.4"/>
</linearGradient>
<path class="st7" d="M2250.8,351.4l334.4-0.5L2417.3,17.1L2250.8,351.4z"/>
<linearGradient id="SVGID_9_" gradientUnits="userSpaceOnUse" x1="2316.3" y1="1997.5477" x2="2316.3" y2="1663.2477" gradientTransform="matrix(1 0 0 1 0 -1646.1477)">
	<stop  offset="0" style="stop-color:#FFFFFF;stop-opacity:0"/>
	<stop  offset="1" style="stop-color:#FFFFFF;stop-opacity:0.4"/>
</linearGradient>
<path class="st8" d="M2149.1,351.4l334.4-0.5L2315.7,17.1L2149.1,351.4z"/>
<linearGradient id="SVGID_10_" gradientUnits="userSpaceOnUse" x1="2214.7" y1="1997.5477" x2="2214.7" y2="1663.2477" gradientTransform="matrix(1 0 0 1 0 -1646.1477)">
	<stop  offset="0" style="stop-color:#FFFFFF;stop-opacity:0"/>
	<stop  offset="1" style="stop-color:#FFFFFF;stop-opacity:0.4"/>
</linearGradient>
<path class="st9" d="M2047.5,351.4l334.4-0.5L2214,17.1L2047.5,351.4z"/>
<linearGradient id="SVGID_11_" gradientUnits="userSpaceOnUse" x1="2113" y1="1997.5477" x2="2113" y2="1663.2477" gradientTransform="matrix(1 0 0 1 0 -1646.1477)">
	<stop  offset="0" style="stop-color:#FFFFFF;stop-opacity:0"/>
	<stop  offset="1" style="stop-color:#FFFFFF;stop-opacity:0.4"/>
</linearGradient>
<path class="st10" d="M1945.8,351.4l334.4-0.5L2112.4,17.1L1945.8,351.4z"/>
<linearGradient id="SVGID_12_" gradientUnits="userSpaceOnUse" x1="2011.4" y1="1997.5477" x2="2011.4" y2="1663.2477" gradientTransform="matrix(1 0 0 1 0 -1646.1477)">
	<stop  offset="0" style="stop-color:#FFFFFF;stop-opacity:0"/>
	<stop  offset="1" style="stop-color:#FFFFFF;stop-opacity:0.4"/>
</linearGradient>
<path class="st11" d="M1844.2,351.4l334.4-0.5L2010.7,17.1L1844.2,351.4z"/>
<g>
	<g>
		<path class="st12" d="M2017.6,13.6c-0.4-0.5-0.7-1-1-1.6c-0.8-2.1-2.8-3.6-5.2-3.6c-2.4,0-4.4,1.5-5.2,3.6
			c-0.2,0.6-0.5,1.1-0.9,1.6c-1.5,1.7-2.3,3.9-2.1,6.4c0.4,3.8,3.5,6.9,7.3,7.4c5,0.5,9.2-3.3,9.2-8.2
			C2019.7,17,2018.9,15.1,2017.6,13.6z"/>
	</g>
	<g>
		<path class="st13" d="M2119.2,13.6c-0.4-0.5-0.7-1-1-1.6c-0.8-2.1-2.8-3.6-5.2-3.6s-4.4,1.5-5.2,3.6c-0.2,0.6-0.5,1.1-0.9,1.6
			c-1.5,1.7-2.3,3.9-2.1,6.4c0.4,3.8,3.5,6.9,7.3,7.4c5,0.5,9.2-3.3,9.2-8.2C2121.3,17,2120.5,15.1,2119.2,13.6z"/>
	</g>
	<g>
		<path class="st14" d="M2220.8,13.6c-0.4-0.5-0.7-1-1-1.6c-0.8-2.1-2.8-3.6-5.2-3.6c-2.4,0-4.4,1.5-5.2,3.6
			c-0.2,0.6-0.5,1.1-0.9,1.6c-1.5,1.7-2.3,3.9-2.1,6.4c0.4,3.8,3.5,6.9,7.3,7.4c5,0.5,9.2-3.3,9.2-8.2
			C2223,17,2222.2,15.1,2220.8,13.6z"/>
	</g>
	<g>
		<path class="st12" d="M2322.5,13.6c-0.4-0.5-0.7-1-1-1.6c-0.8-2.1-2.8-3.6-5.2-3.6c-2.4,0-4.4,1.5-5.2,3.6
			c-0.2,0.6-0.5,1.1-0.9,1.6c-1.5,1.7-2.3,3.9-2.1,6.4c0.4,3.8,3.5,6.9,7.3,7.4c5,0.5,9.2-3.3,9.2-8.2
			C2324.6,17,2323.8,15.1,2322.5,13.6z"/>
	</g>
	<g>
		<path class="st13" d="M2424.1,13.6c-0.4-0.5-0.7-1-1-1.6c-0.8-2.1-2.8-3.6-5.2-3.6c-2.4,0-4.4,1.5-5.2,3.6
			c-0.2,0.6-0.5,1.1-0.9,1.6c-1.5,1.7-2.3,3.9-2.1,6.4c0.4,3.8,3.5,6.9,7.3,7.4c5,0.5,9.2-3.3,9.2-8.2
			C2426.2,17,2425.4,15.1,2424.1,13.6z"/>
	</g>
	<g>
		<path class="st14" d="M2525.8,13.6c-0.4-0.5-0.7-1-1-1.6c-0.8-2.1-2.8-3.6-5.2-3.6s-4.4,1.5-5.2,3.6c-0.2,0.6-0.5,1.1-0.9,1.6
			c-1.5,1.7-2.3,3.9-2.1,6.4c0.4,3.8,3.5,6.9,7.3,7.4c5,0.5,9.2-3.3,9.2-8.2C2527.9,17,2527.1,15.1,2525.8,13.6z"/>
	</g>
	<g>
		<path class="st12" d="M2627.4,13.6c-0.4-0.5-0.7-1-1-1.6c-0.8-2.1-2.8-3.6-5.2-3.6c-2.4,0-4.4,1.5-5.2,3.6
			c-0.2,0.6-0.5,1.1-0.9,1.6c-1.5,1.7-2.3,3.9-2.1,6.4c0.4,3.8,3.5,6.9,7.3,7.4c5,0.5,9.2-3.3,9.2-8.2
			C2629.5,17,2628.7,15.1,2627.4,13.6z"/>
	</g>
	<g>
		<path class="st14" d="M2729.1,13.6c-0.4-0.5-0.7-1-1-1.6c-0.8-2.1-2.8-3.6-5.2-3.6s-4.4,1.5-5.2,3.6c-0.2,0.6-0.5,1.1-0.9,1.6
			c-1.5,1.7-2.3,3.9-2.1,6.4c0.4,3.8,3.5,6.9,7.3,7.4c5,0.5,9.2-3.3,9.2-8.2C2731.2,17,2730.4,15.1,2729.1,13.6z"/>
	</g>
	<g>
		<path class="st13" d="M2830.7,13.6c-0.4-0.5-0.7-1-1-1.6c-0.8-2.1-2.8-3.6-5.2-3.6s-4.4,1.5-5.2,3.6c-0.2,0.6-0.5,1.1-0.9,1.6
			c-1.5,1.7-2.3,3.9-2.1,6.4c0.4,3.8,3.5,6.9,7.3,7.4c5,0.5,9.2-3.3,9.2-8.2C2832.8,17,2832,15.1,2830.7,13.6z"/>
	</g>
	<g>
		<path class="st12" d="M2932.3,13.6c-0.4-0.5-0.7-1-1-1.6c-0.8-2.1-2.8-3.6-5.2-3.6s-4.4,1.5-5.2,3.6c-0.2,0.6-0.5,1.1-0.9,1.6
			c-1.5,1.7-2.3,3.9-2.1,6.4c0.4,3.8,3.5,6.9,7.3,7.4c5,0.5,9.2-3.3,9.2-8.2C2934.5,17,2933.7,15.1,2932.3,13.6z"/>
	</g>
	<g>
		<path class="st14" d="M3034,13.6c-0.4-0.5-0.7-1-1-1.6c-0.8-2.1-2.8-3.6-5.2-3.6c-2.4,0-4.4,1.5-5.2,3.6c-0.2,0.6-0.5,1.1-0.9,1.6
			c-1.5,1.7-2.3,3.9-2.1,6.4c0.4,3.8,3.5,6.9,7.3,7.4c5,0.5,9.2-3.3,9.2-8.2C3036.1,17,3035.3,15.1,3034,13.6z"/>
	</g>
	<g>
		<path class="st12" d="M3135.6,13.6c-0.4-0.5-0.7-1-1-1.6c-0.8-2.1-2.8-3.6-5.2-3.6s-4.4,1.5-5.2,3.6c-0.2,0.6-0.5,1.1-0.9,1.6
			c-1.5,1.7-2.3,3.9-2.1,6.4c0.4,3.8,3.5,6.9,7.3,7.4c5,0.5,9.2-3.3,9.2-8.2C3137.7,17,3136.9,15.1,3135.6,13.6z"/>
	</g>
	<path class="st15" d="M5141.2,0H0v3.4h2008c-0.2,0.1-0.4,0.3-0.4,0.6v4.6c0,0.4,0.3,0.7,0.7,0.7h6.1c0.4,0,0.7-0.3,0.7-0.8V4
		c0-0.3-0.1-0.5-0.4-0.6h94.9c-0.2,0.1-0.4,0.3-0.4,0.6v4.6c0,0.4,0.3,0.7,0.7,0.7h6.1c0.4,0,0.7-0.3,0.7-0.8V4
		c0-0.3-0.1-0.5-0.4-0.6h94.8c-0.2,0.1-0.4,0.3-0.4,0.6v4.6c0,0.4,0.3,0.7,0.7,0.7h6.1c0.4,0,0.7-0.3,0.7-0.8V4
		c0-0.3-0.1-0.5-0.4-0.6h94.9c-0.2,0.1-0.4,0.3-0.4,0.6v4.6c0,0.4,0.3,0.7,0.7,0.7h6.1c0.4,0,0.7-0.3,0.7-0.8V4
		c0-0.3-0.1-0.5-0.4-0.6h94.8c-0.2,0.1-0.4,0.3-0.4,0.6v4.6c0,0.4,0.3,0.7,0.7,0.7h6.1c0.4,0,0.7-0.3,0.7-0.8V4
		c0-0.3-0.1-0.5-0.4-0.6h94.9c-0.2,0.1-0.4,0.3-0.4,0.6v4.6c0,0.4,0.3,0.7,0.7,0.7h6.1c0.4,0,0.7-0.3,0.7-0.8V4
		c0-0.3-0.1-0.5-0.4-0.6h94.8c-0.2,0.1-0.4,0.3-0.4,0.6v4.6c0,0.4,0.3,0.7,0.7,0.7h6.1c0.4,0,0.7-0.3,0.7-0.8V4
		c0-0.3-0.1-0.5-0.4-0.6h94.8c-0.2,0.1-0.4,0.3-0.4,0.6v4.6c0,0.4,0.3,0.7,0.7,0.7h6.1c0.4,0,0.8-0.3,0.7-0.8V4
		c0-0.3-0.1-0.5-0.4-0.6h94.9c-0.2,0.1-0.4,0.3-0.4,0.6v4.6c0,0.4,0.3,0.7,0.7,0.7h6.1c0.4,0,0.7-0.3,0.7-0.8V4
		c0-0.3-0.1-0.5-0.4-0.6h94.8c-0.2,0.1-0.4,0.3-0.4,0.6v4.6c0,0.4,0.3,0.7,0.7,0.7h6.1c0.4,0,0.7-0.3,0.7-0.8V4
		c0-0.3-0.1-0.5-0.4-0.6h94.9c-0.2,0.1-0.4,0.3-0.4,0.6v4.6c0,0.4,0.3,0.7,0.7,0.7h6.1c0.4,0,0.7-0.3,0.7-0.8V4
		c0-0.3-0.1-0.5-0.4-0.6h94.8c-0.2,0.1-0.4,0.3-0.4,0.6v4.6c0,0.4,0.3,0.7,0.7,0.7h6.1c0.4,0,0.7-0.3,0.7-0.8V4
		c0-0.3-0.1-0.5-0.4-0.6h2008.4V0z"/>
</g>
</svg>
