<!-- Generator: Adobe Illustrator 19.0.1, SVG Export Plug-In  -->
<svg version="1.1"
   xmlns="http://www.w3.org/2000/svg" xmlns:xlink="http://www.w3.org/1999/xlink" xmlns:a="http://ns.adobe.com/AdobeSVGViewerExtensions/3.0/"
   x="0px" y="0px" width="139px" height="38.5px" viewBox="0 0 139 38.5" style="enable-background:new 0 0 139 38.5;"
   xml:space="preserve">
<style type="text/css">
  .st0{fill:#E94D27;}
  .st1{fill:#3B445B;}
</style>
<defs>
</defs>
<g>
  <g>
    <path class="st0" d="M14.9,29.8C6.7,29.8,0,23.1,0,14.9S6.7,0,14.9,0s14.9,6.7,14.9,14.9S23.1,29.8,14.9,29.8z M14.9,2.3
      C8,2.3,2.3,8,2.3,14.9S8,27.4,14.9,27.4s12.5-5.6,12.5-12.5S21.8,2.3,14.9,2.3z"/>
  </g>
  <g>
    <g>
      <path class="st0" d="M9.3,6.9h11.1v3.9h-6.9v3H20v3.9h-6.4v5.2H9.3V6.9z"/>
    </g>
  </g>
  <g>
    <g>
      <path class="st1" d="M41.8,1.3h8.4V4h-5.5v2.7h5.1v2.7h-5.1v4.2h-2.9V1.3z"/>
    </g>
    <g>
      <path class="st1" d="M52.4,13.6V1.3h6c2.4,0,4,1.6,4,4.1c0,1.7-0.6,3.1-1.7,3.9c0.3,0.4,0.6,0.8,0.8,1.3l1.3,3h-3.2l-0.8-2.2
        c-0.3-0.7-0.7-1.3-1.3-1.4h-2.1v3.6H52.4z M55.3,4v3.3h2.6c1,0,1.5-0.7,1.5-1.7c0-1-0.5-1.6-1.5-1.6H55.3z"/>
    </g>
    <g>
      <path class="st1" d="M64.2,7.5c0-3.7,2.4-6.4,6.1-6.4c3.7,0,6.1,2.7,6.1,6.4c0,3.7-2.4,6.4-6.1,6.4C66.6,13.8,64.2,11.2,64.2,7.5
        z M73.4,7.5c0-2-1.1-3.6-3.1-3.6c-2,0-3.1,1.6-3.1,3.6c0,2,1.1,3.6,3.1,3.6C72.3,11.1,73.4,9.5,73.4,7.5z"/>
    </g>
    <g>
      <path class="st1" d="M78.5,1.3h2.9l4.8,7.6V1.3h2.9v12.3h-2.9l-4.8-7.5v7.5h-2.9V1.3z"/>
    </g>
    <g>
      <path class="st1" d="M91,1.3h10.5V4h-3.7v9.6h-2.9V4H91V1.3z"/>
    </g>
    <g>
      <path class="st1" d="M103.3,1.3h8.9V4h-5.9v2.1h5.6v2.7h-5.6v2.1h6v2.7h-8.9V1.3z"/>
    </g>
    <g>
      <path class="st1" d="M114.6,1.3h2.9l4.8,7.6V1.3h2.9v12.3h-2.9l-4.8-7.5v7.5h-2.9V1.3z"/>
    </g>
    <g>
      <path class="st1" d="M128,1.3h4.9c3.6,0,6.1,2.5,6.1,6.1c0,3.6-2.5,6.2-6.2,6.2H128V1.3z M130.9,4v6.9h1.9c2,0,3.1-1.5,3.1-3.5
        c0-2-1.2-3.5-3.1-3.5H130.9z"/>
    </g>
    <g>
      <path class="st1" d="M43.7,16.8v7.8c0,2.3,1.6,3.2,3.4,3.2c1.7,0,3.2-1,3.2-3.2v-7.8H52v7.9c0,3.1-2.2,4.7-4.9,4.7
        c-2.8,0-5.1-1.5-5.1-4.7v-7.9H43.7z"/>
    </g>
    <g>
      <path class="st1" d="M55.2,16.8h1.7l6.7,9.7v-9.7h1.7v12.3h-1.7l-6.7-9.7v9.7h-1.7V16.8z"/>
    </g>
    <g>
      <path class="st1" d="M68.7,16.8h1.7v12.3h-1.7V16.8z"/>
    </g>
    <g>
      <path class="st1" d="M72.6,16.8h10.1v1.5h-4.2v10.8h-1.7V18.3h-4.3V16.8z"/>
    </g>
    <g>
      <path class="st1" d="M84.9,16.8h8.4v1.5h-6.7v3.8h6.4v1.5h-6.4v3.9h6.8v1.5h-8.5V16.8z"/>
    </g>
    <g>
      <path class="st1" d="M96.2,16.8h4.6c3.6,0,6,2.5,6,6.1c0,3.7-2.4,6.2-6.1,6.2h-4.5V16.8z M97.9,18.3v9.2h2.8
        c2.7,0,4.4-1.9,4.4-4.6c0-2.7-1.6-4.6-4.3-4.6H97.9z"/>
    </g>
  </g>
  <g>
    <rect x="33.5" y="1.3" class="st1" width="2.3" height="26.8"/>
  </g>
  <g>
    <path class="st1" d="M45,36.9c-0.3,0.1-0.5,0.1-0.8,0.1c-0.3,0-0.6-0.1-0.9-0.2c-0.3-0.1-0.5-0.2-0.6-0.4
      c-0.2-0.2-0.3-0.4-0.4-0.7c-0.1-0.3-0.1-0.5-0.1-0.9c0-0.3,0-0.6,0.1-0.8c0.1-0.3,0.2-0.5,0.4-0.7c0.2-0.2,0.4-0.3,0.6-0.4
      c0.2-0.1,0.5-0.2,0.8-0.2c0.3,0,0.5,0,0.8,0.1c0.3,0,0.5,0.1,0.7,0.2c0,0,0,0,0,0.1c0,0.1,0,0.1,0,0.2c0,0.1,0,0.2,0,0.2
      c0,0.1,0,0.1,0,0.1c-0.2-0.1-0.4-0.2-0.6-0.2c-0.2,0-0.5-0.1-0.7-0.1c-0.2,0-0.4,0-0.5,0.1c-0.2,0.1-0.3,0.2-0.4,0.3
      c-0.1,0.1-0.2,0.3-0.2,0.4c-0.1,0.2-0.1,0.4-0.1,0.6c0,0.2,0,0.4,0.1,0.6c0.1,0.2,0.1,0.3,0.3,0.4c0.1,0.1,0.3,0.2,0.4,0.3
      c0.2,0.1,0.3,0.1,0.6,0.1c0.1,0,0.3,0,0.4,0c0.1,0,0.3-0.1,0.4-0.1v-0.8h-0.7v-0.7h1.4v1.8C45.5,36.7,45.2,36.9,45,36.9z"/>
    <path class="st1" d="M46.4,32.7l0.7-0.2v1.8c0.1-0.1,0.2-0.2,0.4-0.2c0.1-0.1,0.3-0.1,0.4-0.1c0.3,0,0.6,0.1,0.7,0.3
      c0.2,0.2,0.3,0.4,0.3,0.8V37h-0.7v-1.8c0-0.2,0-0.3-0.1-0.4c-0.1-0.1-0.2-0.1-0.4-0.1c-0.1,0-0.2,0-0.4,0.1
      c-0.1,0-0.2,0.1-0.3,0.2V37h-0.7V32.7z"/>
    <path class="st1" d="M52,36.3c0,0.1,0,0.1,0,0.2c0,0.1,0,0.2,0,0.3c-0.2,0.1-0.3,0.1-0.5,0.2c-0.2,0-0.3,0.1-0.5,0.1
      c-0.2,0-0.4,0-0.6-0.1c-0.2-0.1-0.3-0.2-0.5-0.3c-0.1-0.1-0.2-0.3-0.3-0.5c-0.1-0.2-0.1-0.4-0.1-0.6c0-0.2,0-0.4,0.1-0.6
      c0.1-0.2,0.2-0.4,0.3-0.5s0.3-0.2,0.4-0.3c0.2-0.1,0.4-0.1,0.6-0.1c0.2,0,0.4,0,0.5,0.1c0.2,0.1,0.3,0.1,0.4,0.3
      c0.1,0.1,0.2,0.2,0.2,0.4c0.1,0.1,0.1,0.3,0.1,0.5h0h0c0,0.1,0,0.2,0,0.3c0,0.1,0,0.2,0,0.3h-1.8c0,0.2,0.1,0.4,0.3,0.5
      c0.1,0.1,0.3,0.2,0.6,0.2C51.4,36.4,51.7,36.4,52,36.3C51.9,36.2,51.9,36.3,52,36.3z M50.6,34.6c-0.1,0-0.1,0.1-0.2,0.1
      c0,0.1-0.1,0.1-0.1,0.2c0,0.1,0,0.2-0.1,0.3l1.2,0c0-0.2-0.1-0.3-0.2-0.4c-0.1-0.1-0.2-0.2-0.4-0.2C50.8,34.6,50.7,34.6,50.6,34.6
      z"/>
    <path class="st1" d="M52.8,34.1h0.5l0.1,0.3c0.1-0.1,0.3-0.2,0.4-0.3C54,34,54.1,34,54.3,34c0.3,0,0.6,0.1,0.7,0.3
      c0.2,0.2,0.3,0.4,0.3,0.8V37h-0.7v-1.8c0-0.2,0-0.3-0.1-0.4c-0.1-0.1-0.2-0.1-0.4-0.1c-0.1,0-0.2,0-0.4,0.1
      c-0.1,0.1-0.2,0.1-0.3,0.2V37h-0.7V34.1z"/>
    <path class="st1" d="M56.2,34.1v-0.8l0.7-0.2v0.9h0.7v0.5l-0.1,0.1h-0.7v1.4c0,0.1,0,0.1,0,0.2c0,0,0.1,0.1,0.1,0.1
      c0,0,0.1,0.1,0.2,0.1c0.1,0,0.1,0,0.2,0h0.2V37l-0.5,0.1c-0.1,0-0.2,0-0.4-0.1c-0.1,0-0.2-0.1-0.3-0.2c-0.1-0.1-0.2-0.2-0.2-0.3
      c-0.1-0.1-0.1-0.3-0.1-0.4v-1.4h-0.3v-0.6H56.2z"/>
    <path class="st1" d="M60.3,32.6v5.9h-0.7v-5.9H60.3z"/>
    <path class="st1" d="M63.4,32.9l1.3,2.5l1.3-2.5h0.8v4H66v-2.8l-1.2,2.2h-0.3l-1.2-2.2V37h-0.7v-4H63.4z"/>
    <path class="st1" d="M68,37c-0.1,0-0.2-0.1-0.3-0.2c-0.1-0.1-0.2-0.2-0.2-0.3c0-0.1-0.1-0.2-0.1-0.4c0-0.2,0-0.3,0.1-0.4
      s0.2-0.2,0.3-0.3c0.1-0.1,0.3-0.1,0.4-0.2c0.2,0,0.3-0.1,0.5-0.1l0.4,0v-0.1c0-0.2-0.1-0.3-0.2-0.4c-0.1-0.1-0.3-0.1-0.4-0.1
      c-0.1,0-0.3,0-0.4,0c-0.1,0-0.3,0.1-0.4,0.1l0-0.1c0-0.1,0-0.1,0-0.2c0-0.1,0-0.1,0-0.2l0-0.1c0.2,0,0.3-0.1,0.5-0.1
      c0.2,0,0.3,0,0.5,0c0.2,0,0.4,0,0.5,0.1c0.2,0,0.3,0.1,0.4,0.2c0.1,0.1,0.2,0.2,0.3,0.3c0.1,0.1,0.1,0.3,0.1,0.5v1.1
      c0,0.1,0,0.1,0.1,0.2c0.1,0,0.1,0.1,0.2,0.1V37l-0.3,0c-0.2,0-0.3,0-0.4-0.1c-0.1-0.1-0.2-0.2-0.3-0.3c-0.1,0.1-0.3,0.2-0.4,0.3
      s-0.3,0.1-0.4,0.1C68.3,37.1,68.2,37,68,37z M68.9,36.4c0.1,0,0.2-0.1,0.3-0.2v-0.5l-0.3,0c-0.1,0-0.2,0-0.3,0
      c-0.1,0-0.2,0-0.2,0.1c-0.1,0-0.1,0.1-0.2,0.1c0,0.1-0.1,0.1-0.1,0.2c0,0.1,0,0.2,0.1,0.2c0.1,0.1,0.2,0.1,0.3,0.1
      C68.7,36.5,68.8,36.4,68.9,36.4z"/>
    <path class="st1" d="M71.7,37.7c-0.1,0.1-0.2,0.3-0.3,0.4c-0.1,0.1-0.2,0.2-0.4,0.3c-0.1,0.1-0.3,0.1-0.5,0.1h-0.2l0.1-0.7h0.2
      c0.1,0,0.2,0,0.2-0.1c0.1,0,0.1-0.1,0.2-0.1c0.1-0.1,0.1-0.1,0.2-0.2c0-0.1,0.1-0.2,0.1-0.2l0.1-0.2l-1.1-2.8h0.8l0.7,2.1l0.7-2.1
      h0.8L72,37.2C71.9,37.4,71.8,37.6,71.7,37.7z"/>
    <path class="st1" d="M75,35.7c0.1-0.2,0.2-0.3,0.4-0.4c0.1-0.1,0.3-0.2,0.5-0.3c0.2-0.1,0.3-0.2,0.5-0.3c0.1-0.1,0.3-0.2,0.4-0.3
      c0.1-0.1,0.1-0.2,0.1-0.3c0-0.1,0-0.2-0.1-0.2c0-0.1-0.1-0.1-0.1-0.1c-0.1,0-0.1-0.1-0.2-0.1c-0.1,0-0.2,0-0.2,0
      c-0.4,0-0.8,0.1-1.1,0.2l-0.1-0.6c0.2-0.1,0.4-0.2,0.7-0.2c0.2,0,0.5-0.1,0.7-0.1c0.2,0,0.3,0,0.5,0.1c0.2,0,0.3,0.1,0.4,0.2
      c0.1,0.1,0.2,0.2,0.3,0.3c0.1,0.1,0.1,0.3,0.1,0.5c0,0.2,0,0.4-0.1,0.5c-0.1,0.1-0.2,0.3-0.3,0.4c-0.1,0.1-0.3,0.2-0.5,0.3
      c-0.2,0.1-0.3,0.2-0.5,0.3c-0.1,0.1-0.3,0.2-0.3,0.3c-0.1,0.1-0.1,0.3-0.1,0.5v0.1h2V37h-2.8v-0.6C74.9,36.1,74.9,35.9,75,35.7z"
      />
    <path class="st1" d="M81.1,32.9v0.3L79.2,37h-0.8l1.7-3.4h-1.9v-0.7H81.1z"/>
    <path class="st1" d="M83,35.1v0.7h-1.7v-0.7H83z"/>
    <path class="st1" d="M83.9,35.7c0.1-0.2,0.2-0.3,0.4-0.4c0.1-0.1,0.3-0.2,0.5-0.3c0.2-0.1,0.3-0.2,0.5-0.3
      c0.1-0.1,0.3-0.2,0.4-0.3c0.1-0.1,0.1-0.2,0.1-0.3c0-0.1,0-0.2-0.1-0.2c0-0.1-0.1-0.1-0.1-0.1c-0.1,0-0.1-0.1-0.2-0.1
      c-0.1,0-0.2,0-0.2,0c-0.4,0-0.8,0.1-1.1,0.2l-0.1-0.6c0.2-0.1,0.4-0.2,0.7-0.2c0.2,0,0.5-0.1,0.7-0.1c0.2,0,0.3,0,0.5,0.1
      c0.2,0,0.3,0.1,0.4,0.2c0.1,0.1,0.2,0.2,0.3,0.3c0.1,0.1,0.1,0.3,0.1,0.5c0,0.2,0,0.4-0.1,0.5c-0.1,0.1-0.2,0.3-0.3,0.4
      c-0.1,0.1-0.3,0.2-0.5,0.3c-0.2,0.1-0.3,0.2-0.5,0.3c-0.1,0.1-0.3,0.2-0.3,0.3s-0.1,0.3-0.1,0.5v0.1h2V37h-2.8v-0.6
      C83.7,36.1,83.8,35.9,83.9,35.7z"/>
    <path class="st1" d="M88,37c-0.2,0-0.3-0.1-0.5-0.2c-0.1-0.1-0.3-0.2-0.3-0.4c-0.1-0.1-0.1-0.3-0.1-0.5c0-0.2,0.1-0.5,0.2-0.6
      c0.1-0.2,0.3-0.3,0.4-0.5c-0.1-0.1-0.2-0.2-0.3-0.4c-0.1-0.1-0.1-0.3-0.1-0.5c0-0.2,0-0.3,0.1-0.5c0.1-0.1,0.2-0.2,0.3-0.3
      c0.1-0.1,0.3-0.2,0.4-0.2c0.2,0,0.3-0.1,0.5-0.1c0.2,0,0.4,0,0.5,0.1c0.2,0,0.3,0.1,0.4,0.2s0.2,0.2,0.3,0.3
      C90,33.6,90,33.8,90,34c0,0.2,0,0.4-0.1,0.5c-0.1,0.2-0.2,0.3-0.3,0.4c0.1,0,0.2,0.1,0.2,0.2c0.1,0.1,0.1,0.1,0.2,0.2
      c0.1,0.1,0.1,0.2,0.1,0.3c0,0.1,0,0.2,0,0.4c0,0.2,0,0.4-0.1,0.5c-0.1,0.1-0.2,0.3-0.3,0.4c-0.1,0.1-0.3,0.2-0.5,0.2
      c-0.2,0-0.4,0.1-0.6,0.1C88.4,37.1,88.2,37,88,37z M89.3,35.6c-0.1-0.1-0.2-0.1-0.3-0.2c-0.1-0.1-0.2-0.1-0.4-0.1
      c-0.1,0-0.3-0.1-0.4-0.1c-0.1,0.1-0.3,0.1-0.3,0.3c-0.1,0.1-0.1,0.3-0.1,0.4c0,0.1,0,0.2,0.1,0.3c0,0.1,0.1,0.1,0.2,0.2
      c0.1,0,0.2,0.1,0.3,0.1c0.1,0,0.2,0,0.3,0c0.1,0,0.2,0,0.3,0c0.1,0,0.2,0,0.3-0.1c0.1,0,0.1-0.1,0.2-0.2c0-0.1,0.1-0.2,0.1-0.3
      C89.4,35.7,89.4,35.6,89.3,35.6z M88.1,34.2c0,0.1,0.1,0.1,0.2,0.2c0.1,0.1,0.2,0.1,0.3,0.1c0.1,0,0.2,0.1,0.3,0.1
      c0.1-0.1,0.2-0.2,0.3-0.3s0.1-0.3,0.1-0.4c0-0.2-0.1-0.3-0.2-0.4c-0.1-0.1-0.3-0.1-0.5-0.1c-0.2,0-0.3,0-0.4,0.1
      C88,33.6,88,33.8,88,33.9C88,34,88,34.1,88.1,34.2z"/>
    <path class="st1" d="M90.8,37.1c0-0.2,0-0.3,0-0.5l0.6-0.1c0,0.2,0,0.4-0.1,0.6c-0.1,0.2-0.2,0.4-0.3,0.6l-0.4-0.1
      C90.7,37.5,90.8,37.3,90.8,37.1z"/>
    <path class="st1" d="M93.6,35.7c0.1-0.2,0.2-0.3,0.4-0.4c0.1-0.1,0.3-0.2,0.5-0.3c0.2-0.1,0.3-0.2,0.5-0.3
      c0.1-0.1,0.3-0.2,0.4-0.3s0.1-0.2,0.1-0.3c0-0.1,0-0.2-0.1-0.2c0-0.1-0.1-0.1-0.1-0.1c-0.1,0-0.1-0.1-0.2-0.1c-0.1,0-0.2,0-0.2,0
      c-0.4,0-0.8,0.1-1.1,0.2l-0.1-0.6c0.2-0.1,0.4-0.2,0.7-0.2c0.2,0,0.5-0.1,0.7-0.1c0.2,0,0.3,0,0.5,0.1c0.2,0,0.3,0.1,0.4,0.2
      c0.1,0.1,0.2,0.2,0.3,0.3c0.1,0.1,0.1,0.3,0.1,0.5c0,0.2,0,0.4-0.1,0.5c-0.1,0.1-0.2,0.3-0.3,0.4c-0.1,0.1-0.3,0.2-0.5,0.3
      c-0.2,0.1-0.3,0.2-0.5,0.3c-0.1,0.1-0.3,0.2-0.3,0.3c-0.1,0.1-0.1,0.3-0.1,0.5v0.1h2V37h-2.8v-0.6C93.4,36.1,93.5,35.9,93.6,35.7z
      "/>
    <path class="st1" d="M97.8,36.9c-0.2-0.1-0.4-0.3-0.5-0.5c-0.1-0.2-0.2-0.4-0.3-0.7c-0.1-0.3-0.1-0.5-0.1-0.8c0-0.3,0-0.6,0.1-0.8
      c0.1-0.3,0.2-0.5,0.3-0.7c0.1-0.2,0.3-0.3,0.5-0.5c0.2-0.1,0.5-0.2,0.7-0.2c0.3,0,0.5,0.1,0.7,0.2c0.2,0.1,0.4,0.3,0.5,0.5
      c0.1,0.2,0.2,0.4,0.3,0.7c0.1,0.3,0.1,0.5,0.1,0.8c0,0.3,0,0.6-0.1,0.8c-0.1,0.3-0.2,0.5-0.3,0.7c-0.1,0.2-0.3,0.3-0.5,0.5
      c-0.2,0.1-0.5,0.2-0.7,0.2C98.2,37.1,98,37,97.8,36.9z M98.9,36.2c0.1-0.1,0.2-0.2,0.3-0.3c0.1-0.1,0.1-0.3,0.1-0.4
      c0-0.2,0-0.3,0-0.5s0-0.3,0-0.5c0-0.2-0.1-0.3-0.1-0.4c-0.1-0.1-0.2-0.2-0.3-0.3c-0.1-0.1-0.3-0.1-0.4-0.1c-0.2,0-0.3,0-0.4,0.1
      s-0.2,0.2-0.3,0.3c-0.1,0.1-0.1,0.3-0.1,0.4c0,0.2,0,0.3,0,0.5s0,0.3,0,0.5c0,0.2,0.1,0.3,0.1,0.4c0.1,0.1,0.2,0.2,0.3,0.3
      s0.3,0.1,0.4,0.1C98.7,36.4,98.8,36.3,98.9,36.2z"/>
    <path class="st1" d="M101.7,36.3v-2.6l-0.8,0.4l-0.3-0.6l1.1-0.6h0.7v3.4h0.7V37H101v-0.7H101.7z"/>
    <path class="st1" d="M104.6,36.9c-0.2-0.1-0.4-0.2-0.5-0.4c-0.1-0.2-0.2-0.4-0.3-0.6c-0.1-0.2-0.1-0.5-0.1-0.7v0
      c0-0.3,0-0.6,0.1-0.9c0.1-0.3,0.2-0.5,0.3-0.7c0.2-0.2,0.3-0.4,0.6-0.5c0.2-0.1,0.5-0.2,0.8-0.2c0.2,0,0.3,0,0.5,0
      c0.2,0,0.3,0.1,0.5,0.1c0,0,0,0,0,0.1c0,0.1,0,0.1,0,0.2c0,0.1,0,0.2,0,0.2c0,0.1,0,0.1,0,0.1c-0.3-0.1-0.5-0.1-0.8-0.1
      s-0.5,0.1-0.7,0.2c-0.2,0.2-0.3,0.4-0.4,0.6c0.2-0.1,0.5-0.1,0.7-0.1c0.2,0,0.4,0,0.6,0.1c0.2,0.1,0.3,0.1,0.5,0.3
      c0.1,0.1,0.2,0.3,0.3,0.4c0.1,0.2,0.1,0.4,0.1,0.6c0,0.2,0,0.4-0.1,0.6c-0.1,0.2-0.2,0.3-0.3,0.5c-0.1,0.1-0.3,0.2-0.4,0.3
      c-0.2,0.1-0.4,0.1-0.6,0.1C105,37.1,104.8,37,104.6,36.9z M104.8,35c-0.1,0-0.2,0.1-0.4,0.1c0,0.2,0,0.3,0,0.5
      c0,0.1,0.1,0.3,0.1,0.4c0.1,0.1,0.1,0.2,0.2,0.3c0.1,0.1,0.2,0.1,0.4,0.1c0.2,0,0.4-0.1,0.5-0.2c0.1-0.1,0.2-0.3,0.2-0.5
      c0-0.2-0.1-0.4-0.2-0.5s-0.3-0.2-0.5-0.2C105,35,104.9,35,104.8,35z"/>
  </g>
</g>
</svg>
