<!-- Generator: Adobe Illustrator 19.0.1, SVG Export Plug-In  -->
<svg version="1.1"
   xmlns="http://www.w3.org/2000/svg" xmlns:xlink="http://www.w3.org/1999/xlink" xmlns:a="http://ns.adobe.com/AdobeSVGViewerExtensions/3.0/"
   x="0px" y="0px" width="417.2px" height="141.5px" viewBox="0 0 417.2 141.5" style="enable-background:new 0 0 417.2 141.5;"
   xml:space="preserve">
<style type="text/css">
  .st0{fill:#E94D27;}
  .st1{fill:#3B445B;}
</style>
<defs>
</defs>
<g>
  <g>
    <path class="st0" d="M27.9,20.6h33.3v11.7H40.6v9h19.1v11.7H40.6v15.5H27.9V20.6z"/>
  </g>
</g>
<g>
  <g>
    <path class="st1" d="M126.5,4.4h25.1v8h-16.3v8.1h15.2v8h-15.2v12.6h-8.8V4.4z"/>
  </g>
  <g>
    <path class="st1" d="M158.2,41.2V4.4h18.1c7.3,0,12,4.9,12,12.2c0,5-1.7,9.2-5,11.6c1,1.2,1.7,2.5,2.4,4l3.8,9h-9.5l-2.5-6.5
      c-0.8-2-2-3.9-4-4.3H167v10.8H158.2z M167,12.4v9.8h7.7c3,0,4.4-2.1,4.4-5.1c0-2.9-1.5-4.7-4.4-4.7H167z"/>
  </g>
  <g>
    <path class="st1" d="M193.4,22.8c0-11.1,7.2-19.1,18.3-19.1c11.1,0,18.4,8,18.4,19.1c0,11.1-7.2,19.1-18.4,19.1
      C200.7,41.9,193.4,33.9,193.4,22.8z M221,22.8c0-6-3.3-10.8-9.3-10.8s-9.3,4.8-9.3,10.8c0,5.9,3.3,10.8,9.3,10.8
      C217.7,33.6,221,28.8,221,22.8z"/>
  </g>
  <g>
    <path class="st1" d="M236.3,4.4h8.8L259.5,27V4.4h8.8v36.8h-8.8l-14.3-22.6v22.6h-8.8V4.4z"/>
  </g>
  <g>
    <path class="st1" d="M273.8,4.4H305v8h-11.2v28.7h-8.8V12.4h-11.3V4.4z"/>
  </g>
  <g>
    <path class="st1" d="M310.6,4.4h26.5v8h-17.7v6.3H336v8h-16.6v6.3h17.9v8h-26.7V4.4z"/>
  </g>
  <g>
    <path class="st1" d="M344.3,4.4h8.8L367.4,27V4.4h8.8v36.8h-8.8l-14.3-22.6v22.6h-8.8V4.4z"/>
  </g>
  <g>
    <path class="st1" d="M384.3,4.4h14.6c10.9,0,18.4,7.5,18.4,18.4c0,10.9-7.5,18.4-18.4,18.4h-14.5V4.4z M393.1,12.4v20.7h5.7
      c5.8,0,9.4-4.5,9.4-10.4c0-5.8-3.5-10.3-9.3-10.3H393.1z"/>
  </g>
  <g>
    <path class="st1" d="M132.2,50.7v23.2c0,6.7,4.8,9.6,10.2,9.6c5.2,0,9.6-3,9.6-9.6V50.7h5v23.5c0,9.4-6.6,14-14.6,14
      c-8.2,0-15.2-4.4-15.2-14V50.7H132.2z"/>
  </g>
  <g>
    <path class="st1" d="M166.8,50.7h5l20,29.1V50.7h5v36.8h-5l-20-29.1v29.1h-5V50.7z"/>
  </g>
  <g>
    <path class="st1" d="M206.9,50.7h5v36.8h-5V50.7z"/>
  </g>
  <g>
    <path class="st1" d="M218.6,50.7h30.3v4.6h-12.6v32.2h-5V55.3h-12.7V50.7z"/>
  </g>
  <g>
    <path class="st1" d="M255.5,50.7h25.1v4.6h-20.1v11.2h19v4.5h-19v11.8h20.3v4.6h-25.3V50.7z"/>
  </g>
  <g>
    <path class="st1" d="M289.3,50.7H303c10.8,0,17.9,7.5,17.9,18.4c0,10.9-7.2,18.4-18.2,18.4h-13.4V50.7z M294.3,55.3v27.6h8.4
      c8.1,0,13.1-5.8,13.1-13.8c0-8-4.8-13.7-12.7-13.7H294.3z"/>
  </g>
</g>
<g>
  <rect x="101.7" y="4.5" class="st1" width="7" height="80"/>
</g>
<g>
  <path class="st1" d="M144.9,132.8c-1.6,0.5-3.2,0.7-4.9,0.7c-1.8,0-3.4-0.3-4.8-0.9s-2.6-1.5-3.6-2.5c-1-1.1-1.7-2.4-2.2-3.9
    c-0.5-1.5-0.8-3.2-0.8-4.9c0-1.7,0.2-3.4,0.7-4.9s1.2-2.8,2.2-3.9c1-1.1,2.1-1.9,3.5-2.5s2.9-0.9,4.7-0.9c1.6,0,3.1,0.2,4.6,0.6
    c1.5,0.4,2.9,1,4.2,1.9c0,0-0.1,0.1-0.1,0.3s-0.1,0.3-0.1,0.5c0,0.2-0.1,0.3-0.1,0.5c0,0.1,0,0.2-0.1,0.3c-1.2-0.8-2.6-1.5-4-1.8
    s-2.9-0.6-4.4-0.6c-1.5,0-2.8,0.3-4,0.8c-1.2,0.5-2.1,1.3-2.9,2.2s-1.4,2.1-1.8,3.4c-0.4,1.3-0.6,2.7-0.6,4.2
    c0,1.5,0.2,2.9,0.6,4.2c0.4,1.3,1.1,2.4,1.9,3.4c0.8,1,1.8,1.7,3,2.2c1.2,0.5,2.6,0.8,4.1,0.8c1.4,0,2.7-0.2,3.9-0.5
    c1.3-0.4,2.4-1,3.4-1.9V123h-6v-1.6h7.7v8.8C147.9,131.5,146.5,132.3,144.9,132.8z"/>
  <path class="st1" d="M154.6,107.8l1.6-0.4v11.4c0.7-0.9,1.5-1.6,2.5-2.2c1-0.5,2.1-0.8,3.3-0.8c1.7,0,3.1,0.5,4.1,1.6
    c1,1.1,1.5,2.5,1.5,4.2v11.4H166V122c0-1.3-0.4-2.4-1.1-3.3c-0.7-0.9-1.8-1.3-3.1-1.3c-1.2,0-2.3,0.3-3.2,0.8
    c-0.9,0.6-1.7,1.3-2.3,2.3v12.6h-1.6V107.8z"/>
  <path class="st1" d="M183.2,133.1c-1,0.3-2,0.4-3.1,0.4c-1.3,0-2.4-0.2-3.3-0.7c-1-0.4-1.8-1.1-2.4-1.8c-0.7-0.8-1.2-1.7-1.5-2.8
    c-0.3-1.1-0.5-2.2-0.5-3.5c0-1.2,0.1-2.4,0.4-3.5c0.3-1.1,0.8-2,1.4-2.8c0.6-0.8,1.4-1.4,2.3-1.9c0.9-0.5,2-0.7,3.2-0.7
    c1.1,0,2.1,0.2,2.9,0.6s1.6,1,2.2,1.7s1.1,1.5,1.4,2.5c0.3,0.9,0.5,1.9,0.6,3c0,0.2,0,0.4,0,0.7c0,0.2-0.1,0.5-0.1,0.7h-12.5
    c0,1,0.1,1.9,0.4,2.8c0.3,0.9,0.7,1.6,1.2,2.3c0.5,0.6,1.2,1.1,1.9,1.5c0.8,0.4,1.7,0.6,2.7,0.6c1,0,2-0.1,2.9-0.4s1.8-0.7,2.7-1.1
    l0.3,1.4C185.2,132.4,184.2,132.8,183.2,133.1z M177.2,117.8c-0.7,0.3-1.2,0.8-1.6,1.4s-0.8,1.3-1,2.1c-0.2,0.8-0.4,1.6-0.5,2.5
    l11-0.1c-0.1-0.9-0.2-1.7-0.5-2.4c-0.3-0.8-0.6-1.4-1.1-2c-0.5-0.6-1-1-1.7-1.4c-0.7-0.3-1.4-0.5-2.3-0.5
    C178.7,117.2,177.9,117.4,177.2,117.8z"/>
  <path class="st1" d="M191.4,116.3h1.3l0.3,2.7c0.7-1,1.6-1.8,2.5-2.3c1-0.6,2.1-0.9,3.3-0.9c1.7,0,3.1,0.5,4.1,1.6
    c1,1.1,1.5,2.5,1.5,4.2v11.4h-1.6V122c0-1.3-0.4-2.4-1.1-3.3c-0.7-0.9-1.8-1.3-3.1-1.3c-1.2,0-2.3,0.3-3.2,0.9
    c-0.9,0.6-1.7,1.3-2.3,2.3v12.6h-1.6V116.3z"/>
  <path class="st1" d="M210.4,116.3v-4.8l1.6-0.4v5.2h5.3v1.1l-0.3,0.4h-5.1v11c0,0.6,0.1,1.2,0.4,1.6c0.3,0.4,0.6,0.8,1,1
    s0.8,0.4,1.3,0.6c0.5,0.1,0.9,0.2,1.4,0.2h1.7v1.2l-2.2,0.3c-0.6,0-1.2-0.1-1.8-0.3s-1.2-0.5-1.6-0.8c-0.5-0.4-0.9-0.9-1.2-1.5
    c-0.3-0.6-0.5-1.3-0.5-2.2v-11h-2.1v-1.5H210.4z"/>
  <path class="st1" d="M230.8,110.7v25.5h-1.2v-25.5H230.8z"/>
  <path class="st1" d="M242.5,127.4c0.4-0.9,0.9-1.7,1.5-2.4c0.6-0.7,1.3-1.3,2.1-1.9c0.8-0.5,1.6-1.1,2.4-1.5
    c0.8-0.5,1.6-0.9,2.4-1.4s1.5-0.9,2.1-1.4c0.6-0.5,1.1-1.1,1.5-1.7c0.4-0.6,0.6-1.3,0.6-2.1c0-0.7-0.2-1.4-0.5-1.9
    c-0.3-0.5-0.7-1-1.2-1.3c-0.5-0.3-1.1-0.6-1.8-0.8c-0.7-0.2-1.4-0.3-2.2-0.3c-1.2,0-2.4,0.1-3.5,0.4c-1.1,0.3-2.2,0.7-3.2,1.4
    l-0.3-1.5c1.1-0.6,2.3-1.1,3.5-1.4c1.2-0.3,2.5-0.5,3.8-0.5c1,0,1.9,0.1,2.8,0.3c0.9,0.2,1.7,0.6,2.3,1c0.7,0.5,1.2,1.1,1.6,1.8
    c0.4,0.7,0.6,1.6,0.6,2.5c0,1.3-0.3,2.3-1,3.2c-0.7,0.8-1.5,1.6-2.5,2.3c-1,0.7-2.1,1.3-3.2,1.9c-1.1,0.6-2.2,1.3-3.2,2
    s-1.8,1.6-2.5,2.6c-0.7,1-1,2.3-1,3.8v0.9h14.2v1.5h-15.9v-2.5C241.9,129.4,242.1,128.3,242.5,127.4z"/>
  <path class="st1" d="M277.3,109.6v0.8l-11.5,22.7h-2l11.1-21.9h-13.5v-1.5H277.3z"/>
  <path class="st1" d="M288.4,123.5v1.6h-9.3v-1.6H288.4z"/>
  <path class="st1" d="M293.1,127.4c0.4-0.9,0.9-1.7,1.5-2.4c0.6-0.7,1.3-1.3,2.1-1.9s1.6-1.1,2.4-1.5c0.8-0.5,1.6-0.9,2.4-1.4
    s1.5-0.9,2.1-1.4c0.6-0.5,1.1-1.1,1.5-1.7c0.4-0.6,0.6-1.3,0.6-2.1c0-0.7-0.2-1.4-0.5-1.9s-0.7-1-1.2-1.3s-1.1-0.6-1.8-0.8
    c-0.7-0.2-1.4-0.3-2.2-0.3c-1.2,0-2.4,0.1-3.5,0.4c-1.1,0.3-2.2,0.7-3.2,1.4l-0.3-1.5c1.1-0.6,2.3-1.1,3.5-1.4
    c1.2-0.3,2.5-0.5,3.8-0.5c1,0,1.9,0.1,2.8,0.3c0.9,0.2,1.7,0.6,2.3,1c0.7,0.5,1.2,1.1,1.6,1.8s0.6,1.6,0.6,2.5c0,1.3-0.3,2.3-1,3.2
    s-1.5,1.6-2.5,2.3c-1,0.7-2.1,1.3-3.2,1.9c-1.1,0.6-2.2,1.3-3.2,2c-1,0.8-1.8,1.6-2.5,2.6s-1,2.3-1,3.8v0.9h14.2v1.5h-15.9v-2.5
    C292.6,129.4,292.8,128.3,293.1,127.4z"/>
  <path class="st1" d="M318.3,133.1c-1.1-0.3-2-0.7-2.8-1.3c-0.8-0.6-1.5-1.3-2-2.2c-0.5-0.9-0.7-1.9-0.7-3.1c0-1.5,0.4-2.8,1.1-3.8
    c0.7-1.1,1.7-1.9,3-2.4c-0.9-0.5-1.6-1.1-2.2-1.9c-0.6-0.8-0.8-1.8-0.8-3.1c0-1,0.2-1.9,0.6-2.7s0.9-1.4,1.6-1.9s1.4-0.9,2.3-1.2
    s1.8-0.4,2.9-0.4c1.1,0,2.1,0.1,3.1,0.4c1,0.3,1.8,0.7,2.5,1.3c0.7,0.6,1.3,1.3,1.7,2.1c0.4,0.8,0.6,1.8,0.6,2.9
    c0,1.3-0.3,2.5-0.8,3.5c-0.5,1-1.3,1.9-2.3,2.5c0.6,0.2,1.2,0.5,1.7,0.8c0.5,0.3,1,0.7,1.3,1.1c0.4,0.4,0.7,0.9,0.9,1.5
    c0.2,0.5,0.3,1.2,0.3,1.9c0,1.1-0.2,2.1-0.7,2.9c-0.5,0.8-1.1,1.5-1.9,2c-0.8,0.5-1.7,0.9-2.7,1.1c-1,0.2-2.1,0.4-3.2,0.4
    C320.5,133.5,319.4,133.4,318.3,133.1z M327.6,124.6c-0.6-0.6-1.5-1.1-2.4-1.5c-1-0.4-2-0.7-3.2-1c-1.2-0.3-2.3-0.6-3.4-1
    c-1.3,0.3-2.3,1-3,1.9c-0.7,0.9-1.1,2.1-1.1,3.4c0,1,0.2,1.8,0.6,2.5c0.4,0.7,0.9,1.3,1.6,1.8c0.7,0.5,1.4,0.8,2.3,1
    c0.9,0.2,1.8,0.3,2.7,0.3c0.9,0,1.7-0.1,2.6-0.3c0.8-0.2,1.6-0.5,2.2-0.9s1.1-0.9,1.5-1.5s0.5-1.4,0.5-2.3
    C328.5,126,328.2,125.2,327.6,124.6z M316.3,117.7c0.5,0.6,1.2,1.2,2,1.6c0.8,0.4,1.8,0.7,2.8,1c1,0.3,2,0.6,3,0.9
    c1.1-0.5,1.9-1.2,2.5-2.1s0.9-2,0.9-3.2c0-0.9-0.2-1.6-0.5-2.3c-0.3-0.7-0.8-1.2-1.4-1.6c-0.6-0.4-1.3-0.8-2-1
    c-0.8-0.2-1.6-0.3-2.4-0.3c-0.8,0-1.5,0.1-2.2,0.3c-0.7,0.2-1.3,0.5-1.8,0.9c-0.5,0.4-0.9,0.9-1.2,1.5c-0.3,0.6-0.4,1.3-0.4,2
    C315.6,116.2,315.8,117,316.3,117.7z"/>
  <path class="st1" d="M347,109.6l9.7,17l9.7-17h1.7v23.5h-1.7v-20.7l-9.2,16.1h-1.1l-9.2-16v20.6h-1.7v-23.5H347z"/>
  <path class="st1" d="M374.9,132.1c-1.1-0.9-1.6-2.2-1.6-3.9c0-1,0.2-1.8,0.6-2.4c0.4-0.7,1-1.2,1.6-1.6s1.5-0.8,2.4-1
    c0.9-0.2,1.8-0.4,2.8-0.4l4.1-0.4v-1.1c0-1.4-0.5-2.4-1.4-3s-2.1-1-3.5-1c-0.9,0-1.7,0.1-2.6,0.2c-0.8,0.1-1.7,0.3-2.5,0.6
    c0,0,0-0.1-0.1-0.3l-0.1-0.4c0-0.1-0.1-0.3-0.1-0.4c0-0.1,0-0.2,0-0.3c1.7-0.6,3.5-0.9,5.3-0.9c1.9,0,3.5,0.5,4.7,1.4
    c1.2,0.9,1.8,2.3,1.8,4.1v9c0,0.6,0.2,1.1,0.7,1.3c0.5,0.3,1,0.4,1.6,0.4v1.4l-0.5,0.1c-0.9,0-1.7-0.2-2.3-0.6
    c-0.6-0.4-1-1-1.1-1.9c-0.8,0.8-1.7,1.4-2.6,1.8s-2,0.7-3.1,0.7C377.4,133.5,376,133.1,374.9,132.1z M382.3,131.5
    c0.9-0.4,1.7-1,2.5-1.8v-6L381,124c-0.8,0.1-1.5,0.2-2.2,0.4c-0.7,0.2-1.4,0.4-1.9,0.7c-0.6,0.3-1,0.7-1.4,1.2s-0.5,1.1-0.5,1.9
    c0,1.2,0.4,2.2,1.2,2.9s1.8,1.1,3.1,1.1C380.4,132.1,381.4,131.9,382.3,131.5z"/>
  <path class="st1" d="M396.5,137.7c-0.4,0.7-0.9,1.4-1.4,2c-0.5,0.6-1.1,1-1.8,1.4s-1.4,0.5-2.2,0.5h-0.8c0-0.2,0-0.4,0.1-0.8
    s0.1-0.6,0.1-0.8h0.8c0.6,0,1.2-0.1,1.6-0.4c0.5-0.3,0.9-0.7,1.3-1.1c0.4-0.5,0.7-1,1-1.5c0.3-0.6,0.6-1.1,0.8-1.7l0.9-2.2
    l-6.9-16.7h1.8l5.9,15.1l5.9-15.1h1.8l-7.9,19.1C397.3,136.2,396.9,136.9,396.5,137.7z"/>
</g>
<g>
</g>
<g>
</g>
<g>
</g>
<g>
</g>
<g>
  <path class="st0" d="M44.5,89C20,89,0,69,0,44.5S20,0,44.5,0S89,20,89,44.5S69,89,44.5,89z M44.5,7C23.8,7,7,23.8,7,44.5
    S23.8,82,44.5,82S82,65.2,82,44.5S65.2,7,44.5,7z"/>
</g>
</svg>
