<svg version="1.1"
                xmlns="http://www.w3.org/2000/svg" xmlns:xlink="http://www.w3.org/1999/xlink" xmlns:a="http://ns.adobe.com/AdobeSVGViewerExtensions/3.0/"
                x="0px" y="0px" width="226.2px" height="78.9px" viewBox="0 0 226.2 78.9" style="enable-background:new 0 0 226.2 78.9;"
                xml:space="preserve">
                <style type="text/css">
                    .st1{fill:#FFFFFF;}
                </style>
                <defs>
                </defs>
                <g id="UNITED_1_">
                    <path class="st1" d="M79.9,35.4h5.2v11.5c0,2.8-0.8,5-2.3,6.6s-3.6,2.3-6.3,2.3c-2.7,0-4.8-0.8-6.3-2.3c-1.5-1.6-2.3-3.7-2.3-6.6
                    V35.4h5.2v12.1c0,1.3,0.3,2.2,0.8,2.9c0.6,0.6,1.4,0.9,2.6,0.9s2-0.3,2.6-0.9c0.6-0.6,0.8-1.6,0.8-2.9L79.9,35.4L79.9,35.4z"/>
                    <path class="st1" d="M102.7,35.4h5.2v20.2h-5.1l-8.3-12v12h-5.2V35.4h5.3l8.1,11.9V35.4z"/>
                    <path class="st1" d="M118.1,55.5h-5.2V35.4h5.2V55.5z"/>
                    <path class="st1" d="M121.2,35.4h16.9v4.7h-5.9v15.5H127V40.1h-5.8V35.4z"/>
                    <path class="st1" d="M155.1,39.6h-8.9v3.7h7.7v4.3h-7.7v3.7h8.9v4.3H141V35.4h14.1V39.6z"/>
                    <path class="st1" d="M166.2,35.4c3.1,0,5.5,0.9,7.1,2.6c1.6,1.7,2.5,4.2,2.5,7.5s-0.8,5.8-2.5,7.5s-4,2.6-7.1,2.6h-7.3V35.4H166.2z
                    M166.2,51.3c2.9,0,4.4-1.9,4.4-5.8s-1.5-5.8-4.4-5.8h-2.1v11.6C164.1,51.3,166.2,51.3,166.2,51.3z"/>
                </g>
                <g id="FRONTEND_1_">
                    <path class="st1" d="M81.6,13h-8.5v4h7.4v4.3h-7.4v7.6h-5.2V8.8h13.7V13z"/>
                    <path class="st1" d="M96.9,21.5l4.9,7.5H96l-3.7-6.7h-2.2V29h-5.2V8.8h7.9c2.5,0,4.4,0.6,5.9,1.7s2.2,2.8,2.2,4.8
                    c0,1.6-0.4,2.9-1.1,4S98.2,21,96.9,21.5z M90.1,18.3h3.1c0.7,0,1.3-0.2,1.8-0.7s0.8-1.1,0.8-1.9c0-0.8-0.3-1.4-0.8-1.9
                    s-1.1-0.7-1.8-0.7h-3.1V18.3z"/>
                    <path class="st1" d="M110.9,8.8c0.8-0.2,1.7-0.2,2.7-0.2c0.9,0,1.8,0.1,2.7,0.2c0.8,0.2,1.7,0.5,2.5,0.9c0.9,0.5,1.6,1.1,2.2,1.8
                    s1.1,1.7,1.5,3s0.6,2.7,0.6,4.3c0,1.6-0.2,3.1-0.6,4.3c-0.4,1.3-0.9,2.2-1.5,3c-0.6,0.7-1.4,1.3-2.2,1.8c-0.9,0.5-1.7,0.8-2.5,0.9
                    c-0.8,0.2-1.7,0.2-2.7,0.2c-0.9,0-1.8-0.1-2.7-0.2c-0.8-0.2-1.7-0.5-2.5-0.9c-0.9-0.5-1.6-1.1-2.2-1.8c-0.6-0.7-1.1-1.7-1.5-3
                    s-0.6-2.7-0.6-4.3c0-1.6,0.2-3.1,0.6-4.3c0.4-1.3,0.9-2.2,1.5-3c0.6-0.7,1.4-1.3,2.2-1.8C109.3,9.3,110.1,9,110.9,8.8z M110.5,23.4
                    c0.8,0.8,1.8,1.3,3.1,1.3c1.3,0,2.3-0.4,3.1-1.3c0.8-0.8,1.2-2.4,1.2-4.5c0-2.2-0.4-3.7-1.2-4.5c-0.8-0.8-1.8-1.3-3.1-1.3
                    c-1.3,0-2.3,0.4-3.1,1.3c-0.8,0.8-1.2,2.4-1.2,4.5S109.7,22.5,110.5,23.4z"/>
                    <path class="st1" d="M140.3,8.8h5.2V29h-5.1l-8.3-12v12h-5.2V8.8h5.3l8.1,11.9V8.8z"/>
                    <path class="st1" d="M148.5,8.8h16.9v4.7h-5.9V29h-5.2V13.5h-5.8V8.8z"/>
                    <path class="st1" d="M182.4,13h-8.9v3.7h7.7V21h-7.7v3.7h8.9V29h-14.1V8.8h14.1V13z"/>
                    <path class="st1" d="M199.6,8.8h5.2V29h-5.1l-8.3-12v12h-5.2V8.8h5.3l8.1,11.9V8.8z"/>
                    <path class="st1" d="M216.6,8.8c3.1,0,5.5,0.9,7.1,2.6s2.5,4.2,2.5,7.5s-0.8,5.8-2.5,7.5c-1.6,1.7-4,2.6-7.1,2.6h-7.3V8.8H216.6z
                    M216.6,24.7c2.9,0,4.4-1.9,4.4-5.8s-1.5-5.8-4.4-5.8h-2.1v11.6H216.6z"/>
                </g>
                <path class="st1" d="M31,0C13.9,0,0,13.9,0,31s13.9,31,31,31s31-13.9,31-31S48.1,0,31,0z M51.7,22.4c0.3,0.5,0.7,1.1-0.3,1.3
                c-10.4,1.3-19.8,1.6-30,4.2c0,0.2,0.1,0.4,0.1,0.6c1.9-0.3,3.8-0.7,5.8-0.9c2.8-0.2,5.5-0.4,8.3-0.3c0.9,0,2.1,0.7,2.6,1.5
                c1.3,2.1,2.2,4.3,3.3,6.5c0.5,1,0.2,1.8-1,2.1c-0.2,0-0.4,0.1-0.5,0.2c-2.9,0.9-6,1.1-8.7,2.8c-2.1,1.3-4.3,0.2-6-1.5
                c-1.7-1.7-3.5-3.1-5.3-4.7c-0.2,0.1-0.5,0.2-0.7,0.3c1.8,7.2,3.7,14.3,5.6,22c-1-0.4-1.6-0.5-2-0.9c-2.3-1.7-4.7-3.4-6.8-5.3
                c-1.2-1.1-2.1-2.7-2.6-4.2C11.5,39.6,9.7,33,8,26.4c-0.7-2.6-1.3-5.1-1.7-7.7c-0.4-2,0.9-3,2.8-2.3c0.3,0.1,0.9,0.4,1,0.3
                c2.4-2,5.3-0.9,7.9-1.1c10-0.8,20-1.2,30-1.7c3.9-0.2,7.4,2.6,8.4,6.4c-0.2,0.5-0.4,1.1-0.5,1.8C54.5,22.2,53.2,22.3,51.7,22.4z"/>
                <g>
                    <path class="st1" d="M67.1,64.3c0-2.8,2-4.8,4.8-4.8c1.5,0,2.6,0.4,3.4,1.3L74,62.1c-0.5-0.5-1-0.9-2.1-0.9c-1.7,0-2.8,1.3-2.8,3.1
                    c0,1.8,1.1,3.1,3.1,3.1c0.6,0,1.4-0.1,1.8-0.3v-1.4h-2.3V64h4v4.1c-0.5,0.4-1.9,1.1-3.6,1.1C69.2,69.2,67.1,67.1,67.1,64.3z"/>
                    <path class="st1" d="M77.7,59.7h1.9v4.8h4v-4.8h1.9V69h-1.9v-2.9h-4V69h-1.9V59.7z"/>
                    <path class="st1" d="M87.5,59.7h6.2v1.7h-4.3v3h3.8V66h-3.8v1.4h4.5V69h-6.4V59.7z"/>
                    <path class="st1" d="M98.5,64.7c-0.5-0.4-1.1-1.3-1.1-1.3s0.1,1,0.1,1.7V69h-1.8v-9.5h0.2l4.7,4.4c0.5,0.4,1.1,1.3,1.1,1.3
                    s-0.1-1.1-0.1-1.7v-3.9h1.8v9.5h-0.2L98.5,64.7z"/>
                    <path class="st1" d="M107.5,61.4h-2.7v-1.7h7.3v1.7h-2.7V69h-1.9V61.4z"/>
                    <path class="st1" d="M112.3,69c-0.4-0.2-0.7-0.6-0.7-1c0-0.6,0.5-1.1,1.2-1.1c0.6,0,1.2,0.5,1.2,1.2c0,0.5-0.2,0.8-0.4,1.2
                    l-0.8,1.5h-0.9L112.3,69z"/>
                    <path class="st1" d="M118.5,59.7h3.6c1.8,0,2.7,1.1,2.7,2.4c0,0.9-0.5,1.5-1.3,1.7c1.3,0.3,1.9,1.2,1.9,2.3c0,1.7-1.2,2.9-3.1,2.9
                    h-3.8V59.7z M121.9,63.1c0.6,0,1-0.3,1-0.9c0-0.5-0.3-0.9-0.9-0.9h-1.6v1.8H121.9z M122.2,67.3c0.8,0,1.3-0.5,1.3-1.3
                    c0-0.8-0.5-1.3-1.4-1.3h-1.7v2.6H122.2z"/>
                    <path class="st1" d="M126.9,59.7h6.2v1.7h-4.3v3h3.8V66h-3.8v1.4h4.5V69h-6.4V59.7z"/>
                    <path class="st1" d="M135.1,59.7h1.9v7.7h4.2V69h-6.2V59.7z"/>
                    <path class="st1" d="M141.9,64.3c0-2.8,2-4.8,4.8-4.8c1.5,0,2.6,0.4,3.4,1.3l-1.3,1.3c-0.5-0.5-1-0.9-2.1-0.9
                    c-1.7,0-2.8,1.3-2.8,3.1c0,1.8,1.1,3.1,3.1,3.1c0.6,0,1.4-0.1,1.8-0.3v-1.4h-2.3V64h4v4.1c-0.5,0.4-1.9,1.1-3.6,1.1
                    C144,69.2,141.9,67.1,141.9,64.3z"/>
                    <path class="st1" d="M152.5,59.7h1.9V69h-1.9V59.7z"/>
                    <path class="st1" d="M156.4,65.6v-6h1.9v5.9c0,1.4,0.6,1.9,1.9,1.9c1.3,0,1.8-0.5,1.8-1.9v-5.9h1.9v6c0,2.4-1.6,3.5-3.8,3.5
                    C158,69.2,156.4,68,156.4,65.6z"/>
                    <path class="st1" d="M165.9,59.6h0.2l4.6,5.1l4.6-5.1h0.2V69h-1.9v-3.5c0-0.6,0.1-1.6,0.1-1.6s-0.6,0.8-1,1.3l-1.9,2.1h-0.2
                    l-1.9-2.1c-0.4-0.5-1-1.3-1-1.3s0.1,1,0.1,1.6V69h-1.8V59.6z"/>
                </g>
                <g>
                    <path class="st1" d="M66.6,77.8l2-2c0.6-0.6,1-1,1-1.5c0-0.5-0.3-0.8-0.8-0.8c-0.5,0-0.9,0.4-1,0.9l-1-0.3c0.3-1,1-1.6,2-1.6
                    c1.2,0,1.9,0.7,1.9,1.6c0,0.7-0.4,1.3-1.1,1.9L69,76.7c-0.2,0.2-0.6,0.4-0.6,0.4s0.4,0,0.6,0h1.6v0.9h-4.1V77.8z"/>
                    <path class="st1" d="M74.1,73.6h-2.7v-0.9h4.1v0.1l-2.7,6h-1.1L74.1,73.6z"/>
                    <path class="st1" d="M75.8,75.1h2.1V76h-2.1V75.1z"/>
                    <path class="st1" d="M78.4,77.8l2-2c0.6-0.6,1-1,1-1.5c0-0.5-0.3-0.8-0.8-0.8c-0.5,0-0.9,0.4-1,0.9l-1-0.3c0.3-1,1-1.6,2-1.6
                    c1.2,0,1.9,0.7,1.9,1.6c0,0.7-0.4,1.3-1.1,1.9l-0.5,0.4c-0.2,0.2-0.6,0.4-0.6,0.4s0.4,0,0.6,0h1.6v0.9h-4.1V77.8z"/>
                    <path class="st1" d="M83.3,76.1c0-0.8,0.5-1.4,1.3-1.6c-0.5-0.2-0.8-0.6-0.8-1.2c0-0.8,0.7-1.5,1.8-1.5c1.1,0,1.8,0.7,1.8,1.5
                    c0,0.6-0.3,1-0.8,1.2c0.8,0.2,1.3,0.8,1.3,1.6c0,1.1-0.9,1.9-2.3,1.9C84.2,78,83.3,77.2,83.3,76.1z M86.8,76c0-0.7-0.5-1.1-1.2-1.1
                    c-0.7,0-1.2,0.5-1.2,1.1c0,0.6,0.5,1.1,1.2,1.1C86.3,77.1,86.8,76.7,86.8,76z M86.4,73.3c0-0.5-0.3-0.8-0.8-0.8
                    c-0.5,0-0.8,0.3-0.8,0.8c0,0.4,0.3,0.7,0.8,0.7C86,74.1,86.4,73.8,86.4,73.3z"/>
                    <path class="st1" d="M91.4,71h0.1l3.3,3.8L98,71h0.1v6.9h-1v-3.6c0-0.4,0-1,0-1s-0.3,0.5-0.6,0.8l-1.7,2.1h-0.1l-1.7-2.1
                    c-0.3-0.3-0.6-0.8-0.6-0.8s0,0.6,0,1v3.6h-1V71z"/>
                    <path class="st1" d="M102.2,71h0.1l3,6.9h-1.1l-0.4-1h-3.1l-0.4,1h-1L102.2,71z M103.4,76.1l-0.9-2.1c-0.2-0.4-0.3-1-0.3-1
                    s-0.2,0.6-0.3,1l-0.9,2.1H103.4z"/>
                    <path class="st1" d="M107.4,75.8l-2.6-4.7h1.2l1.6,2.8c0.2,0.4,0.4,1,0.4,1s0.2-0.6,0.4-1l1.5-2.8h1.1l-2.5,4.6v2.2h-1.1V75.8z"/>
                </g>
            </svg>