<!-- Generator: Adobe Illustrator 19.0.1, SVG Export Plug-In  -->
<svg version="1.1"
   xmlns="http://www.w3.org/2000/svg" xmlns:xlink="http://www.w3.org/1999/xlink" xmlns:a="http://ns.adobe.com/AdobeSVGViewerExtensions/3.0/"
   x="0px" y="0px" width="256.3px" height="359.6px" viewBox="0 0 256.3 359.6" style="enable-background:new 0 0 256.3 359.6;"
   xml:space="preserve">
<style type="text/css">
  .st0{fill:#CFE2DD;}
  .st1{fill:#AABCB7;}
  .st2{fill:#3B445B;}
  .st3{fill:#E94D27;}
</style>
<defs>
</defs>
<g>
  <rect y="269.9" class="st0" width="26.1" height="89.7"/>
  <rect x="230.1" y="269.9" class="st0" width="26.1" height="89.7"/>
  <polygon class="st1" points="230.1,359.6 168.9,359.6 168.9,289.9 230.1,269.9  "/>
  <polygon class="st1" points="78.9,359.6 26.1,359.6 26.1,269.9 78.9,289.9  "/>
  <g>
    <polygon class="st2" points="120.7,130.9 144.2,54.1 118.1,54.1 102.9,85.5     "/>
    <polygon class="st2" points="26.1,269.9 72.7,287.6 102.3,190.8    "/>
  </g>
  <polygon class="st3" points="170.3,0 127.5,148.5 87.4,46 0,165.3 0,269.9 26.1,269.9 128.1,164 230.1,269.9 256.3,269.9
    256.3,165.3   "/>
</g>
</svg>
